<?xml version="1.0" encoding="UTF-8" standalone="no"?>
<!-- Created with Inkscape (http://www.inkscape.org/) -->

<svg
   xmlns:dc="http://purl.org/dc/elements/1.1/"
   xmlns:cc="http://creativecommons.org/ns#"
   xmlns:rdf="http://www.w3.org/1999/02/22-rdf-syntax-ns#"
   xmlns:svg="http://www.w3.org/2000/svg"
   xmlns="http://www.w3.org/2000/svg"
   version="1.1"
   width="296.06674"
   height="255.87604"
   id="svg2">
  <defs
     id="defs4" />
  <metadata
     id="metadata7">
    <rdf:RDF>
      <cc:Work
         rdf:about="">
        <dc:format>image/svg+xml</dc:format>
        <dc:type
           rdf:resource="http://purl.org/dc/dcmitype/StillImage" />
        <dc:title></dc:title>
      </cc:Work>
    </rdf:RDF>
  </metadata>
  <g
     transform="translate(-78.770485,-416.68696)"
     id="layer1"
     style="display:inline">
    <g
       transform="translate(-310,-59.024584)"
       id="g3236">
      <g
         transform="translate(-154.24215,21.356606)"
         id="g3126">
        <path
           d="m 650.26088,708.71893 c -40.73606,-11.18284 -77.79345,-48.45377 -89.12435,-89.63795 -1.49814,-5.44527 -1.87061,-8.45678 -0.97769,-7.90493 0.27228,0.16828 7.14385,2.15649 15.27015,4.41824 8.12629,2.26175 15.00711,4.32984 15.2907,4.59575 0.2836,0.26591 1.4141,2.55027 2.51223,5.07636 8.94671,20.58052 30.176,42.11644 50.02086,50.74334 2.58872,1.12535 4.83842,2.17777 4.99935,2.3387 0.16092,0.16092 2.09819,6.92459 4.30504,15.03037 2.20685,8.10577 4.16084,15.22364 4.34218,15.81748 0.41768,1.36769 -0.0364,1.33504 -6.63847,-0.47736 z m 65.81289,0.78585 c 0.22558,-0.62935 5.33154,-19.69788 7.76474,-28.99786 0.33293,-1.27251 0.89687,-2.31366 1.2532,-2.31366 1.57491,0 12.69758,-5.8911 18.52383,-9.81111 15.83246,-10.65236 29.14177,-25.85633 36.24557,-41.40532 l 2.68122,-5.86873 15.49766,-4.42 c 8.52372,-2.43101 15.62466,-4.29302 15.77987,-4.13781 0.50093,0.50094 -2.36533,11.22826 -4.64685,17.39138 -13.54776,36.59688 -50.82318,70.33673 -87.39331,79.10406 -6.0317,1.44604 -6.06053,1.44836 -5.70593,0.45905 z M 672.87881,663.6794 c -17.13941,-3.15267 -30.86526,-10.43696 -43.52005,-23.096 -12.48493,-12.48914 -18.66766,-23.8535 -22.27228,-40.9383 -1.01858,-4.82774 -1.34153,-8.61128 -1.39213,-16.30948 l -0.0659,-10.02348 -2.93063,-0.002 c -1.61185,-0.001 -2.93064,-0.28421 -2.93064,-0.62867 0,-0.34446 0.46198,-2.28793 1.02662,-4.31883 l 1.02662,-3.69245 2.5516,0 2.55161,0 1.68943,-6.01551 c 5.30204,-18.87891 19.87485,-37.15502 37.74769,-47.3403 6.75257,-3.84811 12.91754,-6.32017 21.2693,-8.52863 6.76242,-1.7882 7.70049,-1.87964 19.74768,-1.92496 12.01175,-0.0452 12.98939,0.0413 19.43473,1.72015 15.28978,3.98252 27.66743,11.10325 38.81655,22.33075 10.94783,11.02479 17.05729,21.75407 20.77952,36.49248 1.77655,7.03436 3.44928,21.94062 2.71996,24.2385 -0.97152,3.06098 0.6483,0.44086 6.28121,-10.16015 3.33124,-6.26933 6.24046,-11.40565 6.46492,-11.41405 0.30305,-0.0113 19.75641,35.2668 20.73473,37.60187 0.0911,0.21747 -2.03192,0.81424 -4.71786,1.32615 l -4.88351,0.93074 -2.03383,-4.20412 -2.03383,-4.20413 -7.16532,0 -7.16532,0 -2.02621,4.18839 c -1.92937,3.9882 -2.11938,4.17844 -3.9753,3.98013 l -1.94907,-0.20826 -1.79222,5.6549 c -8.17346,25.78933 -31.21001,46.66762 -59.28837,53.73376 -6.67432,1.67964 -25.44826,2.14582 -32.69971,0.81196 z m 113.80586,-75.41035 c -0.0144,-0.2545 -1.08541,-2.3484 -2.38005,-4.6531 -2.67755,-4.76655 -2.44267,-4.84196 -5.84561,1.87671 l -1.64059,3.23912 4.9462,0 c 2.72041,0 4.93443,-0.20822 4.92005,-0.46273 z m -229.4386,14.93873 c -5.93289,-1.65128 -10.03456,-5.08202 -12.51235,-10.46565 -2.00455,-4.35539 -2.00358,-13.49111 0.002,-17.60275 2.21139,-4.53388 4.81482,-7.18844 9.13672,-9.31609 3.26635,-1.60802 4.82145,-1.9958 8.15296,-2.03303 6.81184,-0.0761 7.27632,0.20627 7.77573,4.72708 0.2348,2.12553 0.58305,4.50606 0.77387,5.29009 l 0.34696,1.42549 -2.08142,-1.26895 c -1.44466,-0.88074 -3.1388,-1.26965 -5.53779,-1.27125 -3.99616,-0.002 -6.72531,1.48536 -9.07533,4.94819 -1.26481,1.86373 -1.42704,2.72668 -1.23823,6.5865 0.24055,4.91737 1.24582,6.85506 4.81751,9.28594 2.63499,1.79335 7.42575,1.87624 10.74139,0.18583 l 2.35836,-1.20236 -0.41471,4.13299 c -0.5177,5.15937 -0.78557,6.09491 -1.86351,6.50856 -2.34467,0.89973 -8.26893,0.93585 -11.38203,0.0694 z m 266.70497,-8.15968 -5.46597,-8.9342 -0.17109,8.31609 -0.17108,8.31609 -4.40501,0.3693 c -2.42276,0.20312 -4.6363,0.22637 -4.91897,0.0516 -0.28267,-0.17468 -0.51395,-8.93351 -0.51395,-19.46404 l 0,-19.14642 9.10039,0.21083 c 8.35945,0.19367 9.32199,0.33642 11.82213,1.75327 3.74324,2.12133 5.13813,4.22081 5.47097,8.23444 0.35934,4.33323 -0.65459,7.29023 -3.29458,9.60816 -1.16696,1.02461 -2.12174,2.00714 -2.12174,2.18341 0,0.17627 2.21057,3.43442 4.91237,7.24034 2.70181,3.8059 4.84699,6.98522 4.76706,7.06515 -0.0799,0.0799 -2.26014,0.8169 -4.84494,1.63773 l -4.69963,1.49241 -5.46596,-8.9342 z m -0.23738,-13.08735 c 3.66312,-3.66312 1.35326,-9.2334 -3.8404,-9.26124 l -1.69668,-0.009 0,5.24429 0,5.24429 2.15941,0 c 1.32751,0 2.62874,-0.46932 3.37767,-1.21825 z m -241.83876,2.2362 0,-19.50371 1.38819,-0.28066 c 0.76351,-0.15437 2.8458,-0.42422 4.62732,-0.59967 l 3.23912,-0.31899 0,19.71415 0,19.71416 -2.31366,0.007 c -1.27251,0.004 -3.3548,0.17888 -4.62731,0.38922 l -2.31366,0.38242 0,-19.5037 z m 225.5046,-32.89097 c -23.98401,-6.49138 -23.83954,-6.44198 -24.51665,-8.38433 -1.41184,-4.05002 -6.05729,-12.81595 -9.40033,-17.73836 -6.31482,-9.29817 -14.37927,-17.88069 -23.46175,-24.96894 -6.3042,-4.92 -8.95517,-6.58904 -17.21256,-10.83699 l -6.72396,-3.45909 -3.91763,-13.52994 c -2.15469,-7.44146 -4.18155,-14.46164 -4.50414,-15.6004 l -0.58651,-2.07047 2.89893,0.43264 c 1.59442,0.23795 6.19197,1.51296 10.21679,2.83336 34.1436,11.20124 64.88053,40.38151 79.00944,75.00801 2.668,6.53862 6.2516,18.76935 5.80881,19.82534 -0.1137,0.27116 -3.5384,-0.4087 -7.61044,-1.51083 z m -247.39626,-1.06167 c 7.04877,-35.50603 38.70365,-72.9123 75.05092,-88.68696 8.77639,-3.80894 22.34057,-7.92011 23.22224,-7.03843 0.37738,0.37738 -2.73056,12.56517 -5.90519,23.15724 l -2.31149,7.71219 -7.41554,3.70186 c -9.15637,4.57088 -16.31815,9.30116 -23.22648,15.34083 -9.70807,8.48738 -19.54337,21.36791 -25.16215,32.95292 -3.2253,6.65003 -1.25369,5.63121 -21.80082,11.2656 l -12.83354,3.51918 0.38205,-1.92443 z"
           id="path3140"
           style="fill:#f7e411" />
        <path
           d="m 650.26088,708.71893 c -40.73606,-11.18284 -77.79345,-48.45377 -89.12435,-89.63795 -1.49814,-5.44527 -1.87061,-8.45678 -0.97769,-7.90493 0.27228,0.16828 7.14385,2.15649 15.27015,4.41824 8.12629,2.26175 15.00711,4.32984 15.2907,4.59575 0.2836,0.26591 1.4141,2.55027 2.51223,5.07636 8.94671,20.58052 30.176,42.11644 50.02086,50.74334 2.58872,1.12535 4.83842,2.17777 4.99935,2.3387 0.16092,0.16092 2.09819,6.92459 4.30504,15.03037 2.20685,8.10577 4.16084,15.22364 4.34218,15.81748 0.41768,1.36769 -0.0364,1.33504 -6.63847,-0.47736 z m -13.02078,-21.8197 10.63447,-6.29682 -6.62413,-3.32513 c -3.64327,-1.82882 -8.9646,-4.86963 -11.82519,-6.75736 -2.86058,-1.88772 -5.28992,-3.43222 -5.39853,-3.43222 -0.10861,0 -0.19748,6.27881 -0.19748,13.95291 l 0,13.95291 1.3882,-0.89873 c 0.7635,-0.4943 6.1737,-3.7323 12.02266,-7.19556 z m -27.96286,-17.62979 c 6.73481,-1.85407 12.34741,-3.47334 12.47245,-3.59838 0.12503,-0.12503 -1.86399,-2.10649 -4.42006,-4.40324 -2.55606,-2.29674 -6.63215,-6.43848 -9.05798,-9.20387 -2.42583,-2.76537 -4.57876,-5.10089 -4.78429,-5.19002 -0.20553,-0.0891 -1.52805,3.79782 -2.93894,8.63766 -3.66878,12.58522 -4.73287,17.12889 -4.01144,17.12889 0.27233,0 6.00545,-1.51697 12.74026,-3.37104 z m -9.86497,-28.55745 c -2.91082,-4.3244 -8.13663,-14.31965 -9.41489,-18.00759 -0.44159,-1.27402 -0.95363,-1.88974 -1.28275,-1.54244 -0.30128,0.31791 -3.6323,5.57085 -7.40227,11.67318 -5.88882,9.53204 -6.70145,11.1557 -5.76813,11.52493 0.59751,0.23637 6.84298,0.44929 13.87883,0.47314 l 12.79246,0.0434 -2.80325,-4.16458 z m 116.6615,68.79279 c 0.22558,-0.62935 5.33154,-19.69788 7.76474,-28.99786 0.33293,-1.27251 0.89687,-2.31366 1.2532,-2.31366 1.57491,0 12.69758,-5.8911 18.52383,-9.81111 15.83246,-10.65236 29.14177,-25.85633 36.24557,-41.40532 l 2.68122,-5.86873 15.49766,-4.42 c 8.52372,-2.43101 15.62466,-4.29302 15.77987,-4.13781 0.50093,0.50094 -2.36533,11.22826 -4.64685,17.39138 -13.54776,36.59688 -50.82318,70.33673 -87.39331,79.10406 -6.0317,1.44604 -6.06053,1.44836 -5.70593,0.45905 z m 32.77402,-41.61629 c -0.13838,-0.13839 -2.85078,1.45615 -6.02755,3.54341 -3.17678,2.08727 -8.36295,5.05443 -11.52483,6.59369 -3.16188,1.53927 -5.52182,3.01212 -5.24429,3.273 0.27751,0.26088 5.50207,3.56197 11.61013,7.33575 l 11.10556,6.86143 0.16629,-13.67784 c 0.0915,-7.52282 0.0531,-13.79106 -0.0853,-13.92944 z m 27.68708,2.43833 c -0.47014,-1.61185 -2.11448,-7.34319 -3.65408,-12.73631 -1.53961,-5.39312 -2.8906,-9.897 -3.00222,-10.00862 -0.11162,-0.11162 -1.9517,1.78432 -4.08906,4.21321 -2.13737,2.42889 -5.73129,6.06375 -7.98651,8.07746 -2.25521,2.01372 -4.75869,4.29263 -5.5633,5.06423 l -1.46291,1.40293 3.62233,1.07896 c 9.89948,2.94871 20.42563,5.7723 21.63561,5.80366 1.32638,0.0344 1.33692,-0.0267 0.50014,-2.89552 z m 21.16144,-27.14693 c -0.72182,-1.27251 -3.92985,-6.67755 -7.12896,-12.01119 l -5.81654,-9.69753 -3.25305,6.61265 c -1.78918,3.63696 -4.81867,8.94568 -6.7322,11.79715 -1.91352,2.85147 -3.47913,5.28081 -3.47913,5.39853 0,0.11773 6.23751,0.21405 13.86114,0.21405 l 13.86115,0 -1.31241,-2.31366 z m -124.8175,20.49951 c -17.13941,-3.15267 -30.86526,-10.43696 -43.52005,-23.096 -12.48493,-12.48914 -18.66766,-23.8535 -22.27228,-40.9383 -1.01858,-4.82774 -1.34153,-8.61128 -1.39213,-16.30948 l -0.0659,-10.02348 -2.93063,-0.002 c -1.61185,-0.001 -2.93064,-0.28421 -2.93064,-0.62867 0,-0.34446 0.46198,-2.28793 1.02662,-4.31883 l 1.02662,-3.69245 2.5516,0 2.55161,0 1.68943,-6.01551 c 5.30204,-18.87891 19.87485,-37.15502 37.74769,-47.3403 6.75257,-3.84811 12.91754,-6.32017 21.2693,-8.52863 6.76242,-1.7882 7.70049,-1.87964 19.74768,-1.92496 12.01175,-0.0452 12.98939,0.0413 19.43473,1.72015 15.28978,3.98252 27.66743,11.10325 38.81655,22.33075 10.94783,11.02479 17.05729,21.75407 20.77952,36.49248 1.77655,7.03436 3.44928,21.94062 2.71996,24.2385 -0.97152,3.06098 0.6483,0.44086 6.28121,-10.16015 3.33124,-6.26933 6.24046,-11.40565 6.46492,-11.41405 0.30305,-0.0113 19.75641,35.2668 20.73473,37.60187 0.0911,0.21747 -2.03192,0.81424 -4.71786,1.32615 l -4.88351,0.93074 -2.03383,-4.20412 -2.03383,-4.20413 -7.16532,0 -7.16532,0 -2.02621,4.18839 c -1.92937,3.9882 -2.11938,4.17844 -3.9753,3.98013 l -1.94907,-0.20826 -1.79222,5.6549 c -8.17346,25.78933 -31.21001,46.66762 -59.28837,53.73376 -6.67432,1.67964 -25.44826,2.14582 -32.69971,0.81196 z m 113.80586,-75.41035 c -0.0144,-0.2545 -1.08541,-2.3484 -2.38005,-4.6531 -2.67755,-4.76655 -2.44267,-4.84196 -5.84561,1.87671 l -1.64059,3.23912 4.9462,0 c 2.72041,0 4.93443,-0.20822 4.92005,-0.46273 z m -229.4386,14.93873 c -5.93289,-1.65128 -10.03456,-5.08202 -12.51235,-10.46565 -2.00455,-4.35539 -2.00358,-13.49111 0.002,-17.60275 2.21139,-4.53388 4.81482,-7.18844 9.13672,-9.31609 3.26635,-1.60802 4.82145,-1.9958 8.15296,-2.03303 6.81184,-0.0761 7.27632,0.20627 7.77573,4.72708 0.2348,2.12553 0.58305,4.50606 0.77387,5.29009 l 0.34696,1.42549 -2.08142,-1.26895 c -1.44466,-0.88074 -3.1388,-1.26965 -5.53779,-1.27125 -3.99616,-0.002 -6.72531,1.48536 -9.07533,4.94819 -1.26481,1.86373 -1.42704,2.72668 -1.23823,6.5865 0.24055,4.91737 1.24582,6.85506 4.81751,9.28594 2.63499,1.79335 7.42575,1.87624 10.74139,0.18583 l 2.35836,-1.20236 -0.41471,4.13299 c -0.5177,5.15937 -0.78557,6.09491 -1.86351,6.50856 -2.34467,0.89973 -8.26893,0.93585 -11.38203,0.0694 z m 266.70497,-8.15968 -5.46597,-8.9342 -0.17109,8.31609 -0.17108,8.31609 -4.40501,0.3693 c -2.42276,0.20312 -4.6363,0.22637 -4.91897,0.0516 -0.28267,-0.17468 -0.51395,-8.93351 -0.51395,-19.46404 l 0,-19.14642 9.10039,0.21083 c 8.35945,0.19367 9.32199,0.33642 11.82213,1.75327 3.74324,2.12133 5.13813,4.22081 5.47097,8.23444 0.35934,4.33323 -0.65459,7.29023 -3.29458,9.60816 -1.16696,1.02461 -2.12174,2.00714 -2.12174,2.18341 0,0.17627 2.21057,3.43442 4.91237,7.24034 2.70181,3.8059 4.84699,6.98522 4.76706,7.06515 -0.0799,0.0799 -2.26014,0.8169 -4.84494,1.63773 l -4.69963,1.49241 -5.46596,-8.9342 z m -0.23738,-13.08735 c 3.66312,-3.66312 1.35326,-9.2334 -3.8404,-9.26124 l -1.69668,-0.009 0,5.24429 0,5.24429 2.15941,0 c 1.32751,0 2.62874,-0.46932 3.37767,-1.21825 z m -241.83876,2.2362 0,-19.50371 1.38819,-0.28066 c 0.76351,-0.15437 2.8458,-0.42422 4.62732,-0.59967 l 3.23912,-0.31899 0,19.71415 0,19.71416 -2.31366,0.007 c -1.27251,0.004 -3.3548,0.17888 -4.62731,0.38922 l -2.31366,0.38242 0,-19.5037 z m 225.5046,-32.89097 c -23.98401,-6.49138 -23.83954,-6.44198 -24.51665,-8.38433 -1.41184,-4.05002 -6.05729,-12.81595 -9.40033,-17.73836 -6.31482,-9.29817 -14.37927,-17.88069 -23.46175,-24.96894 -6.3042,-4.92 -8.95517,-6.58904 -17.21256,-10.83699 l -6.72396,-3.45909 -3.91763,-13.52994 c -2.15469,-7.44146 -4.18155,-14.46164 -4.50414,-15.6004 l -0.58651,-2.07047 2.89893,0.43264 c 1.59442,0.23795 6.19197,1.51296 10.21679,2.83336 34.1436,11.20124 64.88053,40.38151 79.00944,75.00801 2.668,6.53862 6.2516,18.76935 5.80881,19.82534 -0.1137,0.27116 -3.5384,-0.4087 -7.61044,-1.51083 z m -13.97327,-19.74577 c 5.32753,-8.76746 6.60483,-11.28556 5.86802,-11.5683 -0.99044,-0.38006 -26.75387,-0.51912 -26.75387,-0.1444 0,0.11936 1.26986,2.13224 2.8219,4.47308 1.55205,2.34083 4.50967,7.67026 6.57248,11.84317 2.06282,4.17292 3.96007,7.36577 4.21611,7.09522 0.25604,-0.27053 3.52996,-5.53498 7.27536,-11.69877 z m -18.18847,-27.01514 c 1.88677,-6.76997 3.33521,-12.40431 3.21877,-12.52076 -0.23859,-0.23859 -15.8004,3.59589 -21.99074,5.41859 l -4.04358,1.1906 9.28787,9.49219 c 5.10832,5.22071 9.46996,9.32034 9.69252,9.11031 0.22257,-0.21004 1.94839,-5.92096 3.83516,-12.69093 z M 750.8609,480.06694 c 0.0359,-3.60545 -0.10001,-7.3821 -0.3021,-8.39255 l -0.36744,-1.83718 -11.70135,7.10008 -11.70136,7.10008 7.28723,3.78251 c 4.00798,2.08038 9.2307,5.095 11.60606,6.69914 l 4.31883,2.91663 0.3974,-5.40667 c 0.21857,-2.97367 0.4268,-8.35659 0.46273,-11.96204 z m -190.87766,70.17737 c 7.04877,-35.50603 38.70365,-72.9123 75.05092,-88.68696 8.77639,-3.80894 22.34057,-7.92011 23.22224,-7.03843 0.37738,0.37738 -2.73056,12.56517 -5.90519,23.15724 l -2.31149,7.71219 -7.41554,3.70186 c -9.15637,4.57088 -16.31815,9.30116 -23.22648,15.34083 -9.70807,8.48738 -19.54337,21.36791 -25.16215,32.95292 -3.2253,6.65003 -1.25369,5.63121 -21.80082,11.2656 l -12.83354,3.51918 0.38205,-1.92443 z m 32.51709,-13.82941 c 1.60228,-3.29302 4.5869,-8.57126 6.63249,-11.72941 2.04559,-3.15815 3.71925,-5.86514 3.71925,-6.01552 0,-0.15038 -6.13776,-0.27342 -13.63947,-0.27342 -12.73469,0 -13.61231,0.0716 -13.22992,1.07971 0.75401,1.98774 12.85833,22.98272 13.23386,22.95416 0.2038,-0.0155 1.68151,-2.72249 3.28379,-6.01552 z m 20.74971,-28.72906 c 2.9342,-3.00653 6.52372,-6.32221 7.97672,-7.36818 1.79388,-1.29135 2.38797,-2.03807 1.85093,-2.32646 -1.22498,-0.65781 -25.28525,-7.44038 -25.52903,-7.19661 -0.11874,0.11874 1.35636,6.13596 3.27799,13.37161 l 3.49388,13.15571 1.7973,-2.08483 c 0.98852,-1.14665 4.198,-4.54471 7.13221,-7.55124 z m 17.5314,-14.23629 c 2.82904,-1.84406 7.98356,-4.74159 11.45449,-6.43895 3.47092,-1.69737 6.25833,-3.31202 6.19426,-3.58813 -0.1094,-0.47142 -22.28421,-14.47107 -22.49354,-14.20089 -0.28912,0.37317 -0.91394,27.58082 -0.63338,27.58082 0.18394,0 2.64912,-1.50878 5.47817,-3.35285 z"
           id="path3138"
           style="fill:#9e9e9a" />
        <path
           d="m 650.66768,708.74137 c -41.12038,-10.93018 -79.43798,-49.84563 -89.81374,-91.21505 -0.74389,-2.96601 -1.19699,-5.54829 -1.00688,-5.7384 0.1901,-0.19011 7.16996,1.55488 15.51079,3.87774 l 15.16515,4.2234 3.99824,8.02068 c 4.97517,9.98044 10.46911,17.69715 18.78533,26.38561 8.49454,8.87476 17.41367,15.54148 27.26363,20.37855 l 7.79482,3.82785 4.1647,15.11591 c 2.29059,8.31374 4.296,15.46295 4.45647,15.88712 0.37706,0.99669 0.24152,0.98031 -6.31851,-0.76341 z M 635.66047,688.0008 c 6.39112,-3.76795 11.75581,-7.07019 11.92153,-7.33832 0.1657,-0.26813 -0.87687,-0.95166 -2.31686,-1.51896 -4.78571,-1.88539 -16.79145,-8.88096 -20.02516,-11.66837 l -1.36566,-1.17717 -0.17678,14.27734 c -0.0972,7.85253 -0.0599,14.2771 0.083,14.27681 0.14286,-2.9e-4 5.48884,-3.08339 11.87997,-6.85133 z m -16.89283,-21.19701 c 1.79716,-0.4407 3.37009,-0.90415 3.4954,-1.0299 0.12531,-0.12575 -1.7121,-1.89446 -4.08314,-3.93048 -4.09629,-3.51751 -12.06824,-12.01403 -13.65255,-14.55091 -1.0884,-1.74281 -1.50491,-1.47174 -2.21281,1.44017 -0.35061,1.44218 -1.05384,4.01034 -1.56274,5.70703 -2.25289,7.51118 -3.95202,13.82864 -4.34514,16.1555 l -0.42544,2.51818 9.75942,-2.75417 c 5.36769,-1.51479 11.22984,-3.11473 13.027,-3.55542 z M 599.54816,640.6973 c -2.47036,-3.854 -7.45844,-13.37596 -9.7207,-18.55624 l -0.9026,-2.06683 -1.70159,2.99229 c -0.93587,1.64576 -4.17214,6.87924 -7.19171,11.62996 -3.01956,4.75071 -5.50592,8.95616 -5.52524,9.34544 -0.0253,0.5099 3.84987,0.73347 13.86102,0.79967 l 13.89614,0.0919 -2.71532,-4.23618 z m 116.82743,68.96648 c 0,-0.70326 8.00996,-31.10545 8.21714,-31.18856 24.50605,-9.83061 46.49177,-30.5353 55.98647,-52.72436 0.94369,-2.20539 2.08467,-4.22616 2.53551,-4.49059 1.09588,-0.64276 30.37696,-9.01616 30.64269,-8.76277 0.43245,0.41237 -1.34472,7.63268 -3.41385,13.8698 -5.9025,17.79232 -16.9019,34.63667 -32.66482,50.02252 -15.86274,15.48328 -34.93254,26.89428 -53.00294,31.71595 -3.37743,0.90119 -6.62665,1.77687 -7.22049,1.94595 -0.59384,0.16909 -1.07971,-0.006 -1.07971,-0.38794 z m 32.69971,-28.38877 0,-14.19357 -4.80263,3.3079 c -2.64145,1.81935 -8.04875,4.9231 -12.01624,6.89723 l -7.21361,3.58933 2.00564,1.28083 c 1.10311,0.70445 2.55405,1.61419 3.22434,2.02164 9.42595,5.72974 13.35076,8.16721 15.40914,9.56968 1.35734,0.92484 2.67613,1.69029 2.93063,1.70102 0.2545,0.0107 0.46273,-6.36759 0.46273,-14.17406 z m 25.89429,-17.06717 c -1.4249,-5.03314 -2.94488,-10.26172 -3.37775,-11.61907 -0.43286,-1.35735 -0.96315,-3.2376 -1.1784,-4.17834 l -0.39138,-1.71045 -2.9867,3.56137 c -3.08607,3.67986 -9.44014,9.89847 -14.21502,13.91199 -1.50326,1.26356 -2.58051,2.29738 -2.39389,2.29738 0.18662,0 3.22122,0.86315 6.74355,1.91811 7.92891,2.37477 19.90646,5.44406 20.184,5.17223 0.11347,-0.11114 -0.95952,-4.32008 -2.38441,-9.35322 z m 23.17624,-20.52467 c -0.8872,-1.71566 -10.49647,-17.84444 -12.46063,-20.91466 -0.89866,-1.40473 -1.00522,-1.27105 -4.42602,5.55278 -1.92786,3.84569 -5.08397,9.28268 -7.01358,12.08221 l -3.50838,5.09005 14.1724,0 14.1724,0 -0.93619,-1.81038 z m -124.4377,20.05499 c -8.11769,-1.43511 -14.12242,-3.4373 -22.42347,-7.47678 -9.5477,-4.64613 -16.77039,-9.93473 -23.76107,-17.39833 -14.89623,-15.90398 -21.74428,-33.50009 -21.85086,-56.14592 l -0.0443,-9.40802 -2.93064,-6.2e-4 c -1.61185,-4.7e-4 -2.93063,-0.16352 -2.93063,-0.36232 0,-0.19881 0.47452,-2.14228 1.05448,-4.31883 l 1.05452,-3.95761 2.55057,0 2.55057,0 1.37716,-5.09005 c 1.7534,-6.48066 6.47086,-16.43543 11.01129,-23.23598 4.90376,-7.34473 14.44298,-16.77444 22.08624,-21.8327 13.80356,-9.1351 26.43601,-13.17122 43.14935,-13.78637 23.12418,-0.85112 42.33853,6.47351 59.04416,22.50798 16.34499,15.68831 24.12152,32.85249 25.00963,55.20065 0.1862,4.68557 0.55377,8.29488 0.81682,8.02068 0.26304,-0.2742 3.03468,-5.29285 6.15919,-11.15256 3.12451,-5.85972 5.87979,-10.77693 6.12285,-10.92715 0.4509,-0.27867 20.38121,36.05516 20.38121,37.15585 0,0.58443 -5.78349,2.00912 -8.156,2.00912 -0.82817,0 -1.70431,-1.15575 -3.04013,-4.01034 l -1.87667,-4.01034 -7.2874,0 -7.2874,0 -1.89892,4.0579 c -1.80519,3.85761 -1.99493,4.04795 -3.84396,3.8561 -1.94374,-0.20167 -1.94635,-0.19791 -3.92183,5.65946 -8.88078,26.33179 -32.23784,47.47149 -59.37533,53.73863 -7.07504,1.63391 -24.76894,2.13985 -31.73944,0.90755 z m 113.00269,-75.38098 c 0,-0.62828 -4.60424,-8.87149 -4.95763,-8.8759 -0.25511,-0.003 -3.17729,5.34817 -4.79869,8.78777 -0.11996,0.25451 2.02613,0.46273 4.7691,0.46273 2.74297,0 4.98722,-0.16857 4.98722,-0.3746 z M 559.0046,603.55226 c -6.32766,-1.1128 -11.72964,-5.28117 -14.36853,-11.08727 -1.99392,-4.38706 -1.85161,-12.7843 0.29421,-17.36003 3.33594,-7.11355 9.71366,-11.23074 17.47649,-11.28211 6.13567,-0.0406 6.684,0.40433 7.47963,6.06916 0.5879,4.18585 0.55441,4.65059 -0.30849,4.28088 -3.59582,-1.54061 -5.79307,-2.03158 -7.57773,-1.69318 -5.89306,1.11738 -9.32243,5.2802 -9.32243,11.31627 0,4.81089 2.1062,8.31139 6.30726,10.48268 2.35321,1.21623 7.12348,0.94656 9.65266,-0.54569 l 2.22191,-1.31096 -0.39205,3.55343 c -0.70231,6.36546 -0.87832,6.83986 -2.66902,7.19398 -3.79023,0.74954 -6.12965,0.85139 -8.79391,0.38284 z m 22.8703,-19.34272 0,-19.48389 2.00517,-0.31579 c 1.10284,-0.17369 3.18513,-0.40183 4.62732,-0.507 l 2.62214,-0.1912 0,19.60528 0,19.60529 -2.69927,0 c -1.48459,0 -3.56689,0.17352 -4.62731,0.38561 l -1.92805,0.38561 0,-19.48391 z m 227.04704,-0.23219 0,-19.44484 8.79191,0.25324 c 7.52478,0.21675 9.16232,0.44693 11.36209,1.59709 3.5129,1.83674 5.30465,4.53913 5.63275,8.49556 0.35866,4.32508 -0.72984,7.2967 -3.53565,9.65232 l -2.32736,1.95394 5.11684,7.13908 5.11685,7.13907 -4.30199,1.4464 c -2.3661,0.79551 -4.65411,1.31127 -5.08448,1.14613 -0.43036,-0.16515 -3.12818,-4.13274 -5.99516,-8.81686 l -5.21267,-8.5166 -0.17234,8.16799 c -0.12162,5.76407 -0.39399,8.23636 -0.92546,8.40031 -0.41422,0.12778 -2.48838,0.36725 -4.60923,0.53216 l -3.8561,0.29985 0,-19.44484 z m 14.37422,-1.52583 c 1.27201,-0.66683 2.28413,-2.97186 2.28413,-5.20199 0,-2.29451 -2.59102,-4.55911 -5.21626,-4.55911 l -2.18745,0 0,5.6018 0,5.6018 2.00517,-0.4305 c 1.10284,-0.23678 2.50433,-0.69218 3.11441,-1.012 z m -25.07602,-33.70385 -14.71215,-4.12965 -1.38705,-3.39336 c -8.79439,-21.51514 -28.01895,-41.631 -49.86654,-52.17848 l -6.02383,-2.90816 -0.99714,-3.45971 c -0.54843,-1.90284 -2.588,-8.94309 -4.53239,-15.64498 -3.02975,-10.44294 -3.38649,-12.18527 -2.49491,-12.18527 2.17478,0 14.16695,3.72698 20.38059,6.33397 22.75667,9.54777 43.91093,27.39521 58.67129,49.49984 4.6819,7.01145 10.96229,19.35025 13.44836,26.42138 1.63824,4.65964 4.38533,14.35924 4.38533,15.48401 0,0.75751 -2.611,0.1633 -16.87156,-3.83959 z m -4.81156,-16.86513 c 3.43542,-5.64717 6.41024,-10.69503 6.61072,-11.21747 0.32126,-0.83717 -1.31831,-0.95718 -13.81517,-1.01125 l -14.17968,-0.0613 3.20308,4.8686 c 1.76169,2.67772 4.83632,8.23253 6.83252,12.34401 3.12261,6.43151 3.73229,7.32668 4.36588,6.41024 0.40503,-0.58586 3.54722,-5.68561 6.98265,-11.33278 z M 771.7626,517.62533 c 0.072,-0.85587 0.11573,-1.01568 4.09605,-14.96166 2.94799,-10.32894 3.22801,-11.73194 2.21683,-11.10699 -0.33806,0.20893 -1.10157,0.48253 -1.69668,0.60799 -3.25738,0.68672 -21.50518,5.42647 -22.82818,5.92948 -1.52282,0.57897 -1.42099,0.72198 4.54141,6.37713 3.35455,3.18169 7.62619,7.61175 9.49254,9.84458 3.49411,4.18021 4.06666,4.63374 4.17803,3.30947 z M 750.76834,484.617 c 0.0828,-7.3805 -0.0775,-13.77438 -0.35623,-14.20864 -0.39347,-0.61296 -0.86287,-0.50947 -2.09884,0.46274 -0.87561,0.68875 -1.72392,1.25228 -1.88514,1.25228 -0.38595,0 -18.49228,11.04719 -19.1341,11.67426 -0.27258,0.26632 2.08735,1.76792 5.24429,3.33689 4.05168,2.01364 18.07942,10.4605 18.07942,10.88659 0,0.008 0.0678,-6.02363 0.1506,-13.40412 z m -190.10926,63.24014 c 3.48072,-15.15113 12.14423,-32.23464 23.70106,-46.73591 8.67927,-10.89056 23.87517,-24.38307 35.45876,-31.484 9.77654,-5.99317 22.43088,-11.50855 31.6249,-13.78367 7.68232,-1.90104 7.09532,-1.93256 6.65346,0.35723 -0.21553,1.11685 -2.10345,8.09656 -4.19539,15.51048 l -3.80352,13.47984 -7.11904,3.57596 c -13.44963,6.75585 -23.66316,14.49979 -32.8601,24.91465 -6.01249,6.8087 -12.72145,16.77922 -16.10058,23.92786 l -2.58061,5.45934 -4.93581,1.49331 c -6.48877,1.96315 -25.46844,7.14101 -26.17571,7.14101 -0.30431,0 -0.15465,-1.73524 0.33258,-3.8561 z m 31.07628,-9.7863 c 2.13238,-4.62625 5.39142,-10.22928 9.38019,-16.12668 l 2.39947,-3.54761 -14.25871,0 -14.25871,0 1.99541,3.54761 c 6.8144,12.11528 11.82607,20.51445 12.24069,20.51445 0.26357,0 1.38931,-1.9745 2.50166,-4.38777 z m 21.84129,-30.67477 c 2.41523,-2.48722 5.75045,-5.5251 7.41161,-6.75084 l 3.02029,-2.22861 -1.78634,-0.75461 c -1.57435,-0.66505 -6.43529,-2.12255 -13.20038,-3.95799 -1.18768,-0.32223 -3.94052,-1.14511 -6.11741,-1.82862 -4.22808,-1.32756 -5.61148,-1.52044 -5.59456,-0.78002 0.006,0.2545 0.53179,2.4062 1.16884,4.78156 0.63705,2.37536 2.02875,7.6505 3.09267,11.72254 1.06393,4.07204 2.10042,7.94234 2.30332,8.60066 0.3243,1.05223 0.66766,0.86573 2.83978,-1.54244 1.35897,-1.50666 4.44695,-4.7744 6.86218,-7.26163 z m 28.57769,-20.23108 c 3.83622,-1.8867 6.82301,-3.6762 6.63731,-3.97667 -0.1857,-0.30047 -2.06067,-1.53904 -4.16661,-2.75238 -2.10593,-1.21335 -7.12786,-4.28378 -11.15983,-6.8232 -4.03197,-2.53941 -7.41858,-4.52938 -7.52581,-4.42216 -0.10723,0.10723 -0.38704,6.51665 -0.6218,14.24316 l -0.42685,14.0482 5.14432,-3.44329 c 2.82938,-1.89381 8.28305,-4.98695 12.11927,-6.87366 z"
           id="path3136"
           style="fill:#fb1610" />
        <path
           d="m 650.66768,708.74137 c -41.12038,-10.93018 -79.43798,-49.84563 -89.81374,-91.21505 -0.74389,-2.96601 -1.19699,-5.54829 -1.00688,-5.7384 0.1901,-0.19011 7.16996,1.55488 15.51079,3.87774 l 15.16515,4.2234 3.99824,8.02068 c 4.97517,9.98044 10.46911,17.69715 18.78533,26.38561 8.49454,8.87476 17.41367,15.54148 27.26363,20.37855 l 7.79482,3.82785 4.1647,15.11591 c 2.29059,8.31374 4.296,15.46295 4.45647,15.88712 0.37706,0.99669 0.24152,0.98031 -6.31851,-0.76341 z M 635.66047,688.0008 c 6.39112,-3.76795 11.75581,-7.07019 11.92153,-7.33832 0.1657,-0.26813 -0.87687,-0.95166 -2.31686,-1.51896 -4.78571,-1.88539 -16.79145,-8.88096 -20.02516,-11.66837 l -1.36566,-1.17717 -0.17678,14.27734 c -0.0972,7.85253 -0.0599,14.2771 0.083,14.27681 0.14286,-2.9e-4 5.48884,-3.08339 11.87997,-6.85133 z m -16.89283,-21.19701 c 1.79716,-0.4407 3.37009,-0.90415 3.4954,-1.0299 0.12531,-0.12575 -1.7121,-1.89446 -4.08314,-3.93048 -4.09629,-3.51751 -12.06824,-12.01403 -13.65255,-14.55091 -1.0884,-1.74281 -1.50491,-1.47174 -2.21281,1.44017 -0.35061,1.44218 -1.05384,4.01034 -1.56274,5.70703 -2.25289,7.51118 -3.95202,13.82864 -4.34514,16.1555 l -0.42544,2.51818 9.75942,-2.75417 c 5.36769,-1.51479 11.22984,-3.11473 13.027,-3.55542 z M 599.54816,640.6973 c -2.47036,-3.854 -7.45844,-13.37596 -9.7207,-18.55624 l -0.9026,-2.06683 -1.70159,2.99229 c -0.93587,1.64576 -4.17214,6.87924 -7.19171,11.62996 -3.01956,4.75071 -5.50592,8.95616 -5.52524,9.34544 -0.0253,0.5099 3.84987,0.73347 13.86102,0.79967 l 13.89614,0.0919 -2.71532,-4.23618 z m 116.82743,68.96648 c 0,-0.70326 8.00996,-31.10545 8.21714,-31.18856 24.50605,-9.83061 46.49177,-30.5353 55.98647,-52.72436 0.94369,-2.20539 2.08467,-4.22616 2.53551,-4.49059 1.09588,-0.64276 30.37696,-9.01616 30.64269,-8.76277 0.43245,0.41237 -1.34472,7.63268 -3.41385,13.8698 -5.9025,17.79232 -16.9019,34.63667 -32.66482,50.02252 -15.86274,15.48328 -34.93254,26.89428 -53.00294,31.71595 -3.37743,0.90119 -6.62665,1.77687 -7.22049,1.94595 -0.59384,0.16909 -1.07971,-0.006 -1.07971,-0.38794 z m 32.69971,-28.38877 0,-14.19357 -4.80263,3.3079 c -2.64145,1.81935 -8.04875,4.9231 -12.01624,6.89723 l -7.21361,3.58933 2.00564,1.28083 c 1.10311,0.70445 2.55405,1.61419 3.22434,2.02164 9.42595,5.72974 13.35076,8.16721 15.40914,9.56968 1.35734,0.92484 2.67613,1.69029 2.93063,1.70102 0.2545,0.0107 0.46273,-6.36759 0.46273,-14.17406 z m 25.89429,-17.06717 c -1.4249,-5.03314 -2.94488,-10.26172 -3.37775,-11.61907 -0.43286,-1.35735 -0.96315,-3.2376 -1.1784,-4.17834 l -0.39138,-1.71045 -2.9867,3.56137 c -3.08607,3.67986 -9.44014,9.89847 -14.21502,13.91199 -1.50326,1.26356 -2.58051,2.29738 -2.39389,2.29738 0.18662,0 3.22122,0.86315 6.74355,1.91811 7.92891,2.37477 19.90646,5.44406 20.184,5.17223 0.11347,-0.11114 -0.95952,-4.32008 -2.38441,-9.35322 z m 23.17624,-20.52467 c -0.8872,-1.71566 -10.49647,-17.84444 -12.46063,-20.91466 -0.89866,-1.40473 -1.00522,-1.27105 -4.42602,5.55278 -1.92786,3.84569 -5.08397,9.28268 -7.01358,12.08221 l -3.50838,5.09005 14.1724,0 14.1724,0 -0.93619,-1.81038 z M 559.0046,603.55226 c -6.32766,-1.1128 -11.72964,-5.28117 -14.36853,-11.08727 -1.99392,-4.38706 -1.85161,-12.7843 0.29421,-17.36003 3.33594,-7.11355 9.71366,-11.23074 17.47649,-11.28211 6.13567,-0.0406 6.684,0.40433 7.47963,6.06916 0.5879,4.18585 0.55441,4.65059 -0.30849,4.28088 -3.59582,-1.54061 -5.79307,-2.03158 -7.57773,-1.69318 -5.89306,1.11738 -9.32243,5.2802 -9.32243,11.31627 0,4.81089 2.1062,8.31139 6.30726,10.48268 2.35321,1.21623 7.12348,0.94656 9.65266,-0.54569 l 2.22191,-1.31096 -0.39205,3.55343 c -0.70231,6.36546 -0.87832,6.83986 -2.66902,7.19398 -3.79023,0.74954 -6.12965,0.85139 -8.79391,0.38284 z m 85.37694,0.0534 c -1.7607,-0.22113 -3.40278,-0.60358 -3.64908,-0.84988 -0.2463,-0.24629 0.88054,-3.35154 2.5041,-6.90055 l 2.95191,-6.45273 -6.86079,-10.708 c -3.77343,-5.88936 -6.86078,-10.96978 -6.86078,-11.28978 0,-0.48633 2.41024,-1.58069 8.03228,-3.64704 0.67889,-0.24952 2.20877,1.6879 5.55278,7.03197 2.53865,4.057 4.80276,7.18551 5.03136,6.95224 0.2286,-0.23326 1.56858,-3.33934 2.97773,-6.90237 1.40915,-3.56304 2.76508,-6.68854 3.01317,-6.94556 0.53345,-0.55268 9.32634,1.97915 9.32634,2.68543 0,0.2665 -3.57008,8.7609 -7.93352,18.87644 -8.83381,20.47898 -7.65321,18.95772 -14.0855,18.14986 z m 57.9175,-0.081 c -1.80371,-0.26265 -3.40255,-0.60062 -3.55299,-0.75105 -0.15043,-0.15043 1.10796,-3.22453 2.79644,-6.83132 l 3.06996,-6.55781 -7.04004,-10.93033 c -3.87201,-6.01167 -6.93106,-11.10662 -6.79788,-11.32211 0.30932,-0.50049 8.95999,-3.90711 9.16763,-3.6102 0.0855,0.12231 2.05899,3.27641 4.38544,7.00911 2.32646,3.7327 4.41788,7.0064 4.6476,7.27487 0.22972,0.26847 1.75889,-2.78556 3.39816,-6.78674 1.63926,-4.00117 3.0411,-7.36009 3.11518,-7.46425 0.0741,-0.10416 2.2594,0.42798 4.85626,1.18253 3.5029,1.0178 4.63447,1.59885 4.38414,2.2512 -0.18558,0.48361 -3.83769,9.04415 -8.11581,19.02343 -8.7439,20.3963 -7.23006,18.54418 -14.31409,17.51267 z m -120.42414,-19.31514 0,-19.48389 2.00517,-0.31579 c 1.10284,-0.17369 3.18513,-0.40183 4.62732,-0.507 l 2.62214,-0.1912 0,19.60528 0,19.60529 -2.69927,0 c -1.48459,0 -3.56689,0.17352 -4.62731,0.38561 l -1.92805,0.38561 0,-19.48391 z m 27.14693,4.30281 0,-15.20496 -4.62732,0 c -2.54503,0 -4.62732,-0.16266 -4.62732,-0.36147 0,-0.1988 0.46503,-2.10666 1.0334,-4.23969 l 1.0334,-3.87822 4.05665,-0.38324 c 2.23116,-0.21078 8.15183,-0.38521 13.15704,-0.38763 l 9.10039,-0.004 0,4.62731 0,4.62732 -4.31883,0 -4.31883,0 0,14.46252 c 0,9.28747 -0.22813,14.60351 -0.63756,14.85655 -0.35066,0.21672 -2.71059,0.55082 -5.24429,0.74244 l -4.60673,0.34841 0,-15.20496 z m 123.06337,14.26323 c -0.16706,-0.43537 -0.23017,-9.25669 -0.14024,-19.60295 l 0.16351,-18.81139 11.09322,0 11.09322,0 0.89001,3.85249 c 0.48951,2.11886 0.7639,3.97858 0.60978,4.1327 -0.15412,0.15412 -3.25605,0.32776 -6.89317,0.38586 l -6.61296,0.10563 0,2.98518 0,2.98517 4.78156,0.1802 4.78156,0.18019 0.18244,4.16459 0.18243,4.16458 -4.96399,0 -4.964,0 0,3.70186 0,3.70185 7.40371,0 c 4.07204,0 7.39994,0.20823 7.39533,0.46273 -0.004,0.25451 -0.50677,2.12857 -1.11591,4.16459 l -1.10753,3.70185 -11.23761,0.16822 c -8.69851,0.13021 -11.30624,-0.0106 -11.54136,-0.62335 z m 31.92045,0.10648 c -1.12006,-0.23858 -2.22302,-0.62032 -2.45103,-0.84832 -0.42781,-0.42782 2.83295,-6.83214 7.87217,-15.46137 1.5853,-2.71469 4.89379,-8.74958 7.35219,-13.41086 2.45841,-4.66128 4.68292,-8.60675 4.94338,-8.76773 0.47189,-0.29164 20.41285,35.98616 20.41285,37.1363 0,0.58443 -5.78349,2.00912 -8.156,2.00912 -0.82817,0 -1.70431,-1.15575 -3.04013,-4.01034 l -1.87667,-4.01034 -7.2874,0 -7.2874,0 -1.8752,4.00722 c -1.8485,3.95015 -1.90866,4.00569 -4.22275,3.89866 -1.29113,-0.0597 -3.26395,-0.30377 -4.38401,-0.54234 z m 22.70517,-14.52488 c 0,-0.62828 -4.60424,-8.87149 -4.95763,-8.8759 -0.25511,-0.003 -3.17729,5.34817 -4.79869,8.78777 -0.11996,0.25451 2.02613,0.46273 4.7691,0.46273 2.74297,0 4.98722,-0.16857 4.98722,-0.3746 z m 22.21112,-4.37983 0,-19.44484 8.79191,0.25324 c 7.52478,0.21675 9.16232,0.44693 11.36209,1.59709 3.5129,1.83674 5.30465,4.53913 5.63275,8.49556 0.35866,4.32508 -0.72984,7.2967 -3.53565,9.65232 l -2.32736,1.95394 5.11684,7.13908 5.11685,7.13907 -4.30199,1.4464 c -2.3661,0.79551 -4.65411,1.31127 -5.08448,1.14613 -0.43036,-0.16515 -3.12818,-4.13274 -5.99516,-8.81686 l -5.21267,-8.5166 -0.17234,8.16799 c -0.12162,5.76407 -0.39399,8.23636 -0.92546,8.40031 -0.41422,0.12778 -2.48838,0.36725 -4.60923,0.53216 l -3.8561,0.29985 0,-19.44484 z m 14.37422,-1.52583 c 1.27201,-0.66683 2.28413,-2.97186 2.28413,-5.20199 0,-2.29451 -2.59102,-4.55911 -5.21626,-4.55911 l -2.18745,0 0,5.6018 0,5.6018 2.00517,-0.4305 c 1.10284,-0.23678 2.50433,-0.69218 3.11441,-1.012 z m -25.07602,-33.70385 -14.71215,-4.12965 -1.38705,-3.39336 c -8.79439,-21.51514 -28.01895,-41.631 -49.86654,-52.17848 l -6.02383,-2.90816 -0.99714,-3.45971 c -0.54843,-1.90284 -2.588,-8.94309 -4.53239,-15.64498 -3.02975,-10.44294 -3.38649,-12.18527 -2.49491,-12.18527 2.17478,0 14.16695,3.72698 20.38059,6.33397 22.75667,9.54777 43.91093,27.39521 58.67129,49.49984 4.6819,7.01145 10.96229,19.35025 13.44836,26.42138 1.63824,4.65964 4.38533,14.35924 4.38533,15.48401 0,0.75751 -2.611,0.1633 -16.87156,-3.83959 z m -4.81156,-16.86513 c 3.43542,-5.64717 6.41024,-10.69503 6.61072,-11.21747 0.32126,-0.83717 -1.31831,-0.95718 -13.81517,-1.01125 l -14.17968,-0.0613 3.20308,4.8686 c 1.76169,2.67772 4.83632,8.23253 6.83252,12.34401 3.12261,6.43151 3.73229,7.32668 4.36588,6.41024 0.40503,-0.58586 3.54722,-5.68561 6.98265,-11.33278 z M 771.7626,517.62533 c 0.072,-0.85587 0.11573,-1.01568 4.09605,-14.96166 2.94799,-10.32894 3.22801,-11.73194 2.21683,-11.10699 -0.33806,0.20893 -1.10157,0.48253 -1.69668,0.60799 -3.25738,0.68672 -21.50518,5.42647 -22.82818,5.92948 -1.52282,0.57897 -1.42099,0.72198 4.54141,6.37713 3.35455,3.18169 7.62619,7.61175 9.49254,9.84458 3.49411,4.18021 4.06666,4.63374 4.17803,3.30947 z M 750.76834,484.617 c 0.0828,-7.3805 -0.0775,-13.77438 -0.35623,-14.20864 -0.39347,-0.61296 -0.86287,-0.50947 -2.09884,0.46274 -0.87561,0.68875 -1.72392,1.25228 -1.88514,1.25228 -0.38595,0 -18.49228,11.04719 -19.1341,11.67426 -0.27258,0.26632 2.08735,1.76792 5.24429,3.33689 4.05168,2.01364 18.07942,10.4605 18.07942,10.88659 0,0.008 0.0678,-6.02363 0.1506,-13.40412 z m -190.10926,63.24014 c 3.48072,-15.15113 12.14423,-32.23464 23.70106,-46.73591 8.67927,-10.89056 23.87517,-24.38307 35.45876,-31.484 9.77654,-5.99317 22.43088,-11.50855 31.6249,-13.78367 7.68232,-1.90104 7.09532,-1.93256 6.65346,0.35723 -0.21553,1.11685 -2.10345,8.09656 -4.19539,15.51048 l -3.80352,13.47984 -7.11904,3.57596 c -13.44963,6.75585 -23.66316,14.49979 -32.8601,24.91465 -6.01249,6.8087 -12.72145,16.77922 -16.10058,23.92786 l -2.58061,5.45934 -4.93581,1.49331 c -6.48877,1.96315 -25.46844,7.14101 -26.17571,7.14101 -0.30431,0 -0.15465,-1.73524 0.33258,-3.8561 z m 31.07628,-9.7863 c 2.13238,-4.62625 5.39142,-10.22928 9.38019,-16.12668 l 2.39947,-3.54761 -14.25871,0 -14.25871,0 1.99541,3.54761 c 6.8144,12.11528 11.82607,20.51445 12.24069,20.51445 0.26357,0 1.38931,-1.9745 2.50166,-4.38777 z m 21.84129,-30.67477 c 2.41523,-2.48722 5.75045,-5.5251 7.41161,-6.75084 l 3.02029,-2.22861 -1.78634,-0.75461 c -1.57435,-0.66505 -6.43529,-2.12255 -13.20038,-3.95799 -1.18768,-0.32223 -3.94052,-1.14511 -6.11741,-1.82862 -4.22808,-1.32756 -5.61148,-1.52044 -5.59456,-0.78002 0.006,0.2545 0.53179,2.4062 1.16884,4.78156 0.63705,2.37536 2.02875,7.6505 3.09267,11.72254 1.06393,4.07204 2.10042,7.94234 2.30332,8.60066 0.3243,1.05223 0.66766,0.86573 2.83978,-1.54244 1.35897,-1.50666 4.44695,-4.7744 6.86218,-7.26163 z m 28.57769,-20.23108 c 3.83622,-1.8867 6.82301,-3.6762 6.63731,-3.97667 -0.1857,-0.30047 -2.06067,-1.53904 -4.16661,-2.75238 -2.10593,-1.21335 -7.12786,-4.28378 -11.15983,-6.8232 -4.03197,-2.53941 -7.41858,-4.52938 -7.52581,-4.42216 -0.10723,0.10723 -0.38704,6.51665 -0.6218,14.24316 l -0.42685,14.0482 5.14432,-3.44329 c 2.82938,-1.89381 8.28305,-4.98695 12.11927,-6.87366 z"
           id="path3134"
           style="fill:#5c5c5c" />
        <path
           d="m 650.97617,708.73808 c -37.13486,-10.24983 -71.19375,-41.16747 -85.68672,-77.78387 -2.66106,-6.72315 -6.04788,-18.56081 -5.47442,-19.13427 0.28717,-0.28716 21.93631,5.5022 29.15509,7.79659 1.54628,0.49147 2.25165,1.46491 4.28557,5.91426 5.36098,11.72752 12.45129,21.51824 22.94607,31.6853 4.02815,3.90237 9.83897,8.8101 12.91292,10.90606 5.15047,3.51183 14.84886,8.7649 17.90233,9.69668 1.07352,0.32759 1.75803,2.1433 4.15677,11.02613 1.57939,5.84868 3.54299,13.06331 4.36354,16.0325 0.82055,2.9692 1.30994,5.3782 1.08753,5.35333 -0.22241,-0.0249 -2.76432,-0.69659 -5.64868,-1.49271 z M 636.6005,687.56973 c 6.17585,-3.63004 11.24045,-6.7389 11.25468,-6.90856 0.0142,-0.16967 -2.69558,-1.63648 -6.02179,-3.25957 -3.3262,-1.6231 -8.75165,-4.74654 -12.05654,-6.94098 -3.30489,-2.19444 -6.13392,-3.9899 -6.28674,-3.9899 -0.15281,0 -0.27784,6.4154 -0.27784,14.25646 0,13.32126 0.0708,14.22975 1.0797,13.84954 0.59384,-0.2238 6.13268,-3.37694 12.30853,-7.00699 z m -29.73809,-17.41359 c 5.09005,-1.38725 10.7264,-2.94661 12.52522,-3.46525 l 3.2706,-0.943 -4.19606,-3.78625 c -5.11562,-4.616 -10.02651,-9.7272 -12.69221,-13.20989 -1.09584,-1.43169 -2.1582,-2.61165 -2.36081,-2.62215 -0.6176,-0.032 -7.34381,23.88938 -7.34381,26.11784 0,0.53421 0.34705,0.84971 0.77122,0.70112 0.42417,-0.14859 4.9358,-1.40518 10.02585,-2.79242 z m -5.0215,-26.05078 c -0.25686,-0.42418 -1.65785,-2.61896 -3.11333,-4.87729 -2.71557,-4.21353 -7.50755,-13.64548 -8.7643,-17.2506 -0.67057,-1.92361 -0.74722,-1.96457 -1.53899,-0.82247 -1.17267,1.69156 -13.19872,21.07805 -13.97402,22.52671 -0.62392,1.1658 -0.2929,1.19486 13.60909,1.19486 11.2366,0 14.14984,-0.16302 13.78155,-0.77121 z m 114.53468,65.6339 c 0,-0.22804 1.54007,-6.23922 3.42238,-13.35816 1.88232,-7.11895 3.69264,-13.96598 4.02293,-15.21562 0.56163,-2.12484 1.01991,-2.4724 7.07192,-5.36339 20.77549,-9.92424 38.46605,-27.20053 48.36266,-47.23014 l 3.63582,-7.35849 15.32898,-4.42748 c 8.43094,-2.43512 15.41568,-4.35851 15.52166,-4.27422 0.39669,0.31557 -2.33805,10.66442 -4.23203,16.01496 -8.6551,24.45082 -28.64014,48.94595 -52.78772,64.70053 -7.88682,5.14558 -17.91614,10.15075 -25.84767,12.89937 -6.74252,2.33657 -14.49893,4.2692 -14.49893,3.61264 z m 32.69971,-28.47992 0,-14.20924 -4.78156,3.22956 c -2.62986,1.77626 -7.83559,4.8043 -11.56829,6.72898 -3.73271,1.92468 -6.92555,3.65934 -7.09522,3.8548 -0.29841,0.34376 22.04812,14.51621 22.98234,14.57569 0.2545,0.0162 0.46273,-6.3647 0.46273,-14.17979 z m 28.37928,-7.84764 c -0.002,-0.4943 -4.16012,-15.53506 -6.25491,-22.6237 l -1.26145,-4.26868 -1.61688,2.10926 c -2.70813,3.53282 -9.37943,10.28193 -13.81832,13.97948 -2.75163,2.29207 -3.93454,3.64293 -3.42677,3.9133 1.23154,0.65577 23.76042,6.99209 25.9172,7.28931 0.2545,0.035 0.46201,-0.14447 0.46113,-0.39897 z m 20.0793,-30.84878 c -3.39434,-6.13311 -12.37953,-21.08221 -12.68596,-21.10627 -0.17626,-0.0138 -1.6393,2.71497 -3.25121,6.06402 -1.61192,3.34903 -4.69364,8.76299 -6.84827,12.03102 l -3.91751,5.94186 14.16244,0 14.16246,0 -1.62195,-2.93063 z M 644.38154,603.60566 c -1.7607,-0.22113 -3.40278,-0.60358 -3.64908,-0.84988 -0.2463,-0.24629 0.88054,-3.35154 2.5041,-6.90055 l 2.95191,-6.45273 -6.86079,-10.708 c -3.77343,-5.88939 -6.86078,-10.96981 -6.86078,-11.28981 0,-0.48633 2.41024,-1.58069 8.03228,-3.64704 0.67889,-0.24952 2.20877,1.6879 5.55278,7.03197 2.53865,4.057 4.80276,7.18551 5.03136,6.95224 0.2286,-0.23326 1.56858,-3.33934 2.97773,-6.90237 1.40915,-3.56304 2.76508,-6.68854 3.01317,-6.94556 0.53345,-0.55268 9.32634,1.97915 9.32634,2.68543 0,0.2665 -3.57008,8.7609 -7.93352,18.87644 -8.83381,20.47898 -7.65321,18.95772 -14.0855,18.14986 z m 57.9175,-0.0809 c -1.80371,-0.26265 -3.40255,-0.60061 -3.55299,-0.75105 -0.15043,-0.15043 1.10796,-3.22453 2.79644,-6.83132 l 3.06996,-6.55781 -7.04004,-10.93033 c -3.87201,-6.01167 -6.93106,-11.10662 -6.79788,-11.32211 0.30932,-0.50049 8.95999,-3.90711 9.16763,-3.6102 0.0855,0.12231 2.05899,3.27641 4.38544,7.00911 2.32646,3.7327 4.41788,7.0064 4.6476,7.27487 0.22972,0.26847 1.75889,-2.78556 3.39816,-6.78674 1.63926,-4.00117 3.0411,-7.36008 3.11518,-7.46425 0.0741,-0.10416 2.2594,0.42798 4.85626,1.18253 3.5029,1.0178 4.63447,1.59885 4.38414,2.2512 -0.18558,0.48361 -3.83769,9.04416 -8.11581,19.02343 -8.7439,20.3963 -7.23006,18.54418 -14.31409,17.51267 z m -146.52056,-0.87538 c -7.59423,-2.70893 -12.79406,-10.37839 -12.76573,-18.82873 0.009,-2.63765 1.29607,-7.66849 2.61106,-10.20472 1.67073,-3.22239 6.06507,-7.02369 9.68521,-8.37817 3.39195,-1.26908 9.6521,-1.74082 12.23266,-0.92178 1.57456,0.49974 1.76745,1.0091 2.31367,6.10967 l 0.44121,4.11998 -2.69425,-1.22252 c -3.16267,-1.43507 -4.17196,-1.50339 -7.4961,-0.50745 -4.97752,1.4913 -8.53313,7.43347 -7.55805,12.6311 0.98208,5.23492 3.94044,8.45301 8.7629,9.53223 2.99858,0.67105 3.46243,0.6107 6.3717,-0.82908 l 3.13768,-1.55283 -0.36673,2.84894 c -0.97561,7.57913 -0.87619,7.31358 -2.88902,7.71615 -3.17724,0.63545 -9.31596,0.36836 -11.78621,-0.51279 z m 26.09642,-18.5547 0,-19.26345 2.31366,-0.38242 c 1.27251,-0.21033 3.3548,-0.38548 4.62731,-0.38921 l 2.31366,-0.007 0,19.11449 0,19.11449 -1.38819,0.2861 c -0.76351,0.15735 -2.8458,0.39952 -4.62732,0.53816 l -3.23912,0.25206 0,-19.26343 z m 27.14693,4.41772 0,-15.20496 -4.69928,0 c -4.5791,0 -4.68917,-0.0355 -4.30408,-1.38819 0.21736,-0.76351 0.70546,-2.6705 1.08467,-4.23776 l 0.68948,-2.84957 4.07734,-0.38517 c 2.24253,-0.21184 8.17251,-0.38714 13.17772,-0.38956 l 9.10039,-0.004 0,4.62731 0,4.62732 -4.31883,0 -4.31883,0 0,14.46252 c 0,9.28747 -0.22813,14.60351 -0.63756,14.85655 -0.35066,0.21672 -2.71059,0.55082 -5.24429,0.74244 l -4.60673,0.34841 0,-15.20496 z m 123.06337,14.26323 c -0.16706,-0.43537 -0.23017,-9.25669 -0.14024,-19.60295 l 0.16351,-18.81139 11.09322,0 11.09322,0 0.89001,3.85249 c 0.48951,2.11886 0.7639,3.97858 0.60978,4.1327 -0.15412,0.15412 -3.25605,0.32776 -6.89317,0.38586 l -6.61296,0.10563 0,2.98518 0,2.98517 4.78156,0.1802 4.78156,0.18019 0.18244,4.16459 0.18243,4.16458 -4.96399,0 -4.964,0 0,3.70186 0,3.70185 7.40371,0 c 4.07204,0 7.39994,0.20823 7.39533,0.46273 -0.004,0.25451 -0.50677,2.12857 -1.11591,4.16459 l -1.10753,3.70185 -11.23761,0.16822 c -8.69851,0.13021 -11.30624,-0.0106 -11.54136,-0.62335 z m 31.81313,0.0639 c -1.06103,-0.21516 -2.11284,-0.57489 -2.33733,-0.79938 -0.40203,-0.40203 4.14461,-9.41606 7.17945,-14.2338 0.85504,-1.35735 4.01725,-7.04895 7.02714,-12.648 3.0099,-5.59906 5.6659,-10.37805 5.90223,-10.61999 0.40106,-0.41057 20.46539,35.89746 20.46539,37.03379 0,0.45405 -6.59979,1.96708 -8.58035,1.96708 -0.39924,0 -1.53559,-1.80465 -2.52521,-4.01034 l -1.79932,-4.01034 -7.45532,0 -7.45532,0 -1.80661,4.0266 -1.80662,4.02662 -2.43949,-0.17052 c -1.34172,-0.0938 -3.3076,-0.34655 -4.36864,-0.56172 z m 22.81249,-14.48023 c 0,-0.7117 -4.47397,-8.88206 -4.85799,-8.87165 -0.37582,0.0102 -5.01362,8.25653 -5.01362,8.91459 0,0.18127 2.22111,0.32957 4.9358,0.32957 2.7147,0 4.93581,-0.16762 4.93581,-0.37251 z m 22.21112,-4.45191 0,-19.35596 8.50216,0.21341 c 7.63396,0.19162 8.81524,0.37262 11.56829,1.77253 6.90977,3.5136 7.81194,13.64181 1.65159,18.54166 l -1.87755,1.49337 5.14087,7.09522 5.14088,7.09522 -4.42029,1.38471 c -2.43116,0.76159 -4.61251,1.38628 -4.84744,1.3882 -0.23494,0.002 -2.87251,-3.95287 -5.86127,-8.78842 l -5.43411,-8.79191 -0.17199,8.1503 -0.17197,8.1503 -1.98744,0.31246 c -1.09309,0.17186 -3.1674,0.39851 -4.60958,0.50367 l -2.62215,0.1912 0,-19.35596 z m 13.23514,-0.98461 c 5.48468,-2.29165 4.0932,-10.23233 -1.79305,-10.23233 l -2.18745,0 0,5.55278 c 0,6.1563 0.11698,6.29383 3.9805,4.67955 z m -23.53247,-34.15056 -14.92465,-4.10709 -1.67061,-4.03388 c -8.67223,-20.9401 -28.82565,-41.82588 -50.09868,-51.91924 -2.95624,-1.40264 -5.44473,-2.60892 -5.52999,-2.68063 -0.45555,-0.38317 -8.91282,-30.65029 -8.64044,-30.92267 0.17786,-0.17786 2.55722,0.24697 5.28746,0.94406 43.45132,11.09411 81.98093,51.09606 91.69383,95.19777 0.2562,1.16326 0.12751,1.68601 -0.4093,1.66273 -0.43063,-0.0187 -7.49906,-1.88215 -15.70762,-4.14105 z M 793.05382,532.587 c 3.59411,-5.9384 6.72099,-11.28295 6.94862,-11.87679 0.38678,-1.00907 -0.5182,-1.0797 -13.8328,-1.0797 l -14.24667,0 2.80065,4.16458 c 1.54035,2.29052 4.65702,7.83179 6.92594,12.31392 2.26891,4.48213 4.29274,7.95262 4.4974,7.71219 0.20466,-0.24042 3.31275,-5.29581 6.90686,-11.2342 z m -17.9113,-26.999 c 1.95119,-7.0437 3.54761,-13.12972 3.54761,-13.52448 0,-0.65248 -20.46803,4.25453 -25.11337,6.02069 l -1.66617,0.63347 5.52333,5.13129 c 3.03784,2.8222 7.32118,7.24995 9.51855,9.83943 2.19737,2.58948 4.14084,4.70775 4.31883,4.70725 0.17799,-5e-4 1.92004,-5.76394 3.87122,-12.80765 z m -24.21629,-21.39719 c 0,-7.61504 -0.21439,-13.97804 -0.47642,-14.13998 -0.26203,-0.16195 -5.79888,2.94167 -12.30411,6.89691 l -11.8277,7.19136 6.59709,3.29189 c 3.6284,1.81054 8.95702,4.90396 11.84138,6.87427 2.88436,1.97031 5.45253,3.61584 5.70703,3.65674 0.2545,0.0409 0.46273,-6.15614 0.46273,-13.77119 z m -190.2175,63.66633 c 4.57683,-20.06066 16.55534,-40.41748 34.06098,-57.88476 14.12166,-14.09073 28.24854,-23.61336 44.79241,-30.19364 4.94147,-1.96546 18.23275,-5.72135 18.67645,-5.27765 0.27474,0.27474 -3.21411,13.58984 -6.2107,23.70301 l -2.07598,7.00618 -8.6686,4.44764 c -4.76773,2.4462 -10.96175,6.09557 -13.76448,8.10972 -13.84359,9.94849 -27.52741,26.29109 -33.93344,40.52671 -1.83616,4.08035 -2.36238,4.73938 -4.27987,5.36007 -3.02249,0.97837 -28.55961,8.05882 -29.06583,8.05882 -0.22589,0 -0.0148,-1.73524 0.46906,-3.8561 z m 32.11705,-11.47829 c 1.78127,-3.63139 4.89451,-9.16297 6.91829,-12.29241 l 3.67962,-5.68989 -14.1887,0 -14.1887,0 2.33459,4.20322 c 6.03438,10.86434 11.61831,20.44578 11.89773,20.41528 0.16966,-0.0185 1.76589,-3.00481 3.54717,-6.6362 z m 13.89215,-21.52991 c 4.1528,-4.85937 10.7043,-11.4027 13.8363,-13.81902 1.79384,-1.38393 3.13084,-2.72769 2.97113,-2.98612 -0.42446,-0.68678 -25.55073,-7.67518 -25.9957,-7.23021 -0.49408,0.49408 6.3035,26.34901 6.92748,26.34901 0.15595,0 1.17331,-1.04114 2.26079,-2.31366 z m 35.43163,-27.58549 7.52326,-3.73881 -11.75623,-7.27751 c -6.46592,-4.00264 -11.89173,-7.14201 -12.05736,-6.97638 -0.16562,0.16562 -0.45506,6.60401 -0.64319,14.30753 l -0.34207,14.00639 4.87617,-3.29121 c 2.6819,-1.81016 8.26164,-4.97367 12.39942,-7.03001 z"
           id="path3132"
           style="fill:#ab2623" />
        <path
           d="m 650.97617,708.73808 c -37.13486,-10.24983 -71.19375,-41.16747 -85.68672,-77.78387 -2.66106,-6.72315 -6.04788,-18.56081 -5.47442,-19.13427 0.28717,-0.28716 21.93631,5.5022 29.15509,7.79659 1.54628,0.49147 2.25165,1.46491 4.28557,5.91426 5.36098,11.72752 12.45129,21.51824 22.94607,31.6853 4.02815,3.90237 9.83897,8.8101 12.91292,10.90606 5.15047,3.51183 14.84886,8.7649 17.90233,9.69668 1.07352,0.32759 1.75803,2.1433 4.15677,11.02613 1.57939,5.84868 3.54299,13.06331 4.36354,16.0325 0.82055,2.9692 1.30994,5.3782 1.08753,5.35333 -0.22241,-0.0249 -2.76432,-0.69659 -5.64868,-1.49271 z M 636.6005,687.56973 c 6.17585,-3.63004 11.24045,-6.7389 11.25468,-6.90856 0.0142,-0.16967 -2.69558,-1.63648 -6.02179,-3.25957 -3.3262,-1.6231 -8.75165,-4.74654 -12.05654,-6.94098 -3.30489,-2.19444 -6.13392,-3.9899 -6.28674,-3.9899 -0.15281,0 -0.27784,6.4154 -0.27784,14.25646 0,13.32126 0.0708,14.22975 1.0797,13.84954 0.59384,-0.2238 6.13268,-3.37694 12.30853,-7.00699 z m -29.73809,-17.41359 c 5.09005,-1.38725 10.7264,-2.94661 12.52522,-3.46525 l 3.2706,-0.943 -4.19606,-3.78625 c -5.11562,-4.616 -10.02651,-9.7272 -12.69221,-13.20989 -1.09584,-1.43169 -2.1582,-2.61165 -2.36081,-2.62215 -0.6176,-0.032 -7.34381,23.88938 -7.34381,26.11784 0,0.53421 0.34705,0.84971 0.77122,0.70112 0.42417,-0.14859 4.9358,-1.40518 10.02585,-2.79242 z m -5.0215,-26.05078 c -0.25686,-0.42418 -1.65785,-2.61896 -3.11333,-4.87729 -2.71557,-4.21353 -7.50755,-13.64548 -8.7643,-17.2506 -0.67057,-1.92361 -0.74722,-1.96457 -1.53899,-0.82247 -1.17267,1.69156 -13.19872,21.07805 -13.97402,22.52671 -0.62392,1.1658 -0.2929,1.19486 13.60909,1.19486 11.2366,0 14.14984,-0.16302 13.78155,-0.77121 z m 114.53468,65.6339 c 0,-0.22804 1.54007,-6.23922 3.42238,-13.35816 1.88232,-7.11895 3.69264,-13.96598 4.02293,-15.21562 0.56163,-2.12484 1.01991,-2.4724 7.07192,-5.36339 20.77549,-9.92424 38.46605,-27.20053 48.36266,-47.23014 l 3.63582,-7.35849 15.32898,-4.42748 c 8.43094,-2.43512 15.41568,-4.35851 15.52166,-4.27422 0.39669,0.31557 -2.33805,10.66442 -4.23203,16.01496 -8.6551,24.45082 -28.64014,48.94595 -52.78772,64.70053 -7.88682,5.14558 -17.91614,10.15075 -25.84767,12.89937 -6.74252,2.33657 -14.49893,4.2692 -14.49893,3.61264 z m 32.69971,-28.47992 0,-14.20924 -4.78156,3.22956 c -2.62986,1.77626 -7.83559,4.8043 -11.56829,6.72898 -3.73271,1.92468 -6.92555,3.65934 -7.09522,3.8548 -0.29841,0.34376 22.04812,14.51621 22.98234,14.57569 0.2545,0.0162 0.46273,-6.3647 0.46273,-14.17979 z m 28.37928,-7.84764 c -0.002,-0.4943 -4.16012,-15.53506 -6.25491,-22.6237 l -1.26145,-4.26868 -1.61688,2.10926 c -2.70813,3.53282 -9.37943,10.28193 -13.81832,13.97948 -2.75163,2.29207 -3.93454,3.64293 -3.42677,3.9133 1.23154,0.65577 23.76042,6.99209 25.9172,7.28931 0.2545,0.035 0.46201,-0.14447 0.46113,-0.39897 z m 20.0793,-30.84878 c -3.39434,-6.13311 -12.37953,-21.08221 -12.68596,-21.10627 -0.17626,-0.0138 -1.6393,2.71497 -3.25121,6.06402 -1.61192,3.34903 -4.69364,8.76299 -6.84827,12.03102 l -3.91751,5.94186 14.16244,0 14.16246,0 -1.62195,-2.93063 z M 645.1149,603.40525 c -2.37535,-0.32627 -4.41509,-0.68783 -4.53276,-0.80347 -0.11766,-0.11563 1.06231,-2.90441 2.62215,-6.19727 1.55984,-3.29286 2.83608,-6.35541 2.83608,-6.80568 0,-0.45026 -3.0679,-5.58182 -6.81754,-11.40346 -3.74965,-5.82164 -6.66595,-10.7364 -6.48067,-10.92168 0.18528,-0.18528 2.16066,-1.10631 4.38973,-2.04674 l 4.05285,-1.70986 3.23222,5.04939 c 1.77771,2.77717 3.86461,6.09055 4.63754,7.36306 0.77294,1.27251 1.6117,2.31366 1.86392,2.31366 0.25221,0 1.77097,-3.30291 3.37501,-7.33979 l 2.91643,-7.33979 4.44111,1.37833 c 3.06445,0.95108 4.37843,1.64845 4.23893,2.24974 -0.45216,1.94895 -15.69728,36.9586 -16.06201,36.88563 -0.21679,-0.0434 -2.33763,-0.34581 -4.71299,-0.67207 z m 58.32707,0.0292 c -2.1931,-0.31316 -4.11283,-0.69474 -4.26605,-0.84796 -0.15322,-0.15322 1.04948,-3.18166 2.67266,-6.72986 l 2.95124,-6.45127 -6.94195,-10.86696 c -3.9308,-6.1533 -6.70574,-11.09309 -6.39738,-11.38828 0.29951,-0.28672 2.27171,-1.21701 4.38267,-2.06732 l 3.83811,-1.54601 4.11711,6.58195 c 2.26442,3.62008 4.45844,7.07937 4.87562,7.68732 0.66089,0.96313 1.09863,0.2486 3.40169,-5.55278 1.45376,-3.66198 2.86766,-7.10805 3.14199,-7.65792 0.4541,-0.91019 0.88766,-0.88526 4.8387,0.27828 2.38694,0.70293 4.3399,1.57789 4.3399,1.94435 0,0.64573 -14.04057,33.51847 -15.40647,36.07067 -0.37308,0.6971 -0.87677,1.23319 -1.11934,1.1913 -0.24256,-0.0419 -2.23539,-0.33236 -4.4285,-0.64551 z m -147.66349,-0.78517 c -7.59423,-2.70893 -12.79406,-10.37839 -12.76573,-18.82873 0.009,-2.63765 1.29607,-7.66849 2.61106,-10.20472 1.67073,-3.22239 6.06507,-7.02369 9.68521,-8.37817 3.39195,-1.26908 9.6521,-1.74082 12.23266,-0.92178 1.57456,0.49974 1.76745,1.0091 2.31367,6.10967 l 0.44121,4.11998 -2.69425,-1.22252 c -3.16267,-1.43507 -4.17196,-1.50339 -7.4961,-0.50745 -4.97752,1.4913 -8.53313,7.43347 -7.55805,12.6311 0.98208,5.23492 3.94044,8.45301 8.7629,9.53223 2.99858,0.67105 3.46243,0.6107 6.3717,-0.82908 l 3.13768,-1.55283 -0.36673,2.84894 c -0.97561,7.57913 -0.87619,7.31358 -2.88902,7.71615 -3.17724,0.63545 -9.31596,0.36836 -11.78621,-0.51279 z m 26.09642,-18.5547 0,-19.26345 2.31366,-0.38242 c 1.27251,-0.21033 3.3548,-0.38548 4.62731,-0.38921 l 2.31366,-0.007 0,19.11449 0,19.11449 -1.38819,0.2861 c -0.76351,0.15735 -2.8458,0.39952 -4.62732,0.53816 l -3.23912,0.25206 0,-19.26343 z m 27.14693,4.41253 0,-15.19977 -4.69928,0 c -4.5791,0 -4.68917,-0.0355 -4.30408,-1.38819 0.21736,-0.76351 0.71388,-2.70698 1.10339,-4.31883 l 0.70819,-2.93064 13.15901,0 13.15901,0 0,4.31883 0,4.31883 -4.62732,0 -4.62731,0 0,14.80742 0,14.80742 -2.07331,0 c -1.14031,0 -3.36142,0.17656 -4.9358,0.39234 l -2.8625,0.39236 0,-15.19977 z m 155.79988,14.30818 c -1.68925,-0.32223 -3.1699,-0.6844 -3.29033,-0.80484 -0.12044,-0.12044 1.79174,-3.92093 4.24927,-8.44553 2.45754,-4.5246 6.94128,-12.8076 9.96386,-18.40665 3.02259,-5.59906 5.68898,-10.37805 5.92531,-10.61999 0.40106,-0.41057 20.46539,35.89746 20.46539,37.03379 0,0.45405 -6.59979,1.96708 -8.58035,1.96708 -0.39924,0 -1.53559,-1.80465 -2.52521,-4.01034 l -1.79932,-4.01034 -7.45532,0 -7.45532,0 -1.79931,4.01034 c -1.98369,4.42126 -1.91139,4.3904 -7.69867,3.28648 z m 21.88911,-14.45607 c 0,-0.7117 -4.47397,-8.88206 -4.85799,-8.87165 -0.37582,0.0102 -5.01362,8.25653 -5.01362,8.91459 0,0.18127 2.22111,0.32957 4.9358,0.32957 2.7147,0 4.93581,-0.16762 4.93581,-0.37251 z m 22.21112,-4.45191 0,-19.35596 8.50216,0.21341 c 7.63396,0.19162 8.81524,0.37262 11.56829,1.77253 6.90977,3.5136 7.81194,13.64181 1.65159,18.54166 l -1.87755,1.49337 5.14087,7.09522 5.14088,7.09522 -4.42029,1.38471 c -2.43116,0.76159 -4.61251,1.38628 -4.84744,1.3882 -0.23494,0.002 -2.87251,-3.95287 -5.86127,-8.78842 l -5.43411,-8.79191 -0.17199,8.1503 -0.17197,8.1503 -1.98744,0.31246 c -1.09309,0.17186 -3.1674,0.39851 -4.60958,0.50367 l -2.62215,0.1912 0,-19.35596 z m 13.23514,-0.98461 c 5.48468,-2.29165 4.0932,-10.23233 -1.79305,-10.23233 l -2.18745,0 0,5.55278 c 0,6.1563 0.11698,6.29383 3.9805,4.67955 z m -89.74012,0.88715 0,-19.14017 11.02671,0 11.0267,0 0.41685,2.62215 c 0.22926,1.44218 0.57013,3.23748 0.7575,3.98956 0.33489,1.34429 0.22225,1.37037 -6.66199,1.54243 l -7.00265,0.17503 0,3.08488 0,3.08488 5.09005,0.1792 5.09005,0.17919 0,3.96044 0,3.96044 -5.09005,0.1792 -5.09005,0.17919 0,3.39337 0,3.39336 7.59341,0.17352 c 7.0347,0.16076 7.56707,0.25653 7.23532,1.30178 -0.19696,0.62055 -0.71076,2.34712 -1.14178,3.83683 l -0.78368,2.70856 -11.23319,0.16816 -11.2332,0.16816 0,-19.14016 z m 66.20765,-35.03771 -14.92465,-4.10709 -1.67061,-4.03388 c -8.67223,-20.9401 -28.82565,-41.82588 -50.09868,-51.91924 -2.95624,-1.40264 -5.44473,-2.60892 -5.52999,-2.68063 -0.45555,-0.38317 -8.91282,-30.65029 -8.64044,-30.92267 0.17786,-0.17786 2.55722,0.24697 5.28746,0.94406 43.45132,11.09411 81.98093,51.09606 91.69383,95.19777 0.2562,1.16326 0.12751,1.68601 -0.4093,1.66273 -0.43063,-0.0187 -7.49906,-1.88215 -15.70762,-4.14105 z M 793.05382,532.587 c 3.59411,-5.9384 6.72099,-11.28295 6.94862,-11.87679 0.38678,-1.00907 -0.5182,-1.0797 -13.8328,-1.0797 l -14.24667,0 2.80065,4.16458 c 1.54035,2.29052 4.65702,7.83179 6.92594,12.31392 2.26891,4.48213 4.29274,7.95262 4.4974,7.71219 0.20466,-0.24042 3.31275,-5.29581 6.90686,-11.2342 z m -17.9113,-26.999 c 1.95119,-7.0437 3.54761,-13.12972 3.54761,-13.52448 0,-0.65248 -20.46803,4.25453 -25.11337,6.02069 l -1.66617,0.63347 5.52333,5.13129 c 3.03784,2.8222 7.32118,7.24995 9.51855,9.83943 2.19737,2.58948 4.14084,4.70775 4.31883,4.70725 0.17799,-5e-4 1.92004,-5.76394 3.87122,-12.80765 z m -24.21629,-21.39719 c 0,-7.61504 -0.21439,-13.97804 -0.47642,-14.13998 -0.26203,-0.16195 -5.79888,2.94167 -12.30411,6.89691 l -11.8277,7.19136 6.59709,3.29189 c 3.6284,1.81054 8.95702,4.90396 11.84138,6.87427 2.88436,1.97031 5.45253,3.61584 5.70703,3.65674 0.2545,0.0409 0.46273,-6.15614 0.46273,-13.77119 z m -190.2175,63.66633 c 4.57683,-20.06066 16.55534,-40.41748 34.06098,-57.88476 14.12166,-14.09073 28.24854,-23.61336 44.79241,-30.19364 4.94147,-1.96546 18.23275,-5.72135 18.67645,-5.27765 0.27474,0.27474 -3.21411,13.58984 -6.2107,23.70301 l -2.07598,7.00618 -8.6686,4.44764 c -4.76773,2.4462 -10.96175,6.09557 -13.76448,8.10972 -13.84359,9.94849 -27.52741,26.29109 -33.93344,40.52671 -1.83616,4.08035 -2.36238,4.73938 -4.27987,5.36007 -3.02249,0.97837 -28.55961,8.05882 -29.06583,8.05882 -0.22589,0 -0.0148,-1.73524 0.46906,-3.8561 z m 32.11705,-11.47829 c 1.78127,-3.63139 4.89451,-9.16297 6.91829,-12.29241 l 3.67962,-5.68989 -14.1887,0 -14.1887,0 2.33459,4.20322 c 6.03438,10.86434 11.61831,20.44578 11.89773,20.41528 0.16966,-0.0185 1.76589,-3.00481 3.54717,-6.6362 z m 13.89215,-21.52991 c 4.1528,-4.85937 10.7043,-11.4027 13.8363,-13.81902 1.79384,-1.38393 3.13084,-2.72769 2.97113,-2.98612 -0.42446,-0.68678 -25.55073,-7.67518 -25.9957,-7.23021 -0.49408,0.49408 6.3035,26.34901 6.92748,26.34901 0.15595,0 1.17331,-1.04114 2.26079,-2.31366 z m 35.43163,-27.58549 7.52326,-3.73881 -11.75623,-7.27751 c -6.46592,-4.00264 -11.89173,-7.14201 -12.05736,-6.97638 -0.16562,0.16562 -0.45506,6.60401 -0.64319,14.30753 l -0.34207,14.00639 4.87617,-3.29121 c 2.6819,-1.81016 8.26164,-4.97367 12.39942,-7.03001 z"
           id="path3130"
           style="fill:#58190c" />
        <path
           d="m 651.12703,708.69353 c -20.84475,-5.42823 -39.89423,-17.08625 -57.5408,-35.21419 -16.7201,-17.17621 -27.62257,-36.17648 -33.00223,-57.51463 -0.54416,-2.1584 -0.88221,-4.03152 -0.75123,-4.16251 0.22917,-0.22916 30.62335,8.11927 30.98829,8.51162 0.0983,0.10572 0.93103,1.99687 1.85044,4.20256 4.00486,9.6078 13.04673,22.60938 21.83599,31.39864 8.83086,8.83086 21.81791,17.8726 30.14316,20.98604 l 3.57192,1.3358 4.3644,16.01958 c 2.40043,8.81075 4.33877,15.9981 4.30744,15.97186 -0.0313,-0.0262 -2.62665,-0.71688 -5.76738,-1.53477 z m -14.70924,-20.93714 c 6.29747,-3.73271 11.45525,-6.95722 11.46173,-7.16559 0.006,-0.20837 -2.67694,-1.67874 -5.96314,-3.26748 -3.28621,-1.58875 -8.70976,-4.68052 -12.05234,-6.87061 -3.34259,-2.19009 -6.20666,-3.98199 -6.3646,-3.98199 -0.15795,0 -0.28717,6.40606 -0.28717,14.23568 0,11.99242 0.13832,14.20425 0.87778,14.0362 0.48278,-0.10971 6.03026,-3.25351 12.32774,-6.98621 z m -27.08748,-18.151 c 6.4474,-1.75946 12.07222,-3.31565 12.4996,-3.45821 0.43829,-0.14619 -2.68568,-3.69622 -7.16547,-8.14275 -4.3684,-4.33596 -8.65977,-8.84683 -9.53637,-10.02416 -0.8766,-1.17733 -1.76881,-1.96562 -1.98269,-1.75174 -0.61166,0.61166 -6.48538,21.46671 -6.90193,24.50581 -0.30091,2.19535 -0.2039,2.6657 0.49504,2.40023 0.47811,-0.18158 6.14443,-1.76972 12.59182,-3.52918 z m -7.09522,-24.44103 c 0,-0.18105 -1.71922,-3.16567 -3.8205,-6.63249 -2.10128,-3.46681 -4.99214,-8.89339 -6.42414,-12.05905 -1.43201,-3.16567 -2.72693,-5.87904 -2.8776,-6.02971 -0.24869,-0.24869 -15.25864,23.49356 -15.25864,24.13562 0,0.15083 6.17747,0.35455 13.72771,0.45271 7.55024,0.0982 13.93594,0.24228 14.19044,0.32029 0.2545,0.078 0.46273,-0.006 0.46273,-0.18737 z m 114.1405,64.65329 c 0,-1.00515 8.167,-30.74971 8.52658,-31.0542 0.23076,-0.1954 2.22422,-1.13088 4.42991,-2.07884 20.30985,-8.72878 40.93272,-28.75341 50.42967,-48.96676 1.54474,-3.28783 2.88616,-6.0724 2.98094,-6.18796 0.44728,-0.54534 31.11506,-9.15386 31.11506,-8.73408 0,1.53536 -3.43624,13.29519 -5.28877,18.09979 -12.23011,31.71899 -41.4721,60.89781 -73.99261,73.83275 -5.20513,2.07032 -18.20078,5.70416 -18.20078,5.0893 z m 32.81155,-28.38526 c 0.10816,-7.71991 0.14444,-14.13468 0.0806,-14.25506 -0.0638,-0.12036 -2.42375,1.31565 -5.24429,3.19114 -5.29202,3.51886 -16.87649,9.661 -18.23901,9.6704 -0.42417,0.003 -0.77122,0.25619 -0.77122,0.56281 0,0.53794 22.70366,14.86609 23.55691,14.86664 0.23117,1.4e-4 0.50881,-6.31603 0.61698,-14.03593 z m 28.26904,-8.3176 c 0,-1.09268 -6.90185,-25.37333 -7.36649,-25.91523 -0.21382,-0.24938 -2.13182,1.63529 -4.26223,4.18816 -2.13041,2.55286 -6.48997,6.91116 -9.68792,9.68511 -3.19795,2.77395 -5.60978,5.22124 -5.35963,5.43841 0.25014,0.21716 5.03585,1.67771 10.63491,3.24564 16.66278,4.66616 16.04136,4.53608 16.04136,3.35791 z m 21.59415,-27.73936 c 0,-0.88865 -13.72243,-23.91855 -14.2608,-23.93345 -0.20838,-0.006 -1.67874,2.67823 -3.26748,5.96443 -1.58875,3.28621 -4.68052,8.70976 -6.87061,12.05235 -2.19009,3.34259 -3.98199,6.20666 -3.98199,6.36459 0,0.15795 6.3857,0.28718 14.19044,0.28718 10.56911,0 14.19044,-0.1876 14.19044,-0.7351 z M 555.03646,602.31654 c -4.57182,-1.80649 -7.39415,-4.4581 -9.67372,-9.08858 -1.73655,-3.52742 -2.01819,-4.74769 -2.02415,-8.76994 -0.01,-6.73763 1.4925,-10.60799 5.78114,-14.89211 2.34643,-2.34395 4.42071,-3.77569 6.48936,-4.47916 3.15918,-1.07434 11.15528,-1.40325 12.55274,-0.51635 0.43222,0.27431 1.0553,2.14412 1.38462,4.15513 0.99298,6.06373 1.05307,5.94423 -2.25348,4.48159 -4.87845,-2.15798 -10.41251,-0.37047 -13.29562,4.29449 -1.83663,2.97174 -1.95516,8.62764 -0.25266,12.05645 2.45034,4.93497 8.50428,7.05799 13.64363,4.78461 1.6251,-0.71887 3.01547,-1.23424 3.08972,-1.1453 0.38819,0.46511 -1.01875,8.81383 -1.57993,9.37525 -0.3618,0.36195 -2.93458,0.72666 -5.71729,0.81048 -3.85801,0.1162 -5.79205,-0.13708 -8.14436,-1.06656 z m 26.83844,-18.26615 0,-19.21293 2.8625,-0.39236 c 1.57438,-0.21578 3.65667,-0.39234 4.62732,-0.39234 l 1.76481,0 0,19.09829 0,19.09828 -2.00517,0.3158 c -1.10284,0.17368 -3.18514,0.40183 -4.62732,0.50699 l -2.62214,0.1912 0,-19.21293 z m 62.62303,19.03538 c -1.35735,-0.1353 -2.71033,-0.48376 -3.00663,-0.77435 -0.30492,-0.29904 0.7162,-3.21295 2.35277,-6.714 l 2.89149,-6.18566 -2.29778,-3.57911 c -1.26377,-1.96851 -4.44856,-6.94639 -7.0773,-11.06196 l -4.77954,-7.48285 4.32953,-1.69863 c 3.56434,-1.39842 4.42533,-1.548 4.87163,-0.84632 0.29815,0.46877 2.38909,3.83693 4.64652,7.48479 2.25743,3.64787 4.31406,6.63249 4.57028,6.63249 0.25622,0 1.76984,-3.26226 3.36359,-7.24946 1.59376,-3.98721 2.9931,-7.34741 3.10966,-7.46713 0.11656,-0.11971 2.05296,0.395 4.3031,1.14379 3.25412,1.08291 4.01508,1.56926 3.71927,2.37708 -0.20456,0.55859 -3.74624,8.85893 -7.8704,18.44519 -8.33713,19.37888 -6.95493,17.59128 -13.12619,16.97613 z m 57.68722,-0.10196 c -1.82182,-0.24284 -2.71933,-0.64732 -2.61042,-1.17645 0.0913,-0.44351 1.38574,-3.41664 2.87659,-6.60695 l 2.71062,-5.80058 -7.05368,-10.97685 -7.05366,-10.97686 3.1713,-1.40856 c 5.29729,-2.35285 5.10328,-2.45641 10.11277,5.3987 2.48159,3.89126 4.7475,7.15159 5.03533,7.24517 0.28784,0.0936 1.74181,-2.95135 3.23105,-6.76653 1.48924,-3.81517 2.89752,-7.15111 3.12951,-7.41319 0.232,-0.26209 2.26405,0.0925 4.51569,0.78795 3.49175,1.0785 4.02966,1.43081 3.65722,2.39542 -0.24016,0.62202 -3.76833,8.93877 -7.84037,18.48167 -8.34322,19.55249 -6.85803,17.75327 -13.88195,16.81706 z m 63.44174,-0.28912 c -1.58573,-0.38386 -3.06397,-0.88052 -3.28498,-1.10369 -0.33907,-0.34238 7.46701,-15.45385 17.10652,-33.11584 l 2.46895,-4.52373 10.13433,18.65791 c 5.57388,10.26185 9.91466,18.85395 9.64619,19.09356 -0.53889,0.48092 -8.21569,2.03957 -8.4957,1.72491 -0.0965,-0.10841 -1.0452,-1.93234 -2.10831,-4.05319 l -1.93293,-3.8561 -7.42724,0 -7.42725,0 -1.87666,4.01034 c -2.02616,4.3298 -2.01534,4.32477 -6.80292,3.16583 z m 21.08393,-14.44582 c 0,-0.81842 -4.37506,-8.77198 -4.82283,-8.76759 -0.41576,0.004 -5.04878,8.14906 -5.04878,8.8759 0,0.20603 2.22111,0.3746 4.9358,0.3746 2.7147,0 4.93581,-0.21731 4.93581,-0.48291 z m 22.21112,-4.32127 0,-19.3979 8.51871,0.23395 c 7.62252,0.20933 8.83514,0.39679 11.52655,1.78184 5.30913,2.73217 7.27119,8.8554 4.67192,14.58024 -0.64279,1.41573 -1.95548,3.06695 -2.91709,3.66937 -0.9616,0.60242 -1.84983,1.16512 -1.97383,1.25043 -0.124,0.0853 2.05974,3.37642 4.85277,7.31357 2.79302,3.93715 4.97677,7.24335 4.85277,7.3471 -0.33588,0.28105 -8.10545,2.833 -8.62522,2.833 -0.24638,0 -2.89945,-4.01876 -5.89571,-8.93058 l -5.44774,-8.93058 -0.17143,8.27838 -0.17143,8.27838 -2.60496,0.32081 c -1.43273,0.17645 -3.50729,0.42185 -4.61014,0.54535 l -2.00517,0.22453 0,-19.39789 z m 15.27015,-2.30461 c 3.07951,-3.54421 0.77033,-8.93257 -3.82806,-8.93257 l -2.18745,0 0,5.6335 0,5.63351 2.31366,-0.36838 c 1.3914,-0.22154 2.86701,-1.00524 3.70185,-1.96606 z m -214.55329,6.49182 c 0,-13.67247 -0.0827,-14.81114 -1.07971,-14.85602 -0.59383,-0.0267 -2.82513,-0.007 -4.95843,0.0433 l -3.87873,0.0919 0.42593,-1.74002 c 0.23427,-0.95698 0.74235,-2.85055 1.12907,-4.2079 l 0.70313,-2.4679 13.11247,-0.1666 13.11248,-0.16659 -0.18271,4.17694 -0.18272,4.17693 -4.31883,0.0719 -4.31883,0.0719 -0.16523,14.50635 -0.16523,14.50635 -1.91706,0.38341 c -1.05439,0.21088 -3.13173,0.38342 -4.61633,0.38342 l -2.69927,0 0,-14.80742 z m 122.77816,-4.31883 0,-19.12625 10.74595,0 10.74595,0 0.6681,3.11525 c 1.11475,5.19788 1.47951,4.90544 -6.11863,4.90544 l -6.78674,0 0,3.39336 0,3.39337 4.93581,0 4.93581,0 0,4.01034 0,4.01034 -4.93581,0 -4.93581,0 0,3.70186 0,3.70185 7.40371,0 c 4.07204,0 7.40371,0.19002 7.40371,0.42226 0,0.23224 -0.45304,2.03689 -1.00677,4.01034 l -1.00676,3.58809 -11.02426,0 -11.02426,0 0,-19.12625 z m 66.221,-35.05602 -14.9113,-4.12194 -1.9343,-4.68104 c -5.52265,-13.36495 -16.76329,-27.81552 -30.00956,-38.57922 -6.25804,-5.08518 -16.6275,-11.57173 -21.95589,-13.73436 l -3.40156,-1.38059 -4.47008,-15.42955 c -2.45853,-8.48625 -4.35723,-15.54238 -4.21933,-15.68029 0.48732,-0.48732 10.45198,2.19636 16.38327,4.41235 33.30429,12.44277 63.22763,42.37137 75.66761,75.68088 1.7193,4.60363 5.29193,16.43763 5.30332,17.56675 0.004,0.41557 -2.67163,-0.24362 -16.45218,-4.05299 z m -4.93027,-17.07843 7.12355,-11.72254 -14.30968,-0.30848 c -7.87032,-0.16967 -14.38578,-0.27866 -14.4788,-0.24219 -0.093,0.0365 1.55048,2.80231 3.65224,6.14633 2.10175,3.34402 5.18451,8.96987 6.85057,12.50191 1.66605,3.53203 3.2563,6.18014 3.53387,5.88469 0.27758,-0.29545 3.71029,-5.81232 7.62825,-12.25972 z m -18.26935,-26.6842 c 2.06835,-7.38057 3.67722,-13.50383 3.57526,-13.60725 -0.28035,-0.28436 -26.47952,6.67788 -26.97942,7.16959 -0.23898,0.23505 1.39223,1.94918 3.62489,3.80918 2.23267,1.86 6.57237,6.23164 9.64378,9.71476 3.07141,3.48312 5.76224,6.33294 5.97961,6.33294 0.21738,0 2.08752,-6.03865 4.15588,-13.41922 z m -24.51211,-21.13142 c 0,-7.80474 -0.21756,-14.19044 -0.48347,-14.19044 -0.7558,0 -23.66124,14.01181 -23.62819,14.45393 0.0162,0.21658 3.0186,1.8992 6.67202,3.73917 3.65341,1.83996 8.86368,4.86823 11.57837,6.72948 2.71469,1.86125 5.14404,3.40079 5.39854,3.4212 0.2545,0.0204 0.46273,-6.34859 0.46273,-14.15334 z m -190.39744,65.31535 c 0.79156,-4.977 5.42746,-17.77119 9.00141,-24.84213 17.02954,-33.69241 51.00118,-61.38139 84.68131,-69.02047 l 4.16079,-0.94372 -0.34491,1.63475 c -0.62645,2.96912 -7.82278,28.34236 -8.21213,28.95478 -0.20984,0.33007 -3.72276,2.27235 -7.8065,4.31619 -11.67622,5.84376 -18.07313,10.45115 -27.12947,19.54009 -9.14164,9.17454 -14.65919,16.60567 -20.05864,27.01529 l -3.75505,7.23938 -5.05808,1.53447 c -2.78195,0.84396 -9.20591,2.65115 -14.27547,4.01598 -5.06956,1.36483 -9.76055,2.6539 -10.42442,2.8646 -1.11252,0.35311 -1.1735,0.17229 -0.77884,-2.30921 z m 31.35361,-10.86724 c 1.97821,-4.2121 8.12092,-14.79045 10.69148,-18.41176 l 0.91618,-1.29068 -13.61816,-0.42128 c -7.48999,-0.23171 -13.89271,-0.25161 -14.22827,-0.0442 -0.35572,0.21984 0.32127,2.09134 1.62358,4.48836 4.04498,7.44509 11.69648,20.44834 12.03622,20.4548 0.18333,0.004 1.34386,-2.14537 2.57897,-4.77522 z m 20.83056,-29.99015 c 1.87225,-1.98794 5.13933,-4.99646 7.26018,-6.68561 2.12086,-1.68915 3.8561,-3.27625 3.8561,-3.5269 0,-0.49643 -25.98455,-8.0116 -26.59511,-7.69175 -0.2055,0.10766 0.98533,5.27105 2.6463,11.4742 1.66097,6.20315 3.31023,12.36721 3.66504,13.69792 l 0.6451,2.41948 2.55915,-3.03645 c 1.40753,-1.67005 4.09099,-4.66295 5.96324,-6.65089 z m 17.58035,-14.2855 c 2.36756,-1.59051 7.72524,-4.57239 11.90594,-6.62638 4.18071,-2.054 7.37994,-3.92765 7.1094,-4.16368 -1.2685,-1.10666 -22.90005,-14.18981 -23.46129,-14.18981 -0.41786,0 -0.67441,4.91564 -0.74354,14.24692 -0.0581,7.8358 0.11728,14.10694 0.38963,13.93586 0.27237,-0.17109 2.4323,-1.6124 4.79986,-3.20291 z"
           id="path3128"
           style="fill:#010101" />
      </g>
    </g>
  </g>
</svg>
