<?xml version="1.0" encoding="UTF-8" standalone="no"?>
<!-- Created with Inkscape (http://www.inkscape.org/) -->

<svg
   xmlns:dc="http://purl.org/dc/elements/1.1/"
   xmlns:cc="http://creativecommons.org/ns#"
   xmlns:rdf="http://www.w3.org/1999/02/22-rdf-syntax-ns#"
   xmlns:svg="http://www.w3.org/2000/svg"
   xmlns="http://www.w3.org/2000/svg"
   version="1.1"
   width="670.75562"
   height="289.96204"
   id="svg2">
  <defs
     id="defs4" />
  <metadata
     id="metadata7">
    <rdf:RDF>
      <cc:Work
         rdf:about="">
        <dc:format>image/svg+xml</dc:format>
        <dc:type
           rdf:resource="http://purl.org/dc/dcmitype/StillImage" />
        <dc:title></dc:title>
      </cc:Work>
    </rdf:RDF>
  </metadata>
  <g
     transform="translate(-40.336433,-397.37991)"
     id="layer1"
     style="display:inline">
    <g
       transform="translate(-310,-59.024584)"
       id="g3236">
      <path
         d="m 471.60691,744.52749 c -37.82794,-10.37393 -73.37336,-40.86854 -91.95163,-78.88582 -5.93497,-12.14491 -11.66594,-29.41442 -10.23588,-30.84448 0.24325,-0.24324 8.16746,1.7238 17.60936,4.3712 l 17.16711,4.81347 4.52098,9.08314 c 11.70734,23.5213 31.66299,43.4431 54.11089,54.01912 3.65072,1.71998 6.69783,3.16814 6.77134,3.21813 0.0735,0.05 2.20977,7.62914 4.74723,16.84256 2.53745,9.21343 4.77801,17.30191 4.97902,17.97441 0.46417,1.55299 -0.0383,1.51447 -7.71842,-0.59173 z m 77.98707,-10.92459 c 1.87769,-7.02 4.06658,-15.20036 4.86422,-18.17859 0.79762,-2.97822 1.76247,-5.41495 2.14411,-5.41495 1.84409,0 13.58496,-6.20834 20.4531,-10.81519 18.19422,-12.20389 31.12504,-26.66107 40.60245,-45.39518 l 4.25946,-8.41973 17.37741,-5.03032 c 9.55757,-2.76669 17.50169,-4.90605 17.6536,-4.75414 0.49898,0.49898 -2.10319,11.06192 -4.21772,17.12085 -14.27346,40.89911 -53.72928,78.65715 -94.85668,90.77502 -3.66309,1.0793 -7.79276,2.16791 -9.17704,2.41912 l -2.51689,0.45674 3.41398,-12.76363 z m 257.42013,10.93239 c -37.91043,-10.39813 -73.37645,-40.81775 -91.9815,-78.89362 -5.91646,-12.10824 -11.6657,-29.41418 -10.24403,-30.83585 0.2385,-0.23849 8.19976,1.72855 17.6917,4.3712 l 17.25806,4.80484 2.69841,5.86769 c 7.97886,17.35004 22.34348,35.01466 37.72132,46.38711 6.16638,4.56025 16.34165,10.49614 20.80108,12.13461 1.75196,0.64369 3.4023,1.3542 3.66742,1.57889 0.26513,0.22471 2.55859,7.95455 5.09658,17.17744 2.53799,9.22289 4.77898,17.31912 4.97999,17.99162 0.46396,1.55225 -0.0404,1.51395 -7.68903,-0.58393 z m -4.76221,-30.77633 c 1.55533,-0.99559 1.39624,-1.12895 -5.58963,-4.68534 -3.95478,-2.01332 -9.54865,-5.24335 -12.4308,-7.17784 -2.88215,-1.93449 -5.6333,-3.74862 -6.11366,-4.03141 -0.68807,-0.40506 -0.87338,2.82509 -0.87338,15.22412 l 0,15.73826 11.70329,-7.02151 c 6.43681,-3.86184 12.4237,-7.48267 13.30418,-8.04628 z m -40.64905,-14.27697 13.35461,-3.61815 -8.53419,-8.4734 c -4.69381,-4.66037 -9.38005,-9.53474 -10.41385,-10.83192 -1.0338,-1.29719 -1.96865,-2.24044 -2.07744,-2.09611 -0.37109,0.4923 -6.00512,20.51158 -7.01362,24.92133 -0.9283,4.05904 -0.91585,4.3704 0.16219,4.05645 0.64222,-0.18703 7.17726,-1.96822 14.5223,-3.9582 z m -9.51175,-27.5302 c 0,-0.18016 -1.43381,-2.54401 -3.18624,-5.25299 -1.75244,-2.70899 -4.99759,-8.66211 -7.21145,-13.22917 l -4.0252,-8.30374 -8.09335,13.03271 -8.09335,13.0327 13.73271,0.37173 c 7.55299,0.20446 14.44015,0.44027 15.30479,0.52403 0.86465,0.0838 1.57209,0.005 1.57209,-0.17527 z m 133.80569,58.15601 c 2.3772,-8.94056 4.53386,-17.12022 4.79258,-18.17701 0.25872,-1.05679 0.8111,-1.92143 1.22751,-1.92143 1.89993,0 13.54213,-6.13719 20.51634,-10.81519 18.23389,-12.23049 31.27248,-26.8211 40.55877,-45.38657 l 4.21579,-8.42834 17.42707,-5.02434 c 9.58488,-2.76339 17.57555,-4.87585 17.75704,-4.69436 0.1815,0.1815 -0.36106,3.16352 -1.20568,6.62673 -9.76327,40.03252 -44.33731,79.20706 -85.3578,96.7157 -5.90771,2.52157 -17.00188,6.04451 -21.74532,6.90522 l -2.50848,0.45517 4.32218,-16.25558 z m 32.81597,-7.69645 c 0.25332,-3.55466 0.36127,-10.47471 0.23988,-15.3779 l -0.22069,-8.91488 -4.89093,3.30018 c -2.69001,1.8151 -8.58687,5.21863 -13.10413,7.5634 l -8.2132,4.26323 12.40542,7.7493 c 6.82299,4.26212 12.6119,7.77864 12.86425,7.8145 0.25236,0.0358 0.66609,-2.84318 0.9194,-6.39783 z m 31.78198,-18.865 c -0.0155,-0.48036 -1.85434,-7.31892 -4.08626,-15.19681 -2.78743,-9.8387 -4.20329,-13.86911 -4.52199,-12.87243 -0.548,1.71378 -10.93008,12.57778 -16.76494,17.54314 l -4.09094,3.48133 6.88576,1.99333 c 10.5042,3.04082 20.7599,5.81136 21.73322,5.87116 0.48036,0.0295 0.86068,-0.33936 0.84515,-0.81972 z m 24.48286,-31.12651 c 0,-0.5147 -9.29714,-16.34237 -13.64703,-23.23305 l -1.87502,-2.97021 -2.60045,5.52033 c -2.26125,4.80025 -8.21051,14.82917 -11.66789,19.66907 l -1.12302,1.57208 15.45671,0 c 8.50118,0 15.4567,-0.2512 15.4567,-0.55822 z M 499.76297,693.93346 C 474.95044,690.00837 453.36839,676.71138 437.96261,655.85743 426.7873,640.73004 421.408,623.30015 421.30574,601.88628 l -0.0509,-10.65391 -3.31884,-10e-4 c -1.82537,-7e-4 -3.31885,-0.17252 -3.31885,-0.38175 0,-0.20924 0.50985,-2.41016 1.133,-4.89093 l 1.133,-4.51042 2.91921,0 2.91922,0 1.86388,-6.63136 c 3.95773,-14.08095 11.98775,-27.32044 23.52351,-38.78438 13.57207,-13.48757 28.6204,-21.59872 47.55781,-25.634 8.53097,-1.81781 29.52864,-1.79499 37.38066,0.0406 18.18781,4.25191 33.36275,12.64261 46.3944,25.65291 17.00478,16.97691 25.4072,36.32306 26.527,61.07703 l 0.44249,9.78185 4.36373,-8.0351 c 2.40005,-4.4193 5.54421,-10.31326 6.98704,-13.09769 1.44282,-2.78443 2.82087,-5.06396 3.06232,-5.0656 0.31881,-0.002 22.10602,39.51018 23.50452,42.62678 0.10319,0.22995 -2.30108,0.89241 -5.34281,1.47213 l -5.53041,1.05404 -2.30325,-4.76103 -2.30323,-4.76103 -8.11448,0 -8.11448,0 -2.29461,4.74321 c -2.19051,4.528 -2.39478,4.7316 -4.50189,4.48735 -2.1752,-0.25215 -2.22659,-0.18803 -3.53779,4.4138 -1.92923,6.77088 -8.71998,20.06807 -13.54918,26.5311 -10.78409,14.4326 -27.53536,27.07525 -43.46206,32.80201 -10.69733,3.84645 -15.57322,4.67805 -28.9962,4.94548 -6.91717,0.1378 -14.34919,-0.0298 -16.51561,-0.37255 z m 126.53184,-85.76017 c -0.0163,-0.28821 -1.22733,-2.65613 -2.69121,-5.26204 -2.00233,-3.56445 -2.83979,-4.5163 -3.38105,-3.84287 -0.58663,0.72986 -4.03029,7.05519 -4.95693,9.10491 -0.13031,0.28822 2.30462,0.52403 5.41095,0.52403 3.10631,0 5.63453,-0.23581 5.61824,-0.52403 z m 206.49657,85.38613 c -19.4162,-3.61835 -34.87204,-11.76911 -48.93798,-25.80785 -11.32137,-11.29945 -17.45861,-20.65782 -21.91688,-33.41992 -3.79927,-10.87568 -5.14579,-19.05 -5.22923,-31.7453 l -0.0746,-11.35124 -3.31884,-0.003 c -1.82536,-0.001 -3.31884,-0.32185 -3.31884,-0.71194 0,-0.39009 0.52317,-2.59101 1.16261,-4.89093 l 1.1626,-4.18157 2.88961,0 2.88961,0 1.91322,-6.81236 c 6.00438,-21.37971 22.50759,-42.07678 42.74797,-53.61126 7.72865,-4.40436 14.70436,-7.1862 24.08675,-9.60555 10.56949,-2.72545 27.32716,-3.45275 37.73505,-1.63772 25.25146,4.40358 47.48133,18.97198 62.35704,40.86581 9.07378,13.35467 14.35848,30.89268 14.6,48.45218 0.0803,5.83858 0.29431,7.46019 0.87668,6.64299 0.42375,-0.59461 3.6002,-6.4546 7.05878,-13.0222 3.45859,-6.5676 6.49394,-11.94773 6.74523,-11.95584 0.33249,-0.0108 22.12238,39.51944 23.48664,42.60835 0.10319,0.23363 -2.30108,0.89909 -5.34281,1.47881 l -5.53041,1.05404 -2.30325,-4.76103 -2.30323,-4.76103 -8.11448,0 -8.11448,0 -2.29461,4.74321 c -2.21319,4.57488 -2.3756,4.73376 -4.57628,4.47684 -2.08823,-0.24379 -2.3198,-0.0757 -2.73158,1.98323 -0.75982,3.79916 -5.36683,14.71599 -8.54076,20.23839 -4.22922,7.35847 -7.82519,12.02738 -14.43614,18.74352 -13.00905,13.21602 -27.57787,21.55073 -45.59607,26.08514 -7.59697,1.91183 -28.84452,2.43169 -37.0313,0.90603 z m 128.88124,-85.38613 c -0.0163,-0.28821 -1.24076,-2.68038 -2.72103,-5.31593 l -2.69142,-4.79189 -1.92406,3.39449 c -1.05823,1.86697 -2.3491,4.09087 -2.8686,4.94199 -0.5195,0.85113 -0.94454,1.71577 -0.94454,1.92144 0,0.20566 2.51533,0.37393 5.58963,0.37393 3.0743,0 5.57631,-0.23581 5.56002,-0.52403 z m -593.77655,17.23869 c -7.01628,-1.37888 -12.68043,-5.86197 -15.7134,-12.43692 -1.1706,-2.53766 -1.49058,-4.58023 -1.49336,-9.53271 -0.003,-5.71561 0.2102,-6.73717 2.2898,-10.96144 3.91939,-7.96141 10.58841,-12.02032 19.79421,-12.04718 3.28693,-0.01 5.72603,0.32258 6.38511,0.86957 0.59013,0.48976 1.28043,2.67019 1.54551,4.88173 0.26347,2.19815 0.64982,4.71524 0.85857,5.59352 l 0.37953,1.59689 -2.52418,-1.4893 c -3.01553,-1.77921 -8.42764,-1.95471 -11.48729,-0.3725 -2.63816,1.36424 -5.60191,4.88789 -6.12409,7.281 -0.22413,1.02717 -0.53279,2.27156 -0.68591,2.76529 -0.15312,0.49374 0.0584,2.46803 0.46999,4.3873 0.82033,3.82511 3.19326,7.12727 6.26199,8.71417 2.78767,1.44156 8.22223,1.2865 11.38264,-0.32477 l 2.64349,-1.34773 -0.45581,4.66657 c -0.67246,6.8846 -0.69443,6.92166 -4.60089,7.75945 -3.93046,0.84293 -4.62298,0.8427 -8.92591,-0.003 z m 300.61715,-9.57561 -6.20556,-10.14313 -0.19516,9.21757 c -0.13771,6.50385 -0.44626,9.29429 -1.04805,9.47814 -0.46909,0.1433 -2.818,0.4395 -5.2198,0.6582 l -4.36689,0.39764 0,-22.06398 0,-22.06396 9.95652,0.24019 c 9.09036,0.21929 10.22467,0.39215 13.03881,1.98695 4.23909,2.40233 5.81875,4.77992 6.19569,9.32522 0.40694,4.90723 -0.7413,8.25593 -3.731,10.88091 -1.32154,1.16033 -2.4028,2.30618 -2.4028,2.54632 0,0.24014 1.83004,3.0009 4.06677,6.135 2.23673,3.13411 4.7309,6.66045 5.54261,7.8363 l 1.47582,2.13793 -5.4507,1.78692 -5.4507,1.78692 -6.20556,-10.14314 z m -0.28435,-14.80702 c 4.14835,-4.14835 1.53252,-10.4565 -4.34912,-10.48803 l -1.92144,-0.0103 0,5.93898 0,5.93899 2.44546,0 c 1.50336,0 2.97697,-0.5315 3.8251,-1.37964 z m 35.04501,24.38263 c -7.01628,-1.37888 -12.68043,-5.86197 -15.7134,-12.43692 -1.1706,-2.53766 -1.49059,-4.58023 -1.49336,-9.53271 -0.003,-5.71561 0.2102,-6.73717 2.28981,-10.96144 3.76239,-7.64251 10.55067,-11.9402 19.00438,-12.03176 7.59812,-0.0823 8.13366,0.24747 8.69799,5.35601 0.26591,2.40708 0.65831,5.09511 0.87201,5.97339 l 0.38854,1.59689 -2.52418,-1.4893 c -3.01552,-1.77921 -8.42764,-1.95471 -11.48729,-0.3725 -2.53503,1.31091 -5.57079,4.83253 -6.14787,7.13179 -0.80331,3.20066 0.0937,9.96375 1.58926,11.98271 3.71782,5.01886 10.28273,6.55359 15.86324,3.70849 l 2.64349,-1.34773 -0.45582,4.66657 c -0.67246,6.8846 -0.69443,6.92166 -4.60089,7.75945 -3.93046,0.84293 -4.62298,0.8427 -8.92591,-0.003 z m 300.61172,-9.58438 -6.20013,-10.13399 -0.19439,9.53694 -0.19439,9.53695 -3.03711,0 c -1.67042,0 -4.01967,0.19651 -5.22057,0.43669 l -2.18344,0.43669 0,-22.16201 0,-22.16202 9.95652,0.24019 c 9.09041,0.21929 10.22471,0.39215 13.03881,1.98695 4.2391,2.40233 5.8188,4.77992 6.1957,9.32522 0.4092,4.93451 -0.7435,8.25788 -3.793,10.93539 -1.3557,1.19029 -2.2996,2.54227 -2.0976,3.00441 0.202,0.46214 2.7219,4.13883 5.5997,8.17044 2.8778,4.0316 5.1697,7.39277 5.0932,7.46926 -0.077,0.0765 -2.5295,0.89819 -5.4512,1.82598 l -5.3121,1.68692 -6.2,-10.13401 z m -0.2789,-14.79825 c 4.1483,-4.14835 1.5325,-10.4565 -4.34914,-10.48803 l -1.92144,-0.0103 0,5.93898 0,5.93899 2.44546,0 c 1.50332,0 2.97692,-0.5315 3.82512,-1.37964 z m -609.25193,2.52834 0,-22.0832 1.57208,-0.32398 c 0.86465,-0.1782 3.22277,-0.45245 5.24028,-0.60946 l 3.66819,-0.28545 0,22.25595 0,22.25595 -3.05682,0 c -1.68126,0 -4.03939,0.19651 -5.24028,0.43669 l -2.18345,0.43669 0,-22.08319 z m 335.37781,0.004 0,-22.08727 1.57208,-0.32399 c 0.86465,-0.1782 3.22277,-0.45245 5.24028,-0.60945 l 3.66819,-0.28546 0,22.25595 0,22.25596 -2.62014,0.008 c -1.44107,0.004 -3.7992,0.20258 -5.24027,0.44077 l -2.62014,0.43308 0,-22.08728 z m -86.98862,-39.1646 c -22.47465,-6.26149 -19.60469,-4.83276 -22.32934,-11.11604 -10.04341,-23.16103 -30.66998,-44.75344 -54.0214,-56.55096 l -8.57647,-4.33298 -1.46874,-4.908 c -7.01244,-23.43314 -8.77074,-30.41065 -7.66289,-30.40892 0.62218,9.7e-4 4.11342,0.80069 7.75831,1.77717 44.78189,11.99718 85.85313,52.71325 99.5094,98.6489 2.56314,8.62163 2.81816,10.67347 1.32089,10.62772 -0.68991,-0.0211 -7.22831,-1.70268 -14.52976,-3.73689 z m 335.02846,-0.0808 C 955.85054,558.2296 958.52411,559.572 955.79414,553.281 c -7.19377,-16.57752 -19.92899,-32.65533 -35.31543,-44.58462 -7.75319,-6.01115 -10.68043,-7.8583 -19.84801,-12.52458 l -7.6207,-3.87891 -5.03553,-17.60726 c -4.17132,-14.58547 -4.84201,-17.60695 -3.90792,-17.60549 0.62019,9.7e-4 4.1098,0.80069 7.75469,1.77717 40.60334,10.87774 78.80398,45.70167 95.38819,86.95643 2.72524,6.7793 6.63317,19.58524 6.63317,21.73631 0,1.07087 -2.05846,0.65665 -16.07018,-3.23376 z m -1.31843,-32.21715 c 0.47807,-0.57992 -3.46756,-0.87287 -14.91126,-1.10712 -8.55873,-0.17519 -15.62117,-0.28453 -15.69428,-0.24297 -0.0731,0.0416 1.49895,2.59885 3.49351,5.68286 1.99456,3.08402 5.35485,9.20772 7.4673,13.60822 l 3.84084,8.00093 7.5769,-12.57667 c 4.1673,-6.91716 7.86945,-12.93153 8.22699,-13.36525 z m -27.96778,-18.6349 c 2.17238,-7.76286 3.89581,-14.18325 3.82985,-14.26754 -0.15655,-0.20006 -26.12875,6.50508 -28.13665,7.26393 -1.42927,0.54016 -1.21604,0.85138 2.9761,4.34378 2.48362,2.06907 7.23685,6.86318 10.56273,10.6536 3.32589,3.79041 6.22058,6.71816 6.43264,6.5061 0.21206,-0.21207 2.16296,-6.737 4.33533,-14.49987 z m -27.69424,-34.5897 c -0.23798,-2.42287 -0.68681,-4.30937 -0.99741,-4.19222 -0.31058,0.11715 -6.22501,3.65014 -13.14317,7.85109 l -12.57846,7.6381 7.08923,3.55615 c 3.89908,1.95589 9.76177,5.29926 13.02821,7.42971 l 5.93899,3.87356 0.54765,-10.87559 c 0.30121,-5.98156 0.35295,-12.85793 0.11496,-15.2808 z m -551.59054,88.08293 c 0,-1.18013 3.18925,-12.37267 4.96561,-17.42664 13.07335,-37.19516 49.5992,-73.9466 86.97326,-87.51042 7.56785,-2.74653 19.13435,-5.89432 19.67435,-5.35432 0.45717,0.45717 -2.91167,13.70693 -6.67231,26.24241 l -2.61355,8.71188 -8.37928,4.21414 c -15.22969,7.65937 -26.92173,16.55101 -37.049,28.1753 -6.70835,7.69998 -14.25675,18.97669 -18.00634,26.90006 l -2.90762,6.14419 -5.59057,1.69232 c -9.62265,2.91287 -30.39455,8.52439 -30.39455,8.21108 z m 335.37781,0.10162 c 0,-1.36524 2.64168,-10.8021 4.60707,-16.45785 13.49019,-38.82023 50.38953,-75.73253 89.24281,-89.27413 7.45323,-2.59768 17.2646,-5.15976 17.78111,-4.64324 0.44173,0.44172 -2.98514,13.87481 -6.69008,26.22463 l -2.61355,8.71188 -8.37928,4.21414 c -15.22969,7.65937 -26.92173,16.55101 -37.049,28.1753 -6.6366,7.61762 -14.01569,18.64856 -17.91963,26.7879 l -2.9962,6.24679 -5.58963,1.6971 c -7.90479,2.40001 -30.39362,8.55428 -30.39362,8.31748 z m 36.74416,-17.177 c 2.80107,-5.57726 6.93038,-12.64401 10.98983,-18.80764 l 1.19425,-1.81327 -15.38097,-0.14699 c -8.45953,-0.0808 -15.38097,0.0509 -15.38097,0.29285 0,0.47289 14.91021,26.85247 15.18979,26.87422 0.0922,0.007 1.61685,-2.87245 3.38807,-6.39917 z m 20.42601,-29.67441 c 2.76869,-3.13116 7.23971,-7.49759 9.9356,-9.70318 2.69588,-2.20559 4.74338,-4.16841 4.54998,-4.36181 -0.37859,-0.37859 -28.58674,-8.54533 -28.74955,-8.32348 -0.0538,0.0733 1.66787,6.80279 3.82598,14.95436 2.84829,10.75846 4.12671,14.58887 4.66393,13.97407 0.40704,-0.46582 3.00537,-3.40881 5.77406,-6.53996 z m 22.83141,-19.39714 c 2.30573,-1.5607 8.01986,-4.74679 12.69808,-7.0802 l 8.50585,-4.24256 -13.04743,-8.07444 c -9.6768,-5.98853 -13.0839,-7.78316 -13.18863,-6.94688 -0.0777,0.62016 -0.25188,7.63219 -0.38713,15.58229 -0.17012,9.99935 -0.0189,14.32291 0.49057,14.02707 0.40505,-0.23521 2.62297,-1.70459 4.92869,-3.26528 z"
         id="path3244"
         style="fill:#f7e411" />
      <path
         d="m 471.60691,744.52749 c -37.82794,-10.37393 -73.37336,-40.86854 -91.95163,-78.88582 -5.93497,-12.14491 -11.66594,-29.41442 -10.23588,-30.84448 0.24325,-0.24324 8.16746,1.7238 17.60936,4.3712 l 17.16711,4.81347 4.52098,9.08314 c 11.70734,23.5213 31.66299,43.4431 54.11089,54.01912 3.65072,1.71998 6.69783,3.16814 6.77134,3.21813 0.0735,0.05 2.20977,7.62914 4.74723,16.84256 2.53745,9.21343 4.77801,17.30191 4.97902,17.97441 0.46417,1.55299 -0.0383,1.51447 -7.71842,-0.59173 z m -14.55295,-24.65892 12.04318,-7.13094 -7.5016,-3.7656 c -4.12588,-2.07107 -10.15211,-5.51468 -13.39162,-7.65246 -3.23952,-2.13779 -5.99066,-3.88688 -6.11366,-3.88688 -0.123,0 -0.22364,7.11053 -0.22364,15.80119 l 0,15.80119 1.57209,-1.01778 c 0.86464,-0.55979 6.99151,-4.22671 13.61525,-8.14872 z m -31.66698,-19.96514 c 7.62694,-2.09967 13.98302,-3.93343 14.12462,-4.07503 0.14159,-0.1416 -2.1109,-2.38554 -5.00556,-4.98653 -2.89465,-2.60098 -7.51069,-7.29135 -10.25786,-10.42306 -2.74716,-3.13169 -5.18528,-5.77658 -5.41804,-5.87752 -0.23276,-0.10093 -1.73047,4.3009 -3.32825,9.78185 -4.15477,14.25234 -5.35981,19.39788 -4.54282,19.39788 0.30841,0 6.80097,-1.71791 14.42791,-3.81759 z m -11.17173,-32.34032 c -3.29641,-4.89724 -9.21446,-16.21651 -10.66205,-20.39298 -0.49749,-1.43531 -1.07993,-2.13802 -1.4478,-1.74676 -0.33851,0.36003 -4.10662,6.31025 -8.37357,13.22272 -6.63729,10.75242 -7.58169,12.63797 -6.53707,13.05159 0.67157,0.2659 7.74019,0.50556 15.70805,0.53256 l 14.48702,0.0491 -3.17458,-4.71625 z m 135.37873,66.03979 c 1.87769,-7.02 4.06658,-15.20036 4.86422,-18.17859 0.79762,-2.97822 1.76247,-5.41495 2.14411,-5.41495 1.84409,0 13.58496,-6.20834 20.4531,-10.81519 18.19422,-12.20389 31.12504,-26.66107 40.60245,-45.39518 l 4.25946,-8.41973 17.37741,-5.03032 c 9.55757,-2.76669 17.50169,-4.90605 17.6536,-4.75414 0.49898,0.49898 -2.10319,11.06192 -4.21772,17.12085 -14.27346,40.89911 -53.72928,78.65715 -94.85668,90.77502 -3.66309,1.0793 -7.79276,2.16791 -9.17704,2.41912 l -2.51689,0.45674 3.41398,-12.76363 z m 33.85186,-35.26335 c -0.15671,-0.15671 -3.22841,1.64905 -6.826,4.0128 -3.59759,2.36375 -9.47075,5.72396 -13.05147,7.46713 -3.58072,1.74317 -6.25327,3.41112 -5.93898,3.70656 0.31427,0.29543 6.23091,4.0338 13.14808,8.30748 l 12.57667,7.77033 0.18831,-15.48969 c 0.10358,-8.51932 0.0601,-15.6179 -0.0966,-15.77461 z m 30.94067,1.36393 c -0.74729,-2.59394 -2.65255,-9.34454 -4.23391,-15.00133 l -2.87521,-10.28507 -1.94374,2.59933 c -2.69745,3.60726 -7.71422,8.74346 -14.2472,14.58638 l -5.54304,4.95756 4.14564,1.23453 c 11.2366,3.34614 23.17105,6.5495 24.53341,6.58508 l 1.52277,0.0398 -1.35872,-4.71625 z m 24.3786,-29.34556 c -0.81744,-1.44107 -4.45042,-7.56209 -8.0733,-13.60226 l -6.58703,-10.98212 -3.68397,7.4886 c -2.02619,4.11874 -5.45698,10.13067 -7.62398,13.35986 -2.167,3.22919 -3.94,5.98034 -3.94,6.11366 0,0.13332 7.06376,0.2424 15.69726,0.2424 l 15.69728,0 -1.48626,-2.62014 z m 168.249,74.17737 c -37.91043,-10.39813 -73.37645,-40.81775 -91.9815,-78.89362 -5.91646,-12.10824 -11.6657,-29.41418 -10.24403,-30.83585 0.2385,-0.23849 8.19976,1.72855 17.6917,4.3712 l 17.25806,4.80484 2.69841,5.86769 c 7.97886,17.35004 22.34348,35.01466 37.72132,46.38711 6.16638,4.56025 16.34165,10.49614 20.80108,12.13461 1.75196,0.64369 3.4023,1.3542 3.66742,1.57889 0.26513,0.22471 2.55859,7.95455 5.09658,17.17744 2.53799,9.22289 4.77898,17.31912 4.97999,17.99162 0.46396,1.55225 -0.0404,1.51395 -7.68903,-0.58393 z m -4.76221,-30.77633 c 1.55533,-0.99559 1.39624,-1.12895 -5.58963,-4.68534 -3.95478,-2.01332 -9.54865,-5.24335 -12.4308,-7.17784 -2.88215,-1.93449 -5.6333,-3.74862 -6.11366,-4.03141 -0.68807,-0.40506 -0.87338,2.82509 -0.87338,15.22412 l 0,15.73826 11.70329,-7.02151 c 6.43681,-3.86184 12.4237,-7.48267 13.30418,-8.04628 z m -40.64905,-14.27697 13.35461,-3.61815 -8.53419,-8.4734 c -4.69381,-4.66037 -9.38005,-9.53474 -10.41385,-10.83192 -1.0338,-1.29719 -1.96865,-2.24044 -2.07744,-2.09611 -0.37109,0.4923 -6.00512,20.51158 -7.01362,24.92133 -0.9283,4.05904 -0.91585,4.3704 0.16219,4.05645 0.64222,-0.18703 7.17726,-1.96822 14.5223,-3.9582 z m -9.51175,-27.5302 c 0,-0.18016 -1.43381,-2.54401 -3.18624,-5.25299 -1.75244,-2.70899 -4.99759,-8.66211 -7.21145,-13.22917 l -4.0252,-8.30374 -8.09335,13.03271 -8.09335,13.0327 13.73271,0.37173 c 7.55299,0.20446 14.44015,0.44027 15.30479,0.52403 0.86465,0.0838 1.57209,0.005 1.57209,-0.17527 z m 133.80569,58.15601 c 2.3772,-8.94056 4.53386,-17.12022 4.79258,-18.17701 0.25872,-1.05679 0.8111,-1.92143 1.22751,-1.92143 1.89993,0 13.54213,-6.13719 20.51634,-10.81519 18.23389,-12.23049 31.27248,-26.8211 40.55877,-45.38657 l 4.21579,-8.42834 17.42707,-5.02434 c 9.58488,-2.76339 17.57555,-4.87585 17.75704,-4.69436 0.1815,0.1815 -0.36106,3.16352 -1.20568,6.62673 -9.76327,40.03252 -44.33731,79.20706 -85.3578,96.7157 -5.90771,2.52157 -17.00188,6.04451 -21.74532,6.90522 l -2.50848,0.45517 4.32218,-16.25558 z m 32.81597,-7.69645 c 0.25332,-3.55466 0.36127,-10.47471 0.23988,-15.3779 l -0.22069,-8.91488 -4.89093,3.30018 c -2.69001,1.8151 -8.58687,5.21863 -13.10413,7.5634 l -8.2132,4.26323 12.40542,7.7493 c 6.82299,4.26212 12.6119,7.77864 12.86425,7.8145 0.25236,0.0358 0.66609,-2.84318 0.9194,-6.39783 z m 31.78198,-18.865 c -0.0155,-0.48036 -1.85434,-7.31892 -4.08626,-15.19681 -2.78743,-9.8387 -4.20329,-13.86911 -4.52199,-12.87243 -0.548,1.71378 -10.93008,12.57778 -16.76494,17.54314 l -4.09094,3.48133 6.88576,1.99333 c 10.5042,3.04082 20.7599,5.81136 21.73322,5.87116 0.48036,0.0295 0.86068,-0.33936 0.84515,-0.81972 z m 24.48286,-31.12651 c 0,-0.5147 -9.29714,-16.34237 -13.64703,-23.23305 l -1.87502,-2.97021 -2.60045,5.52033 c -2.26125,4.80025 -8.21051,14.82917 -11.66789,19.66907 l -1.12302,1.57208 15.45671,0 c 8.50118,0 15.4567,-0.2512 15.4567,-0.55822 z M 499.76297,693.93346 C 474.95044,690.00837 453.36839,676.71138 437.96261,655.85743 426.7873,640.73004 421.408,623.30015 421.30574,601.88628 l -0.0509,-10.65391 -3.31884,-10e-4 c -1.82537,-7e-4 -3.31885,-0.17252 -3.31885,-0.38175 0,-0.20924 0.50985,-2.41016 1.133,-4.89093 l 1.133,-4.51042 2.91921,0 2.91922,0 1.86388,-6.63136 c 3.95773,-14.08095 11.98775,-27.32044 23.52351,-38.78438 13.57207,-13.48757 28.6204,-21.59872 47.55781,-25.634 8.53097,-1.81781 29.52864,-1.79499 37.38066,0.0406 18.18781,4.25191 33.36275,12.64261 46.3944,25.65291 17.00478,16.97691 25.4072,36.32306 26.527,61.07703 l 0.44249,9.78185 4.36373,-8.0351 c 2.40005,-4.4193 5.54421,-10.31326 6.98704,-13.09769 1.44282,-2.78443 2.82087,-5.06396 3.06232,-5.0656 0.31881,-0.002 22.10602,39.51018 23.50452,42.62678 0.10319,0.22995 -2.30108,0.89241 -5.34281,1.47213 l -5.53041,1.05404 -2.30325,-4.76103 -2.30323,-4.76103 -8.11448,0 -8.11448,0 -2.29461,4.74321 c -2.19051,4.528 -2.39478,4.7316 -4.50189,4.48735 -2.1752,-0.25215 -2.22659,-0.18803 -3.53779,4.4138 -1.92923,6.77088 -8.71998,20.06807 -13.54918,26.5311 -10.78409,14.4326 -27.53536,27.07525 -43.46206,32.80201 -10.69733,3.84645 -15.57322,4.67805 -28.9962,4.94548 -6.91717,0.1378 -14.34919,-0.0298 -16.51561,-0.37255 z m 126.53184,-85.76017 c -0.0163,-0.28821 -1.22733,-2.65613 -2.69121,-5.26204 -2.00233,-3.56445 -2.83979,-4.5163 -3.38105,-3.84287 -0.58663,0.72986 -4.03029,7.05519 -4.95693,9.10491 -0.13031,0.28822 2.30462,0.52403 5.41095,0.52403 3.10631,0 5.63453,-0.23581 5.61824,-0.52403 z m 206.49657,85.38613 c -19.4162,-3.61835 -34.87204,-11.76911 -48.93798,-25.80785 -11.32137,-11.29945 -17.45861,-20.65782 -21.91688,-33.41992 -3.79927,-10.87568 -5.14579,-19.05 -5.22923,-31.7453 l -0.0746,-11.35124 -3.31884,-0.003 c -1.82536,-0.001 -3.31884,-0.32185 -3.31884,-0.71194 0,-0.39009 0.52317,-2.59101 1.16261,-4.89093 l 1.1626,-4.18157 2.88961,0 2.88961,0 1.91322,-6.81236 c 6.00438,-21.37971 22.50759,-42.07678 42.74797,-53.61126 7.72865,-4.40436 14.70436,-7.1862 24.08675,-9.60555 10.56949,-2.72545 27.32716,-3.45275 37.73505,-1.63772 25.25146,4.40358 47.48133,18.97198 62.35704,40.86581 9.07378,13.35467 14.35848,30.89268 14.6,48.45218 0.0803,5.83858 0.29431,7.46019 0.87668,6.64299 0.42375,-0.59461 3.6002,-6.4546 7.05878,-13.0222 3.45859,-6.5676 6.49394,-11.94773 6.74523,-11.95584 0.33249,-0.0108 22.12238,39.51944 23.48664,42.60835 0.10319,0.23363 -2.30108,0.89909 -5.34281,1.47881 l -5.53041,1.05404 -2.30325,-4.76103 -2.30323,-4.76103 -8.11448,0 -8.11448,0 -2.29461,4.74321 c -2.21319,4.57488 -2.3756,4.73376 -4.57628,4.47684 -2.08823,-0.24379 -2.3198,-0.0757 -2.73158,1.98323 -0.75982,3.79916 -5.36683,14.71599 -8.54076,20.23839 -4.22922,7.35847 -7.82519,12.02738 -14.43614,18.74352 -13.00905,13.21602 -27.57787,21.55073 -45.59607,26.08514 -7.59697,1.91183 -28.84452,2.43169 -37.0313,0.90603 z m 128.88124,-85.38613 c -0.0163,-0.28821 -1.24076,-2.68038 -2.72103,-5.31593 l -2.69142,-4.79189 -1.92406,3.39449 c -1.05823,1.86697 -2.3491,4.09087 -2.8686,4.94199 -0.5195,0.85113 -0.94454,1.71577 -0.94454,1.92144 0,0.20566 2.51533,0.37393 5.58963,0.37393 3.0743,0 5.57631,-0.23581 5.56002,-0.52403 z m -593.77655,17.23869 c -7.01628,-1.37888 -12.68043,-5.86197 -15.7134,-12.43692 -1.1706,-2.53766 -1.49058,-4.58023 -1.49336,-9.53271 -0.003,-5.71561 0.2102,-6.73717 2.2898,-10.96144 3.91939,-7.96141 10.58841,-12.02032 19.79421,-12.04718 3.28693,-0.01 5.72603,0.32258 6.38511,0.86957 0.59013,0.48976 1.28043,2.67019 1.54551,4.88173 0.26347,2.19815 0.64982,4.71524 0.85857,5.59352 l 0.37953,1.59689 -2.52418,-1.4893 c -3.01553,-1.77921 -8.42764,-1.95471 -11.48729,-0.3725 -2.63816,1.36424 -5.60191,4.88789 -6.12409,7.281 -0.22413,1.02717 -0.53279,2.27156 -0.68591,2.76529 -0.15312,0.49374 0.0584,2.46803 0.46999,4.3873 0.82033,3.82511 3.19326,7.12727 6.26199,8.71417 2.78767,1.44156 8.22223,1.2865 11.38264,-0.32477 l 2.64349,-1.34773 -0.45581,4.66657 c -0.67246,6.8846 -0.69443,6.92166 -4.60089,7.75945 -3.93046,0.84293 -4.62298,0.8427 -8.92591,-0.003 z m 300.61715,-9.57561 -6.20556,-10.14313 -0.19516,9.21757 c -0.13771,6.50385 -0.44626,9.29429 -1.04805,9.47814 -0.46909,0.1433 -2.818,0.4395 -5.2198,0.6582 l -4.36689,0.39764 0,-22.06398 0,-22.06396 9.95652,0.24019 c 9.09036,0.21929 10.22467,0.39215 13.03881,1.98695 4.23909,2.40233 5.81875,4.77992 6.19569,9.32522 0.40694,4.90723 -0.7413,8.25593 -3.731,10.88091 -1.32154,1.16033 -2.4028,2.30618 -2.4028,2.54632 0,0.24014 1.83004,3.0009 4.06677,6.135 2.23673,3.13411 4.7309,6.66045 5.54261,7.8363 l 1.47582,2.13793 -5.4507,1.78692 -5.4507,1.78692 -6.20556,-10.14314 z m -0.28435,-14.80702 c 4.14835,-4.14835 1.53252,-10.4565 -4.34912,-10.48803 l -1.92144,-0.0103 0,5.93898 0,5.93899 2.44546,0 c 1.50336,0 2.97697,-0.5315 3.8251,-1.37964 z m 35.04501,24.38263 c -7.01628,-1.37888 -12.68043,-5.86197 -15.7134,-12.43692 -1.1706,-2.53766 -1.49059,-4.58023 -1.49336,-9.53271 -0.003,-5.71561 0.2102,-6.73717 2.28981,-10.96144 3.76239,-7.64251 10.55067,-11.9402 19.00438,-12.03176 7.59812,-0.0823 8.13366,0.24747 8.69799,5.35601 0.26591,2.40708 0.65831,5.09511 0.87201,5.97339 l 0.38854,1.59689 -2.52418,-1.4893 c -3.01552,-1.77921 -8.42764,-1.95471 -11.48729,-0.3725 -2.53503,1.31091 -5.57079,4.83253 -6.14787,7.13179 -0.80331,3.20066 0.0937,9.96375 1.58926,11.98271 3.71782,5.01886 10.28273,6.55359 15.86324,3.70849 l 2.64349,-1.34773 -0.45582,4.66657 c -0.67246,6.8846 -0.69443,6.92166 -4.60089,7.75945 -3.93046,0.84293 -4.62298,0.8427 -8.92591,-0.003 z m 300.61172,-9.58438 -6.20013,-10.13399 -0.19439,9.53694 -0.19439,9.53695 -3.03711,0 c -1.67042,0 -4.01967,0.19651 -5.22057,0.43669 l -2.18344,0.43669 0,-22.16201 0,-22.16202 9.95652,0.24019 c 9.09041,0.21929 10.22471,0.39215 13.03881,1.98695 4.2391,2.40233 5.8188,4.77992 6.1957,9.32522 0.4092,4.93451 -0.7435,8.25788 -3.793,10.93539 -1.3557,1.19029 -2.2996,2.54227 -2.0976,3.00441 0.202,0.46214 2.7219,4.13883 5.5997,8.17044 2.8778,4.0316 5.1697,7.39277 5.0932,7.46926 -0.077,0.0765 -2.5295,0.89819 -5.4512,1.82598 l -5.3121,1.68692 -6.2,-10.13401 z m -0.2789,-14.79825 c 4.1483,-4.14835 1.5325,-10.4565 -4.34914,-10.48803 l -1.92144,-0.0103 0,5.93898 0,5.93899 2.44546,0 c 1.50332,0 2.97692,-0.5315 3.82512,-1.37964 z m -609.25193,2.52834 0,-22.0832 1.57208,-0.32398 c 0.86465,-0.1782 3.22277,-0.45245 5.24028,-0.60946 l 3.66819,-0.28545 0,22.25595 0,22.25595 -3.05682,0 c -1.68126,0 -4.03939,0.19651 -5.24028,0.43669 l -2.18345,0.43669 0,-22.08319 z m 335.37781,0.004 0,-22.08727 1.57208,-0.32399 c 0.86465,-0.1782 3.22277,-0.45245 5.24028,-0.60945 l 3.66819,-0.28546 0,22.25595 0,22.25596 -2.62014,0.008 c -1.44107,0.004 -3.7992,0.20258 -5.24027,0.44077 l -2.62014,0.43308 0,-22.08728 z m -86.98862,-39.1646 c -22.47465,-6.26149 -19.60469,-4.83276 -22.32934,-11.11604 -10.04341,-23.16103 -30.66998,-44.75344 -54.0214,-56.55096 l -8.57647,-4.33298 -1.46874,-4.908 c -7.01244,-23.43314 -8.77074,-30.41065 -7.66289,-30.40892 0.62218,9.7e-4 4.11342,0.80069 7.75831,1.77717 44.78189,11.99718 85.85313,52.71325 99.5094,98.6489 2.56314,8.62163 2.81816,10.67347 1.32089,10.62772 -0.68991,-0.0211 -7.22831,-1.70268 -14.52976,-3.73689 z m -2.0241,-33.42005 c -0.74879,-0.49872 -30.46563,-0.78059 -30.46563,-0.28897 0,0.13516 1.44099,2.41468 3.2022,5.0656 1.7612,2.65092 5.14087,8.77206 7.51037,13.60255 l 4.30819,8.78269 8.10779,-13.32427 c 5.269,-8.65903 7.83795,-13.50401 7.33708,-13.8376 z m -27.55613,-17.12872 c 2.20978,-7.9429 3.9015,-14.55791 3.75939,-14.70002 -0.27898,-0.27899 -17.32354,3.95365 -24.9883,6.20528 l -4.69469,1.37914 7.48951,7.25368 c 4.11922,3.98952 8.90437,8.97174 10.63367,11.07159 1.72929,2.09986 3.28782,3.68608 3.46341,3.52495 0.17558,-0.16114 2.12724,-6.79171 4.33701,-14.73462 z m -27.43811,-28.21038 c 0.0407,-4.08305 -0.11326,-8.35997 -0.34213,-9.50427 l -0.41611,-2.08055 -13.25138,8.0406 -13.25137,8.0406 8.25253,4.28356 c 4.53889,2.35596 10.45345,5.76991 13.14346,7.58655 l 4.89093,3.30298 0.45004,-6.12287 c 0.24752,-3.36758 0.48333,-9.46355 0.52403,-13.5466 z m 392.0468,78.6784 c -21.92188,-6.08669 -19.24831,-4.74429 -21.97828,-11.03529 -7.19377,-16.57752 -19.92899,-32.65533 -35.31543,-44.58462 -7.75319,-6.01115 -10.68043,-7.8583 -19.84801,-12.52458 l -7.6207,-3.87891 -5.03553,-17.60726 c -4.17132,-14.58547 -4.84201,-17.60695 -3.90792,-17.60549 0.62019,9.7e-4 4.1098,0.80069 7.75469,1.77717 40.60334,10.87774 78.80398,45.70167 95.38819,86.95643 2.72524,6.7793 6.63317,19.58524 6.63317,21.73631 0,1.07087 -2.05846,0.65665 -16.07018,-3.23376 z m -1.31843,-32.21715 c 0.47807,-0.57992 -3.46756,-0.87287 -14.91126,-1.10712 -8.55873,-0.17519 -15.62117,-0.28453 -15.69428,-0.24297 -0.0731,0.0416 1.49895,2.59885 3.49351,5.68286 1.99456,3.08402 5.35485,9.20772 7.4673,13.60822 l 3.84084,8.00093 7.5769,-12.57667 c 4.1673,-6.91716 7.86945,-12.93153 8.22699,-13.36525 z m -27.96778,-18.6349 c 2.17238,-7.76286 3.89581,-14.18325 3.82985,-14.26754 -0.15655,-0.20006 -26.12875,6.50508 -28.13665,7.26393 -1.42927,0.54016 -1.21604,0.85138 2.9761,4.34378 2.48362,2.06907 7.23685,6.86318 10.56273,10.6536 3.32589,3.79041 6.22058,6.71816 6.43264,6.5061 0.21206,-0.21207 2.16296,-6.737 4.33533,-14.49987 z m -27.69424,-34.5897 c -0.23798,-2.42287 -0.68681,-4.30937 -0.99741,-4.19222 -0.31058,0.11715 -6.22501,3.65014 -13.14317,7.85109 l -12.57846,7.6381 7.08923,3.55615 c 3.89908,1.95589 9.76177,5.29926 13.02821,7.42971 l 5.93899,3.87356 0.54765,-10.87559 c 0.30121,-5.98156 0.35295,-12.85793 0.11496,-15.2808 z m -551.59054,88.08293 c 0,-1.18013 3.18925,-12.37267 4.96561,-17.42664 13.07335,-37.19516 49.5992,-73.9466 86.97326,-87.51042 7.56785,-2.74653 19.13435,-5.89432 19.67435,-5.35432 0.45717,0.45717 -2.91167,13.70693 -6.67231,26.24241 l -2.61355,8.71188 -8.37928,4.21414 c -15.22969,7.65937 -26.92173,16.55101 -37.049,28.1753 -6.70835,7.69998 -14.25675,18.97669 -18.00634,26.90006 l -2.90762,6.14419 -5.59057,1.69232 c -9.62265,2.91287 -30.39455,8.52439 -30.39455,8.21108 z m 37.18628,-17.50745 c 1.81452,-3.72924 5.1945,-9.70667 7.51106,-13.28317 2.31656,-3.57649 4.21193,-6.64205 4.21193,-6.81236 0,-0.1703 -6.95081,-0.30963 -15.44624,-0.30963 -14.42071,0 -15.4156,0.0812 -14.98474,1.22273 0.81079,2.14816 14.60319,26.028 15.01395,25.99479 0.21719,-0.0175 1.87951,-3.08312 3.69404,-6.81236 z m 23.40088,-32.46984 c 3.26927,-3.36913 7.33428,-7.12402 9.03335,-8.34421 2.09152,-1.50201 2.79996,-2.37384 2.19357,-2.69947 -1.38725,-0.74495 -28.63468,-8.42598 -28.91074,-8.14992 -0.13447,0.13447 1.53602,6.94877 3.71221,15.14289 l 3.9567,14.89839 2.03539,-2.36099 c 1.11947,-1.29855 4.71025,-5.11756 7.97952,-8.48669 z m 18.87387,-15.57843 c 2.60303,-1.75367 8.50578,-5.08271 13.11722,-7.39788 4.61145,-2.31517 8.25626,-4.41754 8.09959,-4.67194 -0.32378,-0.52575 -25.45687,-16.19443 -25.62608,-15.97603 -0.33243,0.42905 -1.03244,31.23433 -0.70977,31.23433 0.21245,0 2.51601,-1.43482 5.11904,-3.18848 z m 255.91678,65.65734 c 0,-1.36524 2.64168,-10.8021 4.60707,-16.45785 13.49019,-38.82023 50.38953,-75.73253 89.24281,-89.27413 7.45323,-2.59768 17.2646,-5.15976 17.78111,-4.64324 0.44173,0.44172 -2.98514,13.87481 -6.69008,26.22463 l -2.61355,8.71188 -8.37928,4.21414 c -15.22969,7.65937 -26.92173,16.55101 -37.049,28.1753 -6.6366,7.61762 -14.01569,18.64856 -17.91963,26.7879 l -2.9962,6.24679 -5.58963,1.6971 c -7.90479,2.40001 -30.39362,8.55428 -30.39362,8.31748 z m 36.74416,-17.177 c 2.80107,-5.57726 6.93038,-12.64401 10.98983,-18.80764 l 1.19425,-1.81327 -15.38097,-0.14699 c -8.45953,-0.0808 -15.38097,0.0509 -15.38097,0.29285 0,0.47289 14.91021,26.85247 15.18979,26.87422 0.0922,0.007 1.61685,-2.87245 3.38807,-6.39917 z m 20.42601,-29.67441 c 2.76869,-3.13116 7.23971,-7.49759 9.9356,-9.70318 2.69588,-2.20559 4.74338,-4.16841 4.54998,-4.36181 -0.37859,-0.37859 -28.58674,-8.54533 -28.74955,-8.32348 -0.0538,0.0733 1.66787,6.80279 3.82598,14.95436 2.84829,10.75846 4.12671,14.58887 4.66393,13.97407 0.40704,-0.46582 3.00537,-3.40881 5.77406,-6.53996 z m 22.83141,-19.39714 c 2.30573,-1.5607 8.01986,-4.74679 12.69808,-7.0802 l 8.50585,-4.24256 -13.04743,-8.07444 c -9.6768,-5.98853 -13.0839,-7.78316 -13.18863,-6.94688 -0.0777,0.62016 -0.25188,7.63219 -0.38713,15.58229 -0.17012,9.99935 -0.0189,14.32291 0.49057,14.02707 0.40505,-0.23521 2.62297,-1.70459 4.92869,-3.26528 z"
         id="path3242"
         style="fill:#6a6a6a" />
      <path
         d="m 472.60959,744.60031 c -38.74053,-10.69302 -74.39464,-40.96912 -92.86472,-78.85714 -5.18207,-10.63008 -11.56817,-29.70328 -10.35236,-30.91909 0.65049,-0.65049 35.06261,9.41407 35.36322,10.34273 1.42695,4.40829 10.1782,19.76851 14.65081,25.71514 6.87751,9.14412 20.10487,22.03508 28.44566,27.72222 5.80703,3.9595 16.8149,9.92629 20.23727,10.96957 1.16674,0.35567 2.00436,2.57452 4.71374,12.48671 1.81218,6.6298 4.05232,14.80533 4.97807,18.16784 0.92576,3.36251 1.47712,6.09062 1.22524,6.06247 -0.25187,-0.0282 -3.13049,-0.78887 -6.39693,-1.69045 z m -16.58964,-23.76105 c 7.1757,-4.22715 13.05783,-7.85238 13.07142,-8.05606 0.0136,-0.20368 -2.86228,-1.77577 -6.39082,-3.49352 -3.52853,-1.71776 -9.67739,-5.24551 -13.66411,-7.83944 -3.98674,-2.59394 -7.38809,-4.71625 -7.55857,-4.71625 -0.17047,0 -0.30995,7.25464 -0.30995,16.12141 0,12.82682 0.18447,16.07525 0.90266,15.89551 0.49647,-0.12424 6.77368,-3.68449 13.94937,-7.91165 z m -31.97027,-20.27247 c 6.53288,-1.77388 12.87556,-3.53553 14.09486,-3.91478 l 2.21689,-0.68953 -8.50523,-8.28392 c -4.67787,-4.55615 -9.44848,-9.56301 -10.60134,-11.12634 -1.15286,-1.56333 -2.28669,-2.84986 -2.51962,-2.85894 -0.53948,-0.021 -7.4348,23.79754 -8.03926,27.7701 -0.35983,2.36487 -0.254,2.91491 0.51095,2.65565 0.53063,-0.17985 6.30987,-1.77836 12.84275,-3.55224 z m -7.08409,-29.16081 c -0.29088,-0.48036 -1.84135,-2.91709 -3.44548,-5.41496 -3.29175,-5.12572 -6.74967,-11.77835 -9.07937,-17.46759 -0.86549,-2.11358 -1.78011,-3.77705 -2.03249,-3.6966 -0.44293,0.14118 -17.13663,26.61458 -17.13663,27.1758 0,0.1522 7.25014,0.27673 16.11142,0.27673 12.7054,0 15.99962,-0.18464 15.58255,-0.87338 z m 129.7066,74.34568 c 0,-0.22176 1.74942,-7.01824 3.88761,-15.10327 2.13819,-8.08503 4.18041,-15.82859 4.53827,-17.20791 0.61142,-2.35661 1.20923,-2.78836 9.91179,-7.15867 12.27486,-6.16427 20.7358,-12.31503 30.91481,-22.47384 9.9508,-9.93106 16.30639,-18.60377 21.99353,-30.01196 l 4.16366,-8.35214 17.49276,-5.00279 c 9.62102,-2.75153 17.49056,-4.80977 17.48787,-4.57388 -0.003,0.23591 -0.61024,2.94425 -1.3501,6.01855 -6.5095,27.04844 -24.51512,54.25547 -49.92926,75.44462 -11.53912,9.62081 -29.96945,20.03862 -43.29948,24.47522 -7.70458,2.56429 -15.81146,4.58753 -15.81146,3.94607 z m 37.0313,-32.27007 0,-16.09149 -5.41495,3.66603 c -2.97823,2.0163 -8.96009,5.46881 -13.29303,7.67222 -4.33294,2.20341 -7.88598,4.20469 -7.89564,4.44728 -0.0191,0.48061 25.22397,16.32576 26.07959,16.37021 0.28822,0.0149 0.52403,-7.21394 0.52403,-16.06425 z m 32.14037,-8.96539 c 0,-0.59793 -4.34997,-16.27761 -7.08615,-25.54236 l -1.42768,-4.83413 -1.83106,2.38867 c -3.06687,4.00079 -10.62189,11.64392 -15.64877,15.83127 -3.12387,2.60214 -4.45716,4.12589 -3.88071,4.43505 1.75875,0.94323 26.72362,7.97374 29.35035,8.26552 0.28821,0.032 0.52402,-0.2128 0.52402,-0.54402 z m 23.71094,-33.11022 c -1.81031,-3.58947 -15.00707,-25.64349 -15.35436,-25.65973 -0.20747,-0.01 -1.93676,3.18344 -3.84287,7.09586 -1.90611,3.91243 -5.4114,10.04355 -7.78954,13.62472 l -4.32388,6.51123 16.05175,0 16.05176,0 -0.79286,-1.57208 z m 168.4326,73.19433 c -9.04615,-2.49689 -15.68714,-5.02069 -23.7837,-9.0386 -37.12206,-18.42182 -68.08571,-55.44579 -77.9965,-93.26228 -1.01787,-3.88386 -1.67518,-7.23704 -1.4607,-7.45152 0.53504,-0.53505 34.17342,8.93158 34.89167,9.81933 0.31684,0.39161 2.28576,4.17061 4.37537,8.39776 6.67161,13.49624 13.4094,22.48315 25.65115,34.21367 8.68952,8.32664 18.82187,15.38301 28.643,19.94758 l 6.73983,3.13246 3.21751,11.87796 c 1.76963,6.53288 3.98217,14.62911 4.91676,17.99162 0.93458,3.36251 1.48444,6.09062 1.22191,6.06247 -0.26252,-0.0282 -3.14986,-0.78887 -6.4163,-1.69045 z m -16.58964,-23.76105 c 7.1757,-4.22715 13.05783,-7.85238 13.07142,-8.05606 0.0136,-0.20368 -2.86228,-1.77577 -6.39082,-3.49352 -3.52853,-1.71776 -9.67739,-5.24551 -13.66411,-7.83944 -3.98674,-2.59394 -7.38809,-4.71625 -7.55857,-4.71625 -0.17047,0 -0.30995,7.25464 -0.30995,16.12141 0,12.82682 0.18447,16.07525 0.90266,15.89551 0.49647,-0.12424 6.77368,-3.68449 13.94937,-7.91165 z m -31.97027,-20.27247 c 6.53288,-1.77388 12.87556,-3.53553 14.09486,-3.91478 l 2.21689,-0.68953 -8.50523,-8.28392 c -4.67787,-4.55615 -9.44848,-9.56301 -10.60134,-11.12634 -1.15286,-1.56333 -2.28669,-2.84986 -2.51961,-2.85894 -0.53949,-0.021 -7.43481,23.79754 -8.03927,27.7701 -0.35983,2.36487 -0.25401,2.91491 0.51095,2.65565 0.53063,-0.17985 6.30987,-1.77836 12.84275,-3.55224 z m -7.08409,-29.16081 c -0.29088,-0.48036 -1.87746,-2.96587 -3.52574,-5.52336 -3.01979,-4.68556 -8.40624,-15.25873 -9.97083,-19.57194 -0.6804,-1.87571 -0.97795,-2.12491 -1.52929,-1.28077 -2.35617,3.60746 -16.66811,26.78638 -16.66811,26.99485 0,0.14003 7.25014,0.2546 16.11142,0.2546 12.7054,0 15.99962,-0.18464 15.58255,-0.87338 z M 882.05,745.61823 c 0,-0.32199 1.74735,-7.12943 3.88299,-15.12766 2.13564,-7.99823 4.18576,-15.7001 4.55582,-17.11528 0.62979,-2.40842 1.14176,-2.79705 8.00145,-6.07386 23.53806,-11.24388 43.3901,-30.63488 54.75744,-53.48575 l 4.14506,-8.33246 17.35154,-5.03483 c 9.54335,-2.76916 17.44973,-4.94767 17.56974,-4.84115 0.44074,0.3912 -2.63098,12.05056 -4.78343,18.15647 -6.55858,18.60489 -17.8771,35.79974 -34.52116,52.4438 -13.70242,13.70242 -26.43374,22.88412 -42.10897,30.36858 -9.84401,4.70022 -28.85048,10.65711 -28.85048,9.04214 z m 37.0313,-32.13664 0,-16.09149 -5.41495,3.66603 c -2.97823,2.0163 -8.96009,5.46881 -13.29303,7.67222 -4.33294,2.20341 -7.88598,4.20469 -7.89564,4.44728 -0.0191,0.48061 25.22397,16.32576 26.07959,16.37021 0.28822,0.0149 0.52403,-7.21394 0.52403,-16.06425 z m 32.13856,-8.88719 c -0.002,-0.55978 -4.7112,-17.59292 -7.08347,-25.62056 l -1.42855,-4.83413 -1.83106,2.38867 c -3.06687,4.00079 -10.62189,11.64392 -15.64877,15.83127 -3.12387,2.60214 -4.45716,4.12589 -3.88071,4.43505 1.75875,0.94323 26.72362,7.97374 29.35035,8.26552 0.28821,0.032 0.52321,-0.1776 0.52221,-0.46582 z m 23.71275,-33.18842 c -1.74963,-3.46915 -15.0012,-25.64328 -15.33462,-25.65973 -0.19662,-0.01 -1.92591,3.20123 -3.84288,7.1354 -1.91696,3.93417 -5.43113,10.0653 -7.80927,13.62472 l -4.32388,6.47169 16.05175,0 16.05176,0 -0.79286,-1.57208 z M 498.46163,693.5971 C 477.93546,690.08155 460.48133,680.75125 446.19241,665.65599 429.35493,647.86835 421.42579,627.5512 421.305,601.88593 l -0.0502,-10.65426 -3.31884,-7e-4 c -1.82536,-5.4e-4 -3.31457,-0.23678 -3.30935,-0.525 0.005,-0.28821 0.57246,-2.41053 1.26053,-4.71625 1.24593,-4.17514 1.26273,-4.19309 4.12196,-4.4041 2.84289,-0.20981 2.87909,-0.24736 3.70531,-3.84287 1.2758,-5.55201 5.35886,-15.4186 8.98777,-21.7187 14.9974,-26.03679 39.7817,-42.60104 69.72843,-46.60201 9.34051,-1.24792 24.83319,-0.461 33.12171,1.68236 17.60305,4.55203 31.66529,12.68574 44.53347,25.75851 16.59888,16.86278 24.78943,35.88088 25.7645,59.82402 0.22453,5.51333 0.67442,9.73127 1.00291,9.40278 0.32764,-0.32764 3.45106,-5.92742 6.94094,-12.44396 3.48988,-6.51654 6.55991,-12.07045 6.82228,-12.34204 0.43368,-0.44889 22.55639,39.53703 23.02787,41.62198 0.13357,0.59064 -1.30961,1.17035 -4.27277,1.71633 -2.46096,0.45346 -4.80162,0.82446 -5.20144,0.82446 -0.39984,0 -1.68333,-2.04371 -2.85222,-4.54157 l -2.12526,-4.54158 -8.46498,0 -8.46497,0 -2.09739,4.62568 c -2.04716,4.51493 -2.15155,4.61689 -4.36007,4.25849 l -2.26269,-0.36718 -1.20263,4.64998 c -1.5583,6.02519 -6.99878,17.32068 -11.70202,24.29571 -2.04258,3.02918 -6.65798,8.54343 -10.25645,12.25389 -14.42271,14.87157 -32.87712,24.66537 -51.87266,27.52894 -8.03501,1.21128 -22.88196,1.19573 -30.04717,-0.0314 z m 127.86279,-85.32164 c 0,-0.80598 -5.06662,-10.05863 -5.5015,-10.04684 -0.42561,0.0115 -5.67776,9.35024 -5.67776,10.09547 0,0.20527 2.51533,0.37323 5.58963,0.37323 3.0743,0 5.58963,-0.18983 5.58963,-0.42186 z m 175.02529,17.03905 c -2.69001,-0.36949 -4.99994,-0.77894 -5.13319,-0.9099 -0.13325,-0.13095 1.20302,-3.28914 2.96949,-7.01819 1.76647,-3.72905 3.21176,-7.19774 3.21176,-7.7082 0,-0.51046 -3.46892,-6.32714 -7.70871,-12.92595 -4.2398,-6.59881 -7.5424,-12.16415 -7.33913,-12.36742 0.20326,-0.20327 2.43495,-1.24094 4.95929,-2.30594 l 4.58972,-1.93637 3.66037,5.71827 c 2.01321,3.14505 4.37654,6.89733 5.25187,8.33841 0.87532,1.44107 1.82518,2.62014 2.11081,2.62014 0.28563,0 2.00557,-3.74043 3.82209,-8.31206 l 3.30276,-8.31205 5.0294,1.56091 c 3.47038,1.07706 4.95843,1.86681 4.80045,2.54774 -0.51206,2.20712 -17.77663,41.85435 -18.18968,41.77171 -0.24551,-0.0491 -2.64729,-0.39162 -5.3373,-0.7611 z m 66.37686,-0.0418 c -2.69001,-0.3465 -5.02124,-0.75844 -5.18051,-0.91541 -0.15928,-0.15698 1.2144,-3.57305 3.0526,-7.59127 l 3.34218,-7.30584 -7.86153,-12.30646 c -4.45149,-6.9684 -7.59401,-12.56254 -7.24481,-12.89683 0.33918,-0.3247 2.57264,-1.37823 4.96323,-2.34117 l 4.34653,-1.75081 4.66248,7.45384 c 2.56438,4.09961 5.05006,8.01861 5.52374,8.70888 0.75542,1.10081 1.16566,0.49977 3.33828,-4.89092 1.36237,-3.38029 2.9607,-7.28484 3.55184,-8.67679 l 1.07481,-2.53082 4.91887,1.44855 c 2.70538,0.79671 4.91828,1.77837 4.91757,2.18147 -0.002,0.99293 -17.32996,41.07665 -17.99059,41.61598 -0.28807,0.23518 -2.72468,0.14409 -5.41469,-0.2024 z m -502.79961,-0.77114 c -3.82504,-1.36687 -7.43941,-3.80442 -9.34425,-6.3018 -5.68426,-7.45244 -6.64512,-17.87852 -2.42275,-26.28856 1.93625,-3.85658 7.57535,-8.69444 11.75105,-10.08139 3.66301,-1.21666 10.57083,-1.62087 13.23723,-0.77459 1.75483,0.55696 1.97774,1.14884 2.59166,6.88161 l 0.49652,4.6364 -3.58108,-1.51297 c -3.21748,-1.35934 -3.90966,-1.42508 -6.81718,-0.64743 -6.56869,1.75685 -9.68246,5.863 -9.64754,12.72226 0.0497,9.7566 9.08582,15.82987 17.29954,11.62715 l 3.34975,-1.71396 -0.41727,3.23945 c -1.10779,8.60024 -0.99378,8.29543 -3.27369,8.75141 -3.53943,0.7079 -10.53233,0.42357 -13.22199,-0.53758 z m 29.42781,-21.01961 0,-21.85127 2.62014,-0.43308 c 1.44107,-0.23819 3.7992,-0.43654 5.24027,-0.44077 l 2.62014,-0.008 0,21.62816 0,21.62815 -2.27078,0.34512 c -1.24894,0.18982 -3.60706,0.48856 -5.24028,0.66388 l -2.96949,0.31876 0,-21.85126 z m 257.12299,-0.24815 0,-21.91996 9.62839,0.24167 c 8.6452,0.21701 9.98297,0.42199 13.1007,2.00734 7.8239,3.97842 8.84657,15.44466 1.87278,20.99778 l -2.12386,1.6912 5.52988,7.66669 c 3.04144,4.21668 5.52989,7.89776 5.52989,8.18019 0,0.42365 -8.70924,3.36747 -9.96263,3.36747 -0.20871,0 -3.16178,-4.47968 -6.56236,-9.95484 l -6.18289,-9.95484 -0.19476,9.22825 -0.19476,9.22824 -2.2507,0.35385 c -1.23789,0.19462 -3.58697,0.45129 -5.22019,0.57038 l -2.96949,0.21653 0,-21.91995 z m 14.98833,-1.11504 c 6.21121,-2.59521 4.63542,-11.58777 -2.03056,-11.58777 l -2.47722,0 0,6.28834 c 0,6.9718 0.13248,7.12754 4.50778,5.29943 z m 34.17575,22.58649 c -1.20485,-0.34919 -3.70999,-1.6571 -5.56698,-2.90648 -13.29522,-8.9449 -11.86725,-31.61505 2.45152,-38.91994 4.88171,-2.49046 15.33372,-3.15998 17.38644,-1.11373 0.41112,0.40984 2.17292,10.862 1.83088,10.862 -0.0599,0 -1.59589,-0.65778 -3.41338,-1.46174 -12.3629,-5.46871 -22.75752,11.37563 -13.0255,21.10765 4.34921,4.34921 10.52656,4.98225 15.37429,1.57552 l 1.66736,-1.17173 -0.46333,3.4252 c -1.12591,8.32328 -1.18582,8.51824 -2.74657,8.93683 -2.26913,0.60858 -10.9875,0.39307 -13.49473,-0.33358 z m 29.09074,-21.30799 0,-21.86379 2.96949,-0.36623 c 1.63322,-0.20142 3.99134,-0.48065 5.24028,-0.62051 l 2.27078,-0.25427 0,21.87484 0,21.87485 -1.57208,0.32399 c -0.86465,0.1782 -3.22277,0.45244 -5.24028,0.60945 l -3.66819,0.28546 0,-21.86379 z m 31.26699,21.66454 c -0.28821,-0.28997 -0.52403,-8.02082 -0.52403,-17.17967 l 0,-16.65243 -5.32176,0 c -5.18568,0 -5.31033,-0.0402 -4.87423,-1.57209 0.24615,-0.86464 0.80845,-3.06556 1.24955,-4.89092 l 0.802,-3.31885 14.90213,0 14.90213,0 0,4.89093 0,4.89093 -5.24028,0 -5.24028,0 0,16.76889 0,16.76888 -2.62014,0.008 c -1.44107,0.004 -3.72059,0.18908 -5.0656,0.41078 -1.345,0.2217 -2.68127,0.16584 -2.96949,-0.12414 z m 175.91399,-0.41538 c -1.91301,-0.3649 -3.58979,-0.77505 -3.72618,-0.91145 -0.13639,-0.13639 2.03224,-4.44031 4.81918,-9.56427 2.78695,-5.12395 7.84302,-14.48775 11.23574,-20.80844 3.39271,-6.32069 6.41453,-11.73813 6.71517,-12.03876 0.5019,-0.5019 23.21235,40.47745 23.21235,41.885 0,0.53648 -7.40796,2.25768 -9.71695,2.25768 -0.45213,0 -1.739,-2.04371 -2.85971,-4.54158 l -2.03767,-4.54157 -8.44289,0 -8.44289,0 -2.03767,4.54157 c -2.24646,5.00693 -2.16458,4.97198 -8.71848,3.72182 z m 24.78867,-16.37099 c 0,-0.80598 -5.06662,-10.05863 -5.5015,-10.04684 -0.42561,0.0115 -5.67776,9.35024 -5.67776,10.09547 0,0.20527 2.51533,0.37323 5.58963,0.37323 3.0743,0 5.58963,-0.18983 5.58963,-0.42186 z m 25.15334,-4.98799 0,-21.9736 9.62839,0.24167 c 8.64524,0.21701 9.98294,0.42199 13.10074,2.00734 5.9841,3.04289 8.2123,10.02361 5.2687,16.5063 -0.7243,1.59526 -2.2618,3.59905 -3.4167,4.45287 l -2.0997,1.55241 5.7927,8.12379 5.7927,8.12379 -3.3009,1.14353 c -7.8679,2.72572 -6.8004,3.33993 -13.7567,-7.9148 l -6.17933,-9.99762 -0.19489,9.24959 c -0.22086,10.48123 0.38196,9.601 -6.96682,10.17288 l -3.66819,0.28546 0,-21.97361 z m 14.98833,-1.16868 c 6.2112,-2.59521 4.6354,-11.58777 -2.03056,-11.58777 l -2.47722,0 0,6.28834 c 0,6.9718 0.13248,7.12754 4.50778,5.29943 z m -101.6276,0.98854 0,-21.6917 12.35233,0.1908 12.35234,0.1908 0.46482,1.74676 c 0.25565,0.96071 0.68331,2.91541 0.95035,4.34375 l 0.48554,2.59701 -7.88774,0.19781 -7.88773,0.19781 0,3.49352 0,3.49352 5.7643,0.20293 5.76431,0.20293 0,4.48507 0,4.48506 -5.76431,0.20293 -5.7643,0.20293 0,3.84287 0,3.84287 8.59927,0.19651 c 7.96656,0.18204 8.56944,0.29051 8.19375,1.47422 -0.22305,0.70275 -0.80491,2.65803 -1.29302,4.34507 l -0.88749,3.06735 -12.72121,0.19044 -12.72121,0.19044 0,-21.6917 z M 643.09331,564.28642 c -7.4936,-2.09735 -15.09503,-4.17334 -16.89208,-4.61333 -3.22597,-0.78983 -3.2952,-0.86718 -5.46623,-6.10681 -6.75375,-16.29965 -20.83682,-33.85888 -37.03151,-46.17206 -6.33857,-4.81935 -17.02127,-11.25987 -22.0861,-13.31553 -3.50272,-1.42166 -3.7636,-1.7029 -4.73383,-5.10357 -0.56476,-1.97945 -2.8191,-9.82097 -5.00965,-17.4256 -2.19055,-7.60462 -3.82186,-13.98755 -3.62513,-14.18428 0.50741,-0.50742 10.48494,2.1207 17.76354,4.67898 40.70083,14.30552 79.0768,55.58772 90.21323,97.04514 2.25843,8.40741 2.36205,9.08709 1.37917,9.04678 -0.48768,-0.02 -7.01781,-1.75238 -14.51141,-3.84972 z m -9.18765,-19.77671 c 4.28463,-7.05808 7.79024,-13.09933 7.79024,-13.42499 0,-0.32565 -7.23185,-0.68199 -16.07077,-0.79184 -8.83893,-0.10985 -16.07052,-0.13194 -16.07019,-0.0491 3.2e-4,0.0829 1.71823,2.78572 3.81756,6.00638 2.09933,3.22066 5.61096,9.52965 7.80363,14.01997 2.19266,4.49032 4.201,7.91858 4.46297,7.61835 0.26197,-0.30024 3.98192,-6.32068 8.26656,-13.37877 z m -20.66838,-29.96309 c 2.2171,-7.97375 4.025,-14.86605 4.01755,-15.31621 -0.0136,-0.82384 -19.23171,3.76942 -29.91318,7.14948 -0.51845,0.16406 1.17063,2.07095 3.96394,4.47507 2.67704,2.30406 7.64262,7.33313 11.03461,11.17571 3.392,3.84259 6.32448,6.99263 6.51663,7.0001 0.19214,0.007 2.16334,-6.5104 4.38045,-14.48415 z M 585.7996,490.30828 c 0,-8.62378 -0.25583,-15.83772 -0.56851,-16.03096 -0.31269,-0.19325 -6.58488,3.32235 -13.93821,7.81244 l -13.36969,8.16381 8.52325,4.37584 c 4.68779,2.40672 10.72417,5.9117 13.41418,7.78885 2.69001,1.87716 5.12674,3.44825 5.41495,3.49131 0.28822,0.0431 0.52403,-6.97752 0.52403,-15.60129 z m 397.9118,75.47084 c -4.61145,-1.26158 -12.21729,-3.34971 -16.90187,-4.64029 l -8.51742,-2.34651 -1.8917,-4.56773 c -9.76542,-23.57981 -31.21496,-45.99598 -55.62364,-58.13033 -3.95899,-1.96814 -7.27504,-3.63726 -7.369,-3.70916 -0.29776,-0.22785 -9.96036,-33.79226 -9.96036,-34.59873 0,-1.13143 3.85168,-0.291 14.32342,3.12535 19.49668,6.36069 37.33142,17.32717 53.37822,32.82197 21.97265,21.21681 36.47443,46.07983 42.297,72.51738 0.52498,2.38368 0.74195,2.39419 -9.73465,-0.47195 z m -14.42793,-21.26941 c 4.28463,-7.05808 7.79024,-13.09933 7.79024,-13.42499 0,-0.32565 -7.23185,-0.68199 -16.07077,-0.79184 -8.83893,-0.10985 -16.07052,-0.13194 -16.07019,-0.0491 3.2e-4,0.0829 1.71823,2.78572 3.81756,6.00638 2.09933,3.22066 5.61096,9.52965 7.80363,14.01997 2.19266,4.49032 4.201,7.91858 4.46297,7.61835 0.26197,-0.30024 3.98192,-6.32068 8.26656,-13.37877 z m -20.66838,-29.96309 c 2.2171,-7.97375 4.025,-14.86605 4.01755,-15.31621 -0.0128,-0.77147 -18.95378,3.70002 -27.40355,6.46929 l -3.28471,1.07651 4.80318,4.13397 c 2.64175,2.27369 7.57846,7.27791 10.97045,11.12049 3.392,3.84259 6.32448,6.99263 6.51663,7.0001 0.19214,0.007 2.16334,-6.5104 4.38045,-14.48415 z m -27.43768,-24.23834 c 0,-8.62378 -0.24467,-15.83082 -0.54372,-16.01564 -0.29904,-0.18482 -6.5776,3.32908 -13.95234,7.80868 l -13.40863,8.14472 7.41603,3.71932 c 4.07881,2.04562 10.12155,5.54927 13.42831,7.78589 3.30676,2.23662 6.24811,4.10484 6.53632,4.1516 0.28822,0.0468 0.52403,-6.9708 0.52403,-15.59457 z M 371.2991,559.26403 c 5.9792,-22.59531 18.37636,-43.14692 37.6586,-62.42915 15.70681,-15.70681 32.79316,-27.1819 50.97101,-34.23182 5.6576,-2.19419 20.4395,-6.38317 20.89993,-5.92274 0.31567,0.31567 -3.61083,15.31552 -7.02804,26.8482 l -2.35097,7.93426 -9.8169,5.0368 c -13.07205,6.70693 -19.78426,11.60307 -30.24928,22.06496 -10.21075,10.20771 -16.57321,18.85108 -22.17041,30.11838 l -4.02836,8.1092 -8.38445,2.53004 c -7.99741,2.41324 -26.33435,7.45294 -27.11755,7.45294 -0.20414,0 0.52325,-3.37998 1.61642,-7.51107 z m 35.45716,-9.85461 c 2.01724,-4.11242 5.54287,-10.37675 7.83474,-13.92072 l 4.16703,-6.4436 -16.08574,0 c -8.84715,0 -15.96347,0.23581 -15.81404,0.52402 2.43374,4.69397 15.60219,27.40967 15.86704,27.37078 0.1998,-0.0294 2.01374,-3.41805 4.03097,-7.53048 z m 15.73239,-24.38187 c 4.70622,-5.50696 12.12337,-12.91402 15.67677,-15.65546 2.03566,-1.5705 3.70088,-3.05303 3.70048,-3.29451 -0.001,-0.67124 -29.26185,-8.79004 -29.78706,-8.26483 -0.62604,0.62604 7.0633,29.83494 7.85415,29.83494 0.17408,0 1.32413,-1.17906 2.55566,-2.62014 z m 40.58257,-31.34899 c 7.06098,-3.44794 7.98102,-4.08865 6.91964,-4.81881 -5.57493,-3.83516 -25.55573,-15.71754 -25.8817,-15.39158 -0.22745,0.22746 -0.54949,7.4985 -0.71564,16.15786 l -0.3021,15.74431 5.91801,-3.85755 c 3.25491,-2.12166 9.58271,-5.64706 14.06179,-7.83423 z m 242.64635,68.74821 c 10.92873,-46.84729 55.93219,-92.22312 103.41698,-104.27268 3.74883,-0.95129 6.93149,-1.61418 7.0726,-1.47308 0.33318,0.33319 -0.4462,3.37217 -5.27323,20.56135 l -3.99458,14.22477 -8.21552,4.12448 c -14.4218,7.24023 -23.9528,14.17308 -33.83078,24.60849 -9.40364,9.93429 -18.73084,23.5053 -22.64437,32.9474 -1.27437,3.07465 -1.92886,3.79971 -4.04861,4.48512 -3.58375,1.1588 -32.4012,9.14248 -33.0002,9.14248 -0.27318,0 -0.0402,-1.95675 0.51771,-4.34833 z m 36.4165,-13.01735 c 2.01724,-4.11242 5.54287,-10.37675 7.83474,-13.92072 l 4.16703,-6.4436 -16.08574,0 c -8.84715,0 -15.96347,0.23581 -15.81403,0.52402 2.43373,4.69397 15.60218,27.40967 15.86703,27.37078 0.1998,-0.0294 2.01374,-3.41805 4.03097,-7.53048 z m 15.73239,-24.38187 c 4.70622,-5.50696 12.12337,-12.91402 15.67677,-15.65546 2.03566,-1.5705 3.70088,-3.05303 3.70048,-3.29451 -10e-4,-0.67124 -29.26185,-8.79004 -29.78706,-8.26483 -0.62604,0.62604 7.0633,29.83494 7.85415,29.83494 0.17408,0 1.32413,-1.17906 2.55566,-2.62014 z m 40.58257,-31.34899 c 7.06098,-3.44794 7.98102,-4.08865 6.91964,-4.81881 -4.9954,-3.43649 -25.53834,-15.73493 -25.81726,-15.45602 -0.19201,0.19201 -0.52298,7.46887 -0.7355,16.17081 l -0.3864,15.82169 5.93787,-3.8705 c 3.26583,-2.12877 9.60257,-5.66 14.08165,-7.84717 z"
         id="path3240"
         style="fill:#fa1711" />
      <path
         d="m 472.60959,744.60031 c -38.74053,-10.69302 -74.39464,-40.96912 -92.86472,-78.85714 -5.18207,-10.63008 -11.56817,-29.70328 -10.35236,-30.91909 0.65049,-0.65049 35.06261,9.41407 35.36322,10.34273 1.42695,4.40829 10.1782,19.76851 14.65081,25.71514 6.87751,9.14412 20.10487,22.03508 28.44566,27.72222 5.80703,3.9595 16.8149,9.92629 20.23727,10.96957 1.16674,0.35567 2.00436,2.57452 4.71374,12.48671 1.81218,6.6298 4.05232,14.80533 4.97807,18.16784 0.92576,3.36251 1.47712,6.09062 1.22524,6.06247 -0.25187,-0.0282 -3.13049,-0.78887 -6.39693,-1.69045 z m -16.58964,-23.76105 c 7.1757,-4.22715 13.05783,-7.85238 13.07142,-8.05606 0.0136,-0.20368 -2.86228,-1.77577 -6.39082,-3.49352 -3.52853,-1.71776 -9.67739,-5.24551 -13.66411,-7.83944 -3.98674,-2.59394 -7.38809,-4.71625 -7.55857,-4.71625 -0.17047,0 -0.30995,7.25464 -0.30995,16.12141 0,12.82682 0.18447,16.07525 0.90266,15.89551 0.49647,-0.12424 6.77368,-3.68449 13.94937,-7.91165 z m -31.97027,-20.27247 c 6.53288,-1.77388 12.87556,-3.53553 14.09486,-3.91478 l 2.21689,-0.68953 -8.50523,-8.28392 c -4.67787,-4.55615 -9.44848,-9.56301 -10.60134,-11.12634 -1.15286,-1.56333 -2.28669,-2.84986 -2.51962,-2.85894 -0.53948,-0.021 -7.4348,23.79754 -8.03926,27.7701 -0.35983,2.36487 -0.254,2.91491 0.51095,2.65565 0.53063,-0.17985 6.30987,-1.77836 12.84275,-3.55224 z m -7.08409,-29.16081 c -0.29088,-0.48036 -1.84135,-2.91709 -3.44548,-5.41496 -3.29175,-5.12572 -6.74967,-11.77835 -9.07937,-17.46759 -0.86549,-2.11358 -1.78011,-3.77705 -2.03249,-3.6966 -0.44293,0.14118 -17.13663,26.61458 -17.13663,27.1758 0,0.1522 7.25014,0.27673 16.11142,0.27673 12.7054,0 15.99962,-0.18464 15.58255,-0.87338 z m 129.7066,74.34568 c 0,-0.22176 1.74942,-7.01824 3.88761,-15.10327 2.13819,-8.08503 4.18041,-15.82859 4.53827,-17.20791 0.61142,-2.35661 1.20923,-2.78836 9.91179,-7.15867 12.27486,-6.16427 20.7358,-12.31503 30.91481,-22.47384 9.9508,-9.93106 16.30639,-18.60377 21.99353,-30.01196 l 4.16366,-8.35214 17.49276,-5.00279 c 9.62102,-2.75153 17.49056,-4.80977 17.48787,-4.57388 -0.003,0.23591 -0.61024,2.94425 -1.3501,6.01855 -6.5095,27.04844 -24.51512,54.25547 -49.92926,75.44462 -11.53912,9.62081 -29.96945,20.03862 -43.29948,24.47522 -7.70458,2.56429 -15.81146,4.58753 -15.81146,3.94607 z m 37.0313,-32.27007 0,-16.09149 -5.41495,3.66603 c -2.97823,2.0163 -8.96009,5.46881 -13.29303,7.67222 -4.33294,2.20341 -7.88598,4.20469 -7.89564,4.44728 -0.0191,0.48061 25.22397,16.32576 26.07959,16.37021 0.28822,0.0149 0.52403,-7.21394 0.52403,-16.06425 z m 32.14037,-8.96539 c 0,-0.59793 -4.34997,-16.27761 -7.08615,-25.54236 l -1.42768,-4.83413 -1.83106,2.38867 c -3.06687,4.00079 -10.62189,11.64392 -15.64877,15.83127 -3.12387,2.60214 -4.45716,4.12589 -3.88071,4.43505 1.75875,0.94323 26.72362,7.97374 29.35035,8.26552 0.28821,0.032 0.52402,-0.2128 0.52402,-0.54402 z m 23.71094,-33.11022 c -1.81031,-3.58947 -15.00707,-25.64349 -15.35436,-25.65973 -0.20747,-0.01 -1.93676,3.18344 -3.84287,7.09586 -1.90611,3.91243 -5.4114,10.04355 -7.78954,13.62472 l -4.32388,6.51123 16.05175,0 16.05176,0 -0.79286,-1.57208 z m 168.4326,73.19433 c -9.04615,-2.49689 -15.68714,-5.02069 -23.7837,-9.0386 -37.12206,-18.42182 -68.08571,-55.44579 -77.9965,-93.26228 -1.01787,-3.88386 -1.67518,-7.23704 -1.4607,-7.45152 0.53504,-0.53505 34.17342,8.93158 34.89167,9.81933 0.31684,0.39161 2.28576,4.17061 4.37537,8.39776 6.67161,13.49624 13.4094,22.48315 25.65115,34.21367 8.68952,8.32664 18.82187,15.38301 28.643,19.94758 l 6.73983,3.13246 3.21751,11.87796 c 1.76963,6.53288 3.98217,14.62911 4.91676,17.99162 0.93458,3.36251 1.48444,6.09062 1.22191,6.06247 -0.26252,-0.0282 -3.14986,-0.78887 -6.4163,-1.69045 z m -16.58964,-23.76105 c 7.1757,-4.22715 13.05783,-7.85238 13.07142,-8.05606 0.0136,-0.20368 -2.86228,-1.77577 -6.39082,-3.49352 -3.52853,-1.71776 -9.67739,-5.24551 -13.66411,-7.83944 -3.98674,-2.59394 -7.38809,-4.71625 -7.55857,-4.71625 -0.17047,0 -0.30995,7.25464 -0.30995,16.12141 0,12.82682 0.18447,16.07525 0.90266,15.89551 0.49647,-0.12424 6.77368,-3.68449 13.94937,-7.91165 z m -31.97027,-20.27247 c 6.53288,-1.77388 12.87556,-3.53553 14.09486,-3.91478 l 2.21689,-0.68953 -8.50523,-8.28392 c -4.67787,-4.55615 -9.44848,-9.56301 -10.60134,-11.12634 -1.15286,-1.56333 -2.28669,-2.84986 -2.51961,-2.85894 -0.53949,-0.021 -7.43481,23.79754 -8.03927,27.7701 -0.35983,2.36487 -0.25401,2.91491 0.51095,2.65565 0.53063,-0.17985 6.30987,-1.77836 12.84275,-3.55224 z m -7.08409,-29.16081 c -0.29088,-0.48036 -1.87746,-2.96587 -3.52574,-5.52336 -3.01979,-4.68556 -8.40624,-15.25873 -9.97083,-19.57194 -0.6804,-1.87571 -0.97795,-2.12491 -1.52929,-1.28077 -2.35617,3.60746 -16.66811,26.78638 -16.66811,26.99485 0,0.14003 7.25014,0.2546 16.11142,0.2546 12.7054,0 15.99962,-0.18464 15.58255,-0.87338 z M 882.05,745.61823 c 0,-0.32199 1.74735,-7.12943 3.88299,-15.12766 2.13564,-7.99823 4.18576,-15.7001 4.55582,-17.11528 0.62979,-2.40842 1.14176,-2.79705 8.00145,-6.07386 23.53806,-11.24388 43.3901,-30.63488 54.75744,-53.48575 l 4.14506,-8.33246 17.35154,-5.03483 c 9.54335,-2.76916 17.44973,-4.94767 17.56974,-4.84115 0.44074,0.3912 -2.63098,12.05056 -4.78343,18.15647 -6.55858,18.60489 -17.8771,35.79974 -34.52116,52.4438 -13.70242,13.70242 -26.43374,22.88412 -42.10897,30.36858 -9.84401,4.70022 -28.85048,10.65711 -28.85048,9.04214 z m 37.0313,-32.13664 0,-16.09149 -5.41495,3.66603 c -2.97823,2.0163 -8.96009,5.46881 -13.29303,7.67222 -4.33294,2.20341 -7.88598,4.20469 -7.89564,4.44728 -0.0191,0.48061 25.22397,16.32576 26.07959,16.37021 0.28822,0.0149 0.52403,-7.21394 0.52403,-16.06425 z m 32.13856,-8.88719 c -0.002,-0.55978 -4.7112,-17.59292 -7.08347,-25.62056 l -1.42855,-4.83413 -1.83106,2.38867 c -3.06687,4.00079 -10.62189,11.64392 -15.64877,15.83127 -3.12387,2.60214 -4.45716,4.12589 -3.88071,4.43505 1.75875,0.94323 26.72362,7.97374 29.35035,8.26552 0.28821,0.032 0.52321,-0.1776 0.52221,-0.46582 z m 23.71275,-33.18842 c -1.74963,-3.46915 -15.0012,-25.64328 -15.33462,-25.65973 -0.19662,-0.01 -1.92591,3.20123 -3.84288,7.1354 -1.91696,3.93417 -5.43113,10.0653 -7.80927,13.62472 l -4.32388,6.47169 16.05175,0 16.05176,0 -0.79286,-1.57208 z M 465.9719,625.31451 c -2.69001,-0.36949 -4.98785,-0.76685 -5.10632,-0.88303 -0.11847,-0.11617 1.2178,-3.27819 2.96949,-7.0267 1.75169,-3.74851 3.18489,-7.23388 3.18489,-7.74526 0,-0.51139 -3.45965,-6.33351 -7.6881,-12.93806 -4.22845,-6.60454 -7.53106,-12.16529 -7.33913,-12.35722 0.19193,-0.19193 2.41033,-1.21864 4.92978,-2.28158 l 4.58081,-1.93261 2.98279,4.66646 c 1.64054,2.56655 4.16738,6.52414 5.61522,8.79463 l 2.63243,4.12817 3.46041,-8.77423 3.46042,-8.77423 5.03662,1.56311 c 3.21405,0.99747 4.96195,1.89137 4.83028,2.47027 -0.44137,1.94043 -17.8985,41.93555 -18.26735,41.85138 -0.21522,-0.0491 -2.59223,-0.39162 -5.28224,-0.7611 z m 66.37686,-0.0427 c -2.69001,-0.34601 -5.01617,-0.75248 -5.16924,-0.90326 -0.15308,-0.15078 1.22895,-3.56897 3.07117,-7.59596 l 3.34949,-7.32181 -7.88123,-12.30065 c -4.47365,-6.98227 -7.61409,-12.55637 -7.26339,-12.89212 0.33981,-0.32532 2.57508,-1.37989 4.96728,-2.34349 l 4.34943,-1.75199 5.41159,8.64036 c 2.97637,4.7522 5.57313,8.47882 5.77057,8.28137 0.19744,-0.19744 1.82371,-4.03221 3.61394,-8.52172 1.79024,-4.48951 3.45628,-8.12017 3.70232,-8.06814 3.38492,0.71579 9.48465,2.82096 9.48465,3.2734 0,0.9206 -17.57539,41.69071 -18.07323,41.92496 -0.24333,0.1145 -2.64334,-0.0749 -5.33335,-0.42095 z m 269.00095,0.0427 c -2.69001,-0.36949 -4.99994,-0.77894 -5.13319,-0.9099 -0.13325,-0.13095 1.20302,-3.28914 2.96949,-7.01819 1.76647,-3.72905 3.21176,-7.19774 3.21176,-7.7082 0,-0.51046 -3.46892,-6.32714 -7.70871,-12.92595 -4.2398,-6.59881 -7.5424,-12.16415 -7.33913,-12.36742 0.20326,-0.20327 2.43495,-1.24094 4.95929,-2.30594 l 4.58972,-1.93637 3.66037,5.71827 c 2.01321,3.14505 4.37654,6.89733 5.25187,8.33841 0.87532,1.44107 1.82518,2.62014 2.11081,2.62014 0.28563,0 2.00557,-3.74043 3.82209,-8.31206 l 3.30276,-8.31205 5.0294,1.56091 c 3.47038,1.07706 4.95843,1.86681 4.80045,2.54774 -0.51206,2.20712 -17.77663,41.85435 -18.18968,41.77171 -0.24551,-0.0491 -2.64729,-0.39162 -5.3373,-0.7611 z m 66.37686,-0.0418 c -2.69001,-0.3465 -5.02124,-0.75844 -5.18051,-0.91541 -0.15928,-0.15698 1.2144,-3.57305 3.0526,-7.59127 l 3.34218,-7.30584 -7.86153,-12.30646 c -4.45149,-6.9684 -7.59401,-12.56254 -7.24481,-12.89683 0.33918,-0.3247 2.57264,-1.37823 4.96323,-2.34117 l 4.34653,-1.75081 4.66248,7.45384 c 2.56438,4.09961 5.05006,8.01861 5.52374,8.70888 0.75542,1.10081 1.16566,0.49977 3.33828,-4.89092 1.36237,-3.38029 2.9607,-7.28484 3.55184,-8.67679 l 1.07481,-2.53082 4.91887,1.44855 c 2.70538,0.79671 4.91828,1.77837 4.91757,2.18147 -0.002,0.99293 -17.32996,41.07665 -17.99059,41.61598 -0.28807,0.23518 -2.72468,0.14409 -5.41469,-0.2024 z m -502.79961,-0.77114 c -3.82504,-1.36687 -7.43941,-3.80442 -9.34425,-6.3018 -5.68426,-7.45244 -6.64512,-17.87852 -2.42275,-26.28856 1.93625,-3.85658 7.57535,-8.69444 11.75105,-10.08139 3.66301,-1.21666 10.57083,-1.62087 13.23723,-0.77459 1.75483,0.55696 1.97774,1.14884 2.59166,6.88161 l 0.49652,4.6364 -3.58108,-1.51297 c -3.21748,-1.35934 -3.90966,-1.42508 -6.81718,-0.64743 -6.56869,1.75685 -9.68246,5.863 -9.64754,12.72226 0.0497,9.7566 9.08582,15.82987 17.29954,11.62715 l 3.34975,-1.71396 -0.41727,3.23945 c -1.10779,8.60024 -0.99378,8.29543 -3.27369,8.75141 -3.53943,0.7079 -10.53233,0.42357 -13.22199,-0.53758 z m 29.42781,-21.01961 0,-21.85127 2.62014,-0.43308 c 1.44107,-0.23819 3.7992,-0.43654 5.24027,-0.44077 l 2.62014,-0.008 0,21.62816 0,21.62815 -2.27078,0.34512 c -1.24894,0.18982 -3.60706,0.48856 -5.24028,0.66388 l -2.96949,0.31876 0,-21.85126 z m 31.24437,21.55724 c -0.30065,-0.30242 -0.52564,-7.64025 -0.49997,-16.3063 0.0256,-8.66604 0.0358,-16.14946 0.0226,-16.62981 -0.017,-0.61894 -1.55073,-0.87338 -5.26432,-0.87338 -2.88216,0 -5.23601,-0.23582 -5.23079,-0.52403 0.005,-0.28822 0.57396,-2.41053 1.26386,-4.71625 l 1.25437,-4.19222 14.80633,-0.18858 14.80632,-0.18857 0,4.90482 0,4.90483 -5.24028,0 -5.24028,0 0,16.76889 0,16.76888 -2.62013,0.008 c -1.44108,0.004 -3.7206,0.18908 -5.06561,0.41078 -1.345,0.2217 -2.69145,0.15566 -2.9921,-0.14676 z m 175.93661,-0.39277 c -1.91301,-0.3649 -3.59319,-0.77845 -3.73373,-0.91899 -0.14053,-0.14054 1.86394,-4.13005 4.45439,-8.86557 2.59045,-4.73552 7.67545,-14.11233 11.3,-20.83735 3.62455,-6.72502 6.80317,-12.44952 7.0636,-12.7211 0.43101,-0.44945 22.5544,39.54384 23.02434,41.62197 0.13357,0.59065 -1.30961,1.17036 -4.27278,1.71634 -2.46096,0.45345 -4.80161,0.82446 -5.20143,0.82446 -0.39984,0 -1.68333,-2.04371 -2.85222,-4.54158 l -2.12527,-4.54157 -8.46497,0 -8.46497,0 -2.05925,4.54157 c -2.26675,4.9992 -2.17581,4.96015 -8.66771,3.72182 z m 24.78867,-16.37099 c 0,-0.80598 -5.06662,-10.05863 -5.5015,-10.04684 -0.42561,0.0115 -5.67776,9.35024 -5.67776,10.09547 0,0.20527 2.51533,0.37323 5.58963,0.37323 3.0743,0 5.58963,-0.18983 5.58963,-0.42186 z m 25.15334,-5.04163 0,-21.91996 9.62839,0.24167 c 8.6452,0.21701 9.98297,0.42199 13.1007,2.00734 7.8239,3.97842 8.84657,15.44466 1.87278,20.99778 l -2.12386,1.6912 5.52988,7.66669 c 3.04144,4.21668 5.52989,7.89776 5.52989,8.18019 0,0.42365 -8.70924,3.36747 -9.96263,3.36747 -0.20871,0 -3.16178,-4.47968 -6.56236,-9.95484 l -6.18289,-9.95484 -0.19476,9.22825 -0.19476,9.22824 -2.2507,0.35385 c -1.23789,0.19462 -3.58697,0.45129 -5.22019,0.57038 l -2.96949,0.21653 0,-21.91995 z m 14.98833,-1.11504 c 6.21121,-2.59521 4.63542,-11.58777 -2.03056,-11.58777 l -2.47722,0 0,6.28834 c 0,6.9718 0.13248,7.12754 4.50778,5.29943 z m 34.17575,22.58649 c -1.20485,-0.34919 -3.70999,-1.6571 -5.56698,-2.90648 -13.29522,-8.9449 -11.86725,-31.61505 2.45152,-38.91994 4.88171,-2.49046 15.33372,-3.15998 17.38644,-1.11373 0.41112,0.40984 2.17292,10.862 1.83088,10.862 -0.0599,0 -1.59589,-0.65778 -3.41338,-1.46174 -12.3629,-5.46871 -22.75752,11.37563 -13.0255,21.10765 4.34921,4.34921 10.52656,4.98225 15.37429,1.57552 l 1.66736,-1.17173 -0.46333,3.4252 c -1.12591,8.32328 -1.18582,8.51824 -2.74657,8.93683 -2.26913,0.60858 -10.9875,0.39307 -13.49473,-0.33358 z m 29.09074,-21.30799 0,-21.86379 2.96949,-0.36623 c 1.63322,-0.20142 3.99134,-0.48065 5.24028,-0.62051 l 2.27078,-0.25427 0,21.87484 0,21.87485 -1.57208,0.32399 c -0.86465,0.1782 -3.22277,0.45244 -5.24028,0.60945 l -3.66819,0.28546 0,-21.86379 z m 31.26699,21.66454 c -0.28821,-0.28997 -0.52403,-8.02082 -0.52403,-17.17967 l 0,-16.65243 -5.32176,0 c -5.18568,0 -5.31033,-0.0402 -4.87423,-1.57209 0.24615,-0.86464 0.80845,-3.06556 1.24955,-4.89092 l 0.802,-3.31885 14.90213,0 14.90213,0 0,4.89093 0,4.89093 -5.24028,0 -5.24028,0 0,16.76889 0,16.76888 -2.62014,0.008 c -1.44107,0.004 -3.72059,0.18908 -5.0656,0.41078 -1.345,0.2217 -2.68127,0.16584 -2.96949,-0.12414 z m 175.91399,-0.41538 c -1.91301,-0.3649 -3.58979,-0.77505 -3.72618,-0.91145 -0.13639,-0.13639 2.03224,-4.44031 4.81918,-9.56427 2.78695,-5.12395 7.84302,-14.48775 11.23574,-20.80844 3.39271,-6.32069 6.41453,-11.73813 6.71517,-12.03876 0.5019,-0.5019 23.21235,40.47745 23.21235,41.885 0,0.53648 -7.40796,2.25768 -9.71695,2.25768 -0.45213,0 -1.739,-2.04371 -2.85971,-4.54158 l -2.03767,-4.54157 -8.44289,0 -8.44289,0 -2.03767,4.54157 c -2.24646,5.00693 -2.16458,4.97198 -8.71848,3.72182 z m 24.78867,-16.37099 c 0,-0.80598 -5.06662,-10.05863 -5.5015,-10.04684 -0.42561,0.0115 -5.67776,9.35024 -5.67776,10.09547 0,0.20527 2.51533,0.37323 5.58963,0.37323 3.0743,0 5.58963,-0.18983 5.58963,-0.42186 z m 25.15334,-4.98799 0,-21.9736 9.62839,0.24167 c 8.64524,0.21701 9.98294,0.42199 13.10074,2.00734 5.9841,3.04289 8.2123,10.02361 5.2687,16.5063 -0.7243,1.59526 -2.2618,3.59905 -3.4167,4.45287 l -2.0997,1.55241 5.7927,8.12379 5.7927,8.12379 -3.3009,1.14353 c -7.8679,2.72572 -6.8004,3.33993 -13.7567,-7.9148 l -6.17933,-9.99762 -0.19489,9.24959 c -0.22086,10.48123 0.38196,9.601 -6.96682,10.17288 l -3.66819,0.28546 0,-21.97361 z m 14.98833,-1.16868 c 6.2112,-2.59521 4.6354,-11.58777 -2.03056,-11.58777 l -2.47722,0 0,6.28834 c 0,6.9718 0.13248,7.12754 4.50778,5.29943 z m -437.00541,0.98854 0,-21.6917 12.34977,0.1908 12.34978,0.1908 0.89599,3.84287 c 0.4928,2.11358 0.90932,4.07868 0.9256,4.36689 0.0163,0.28822 -3.60262,0.52403 -8.04201,0.52403 l -8.0716,0 0.21119,3.6682 0.21119,3.66819 5.81084,0.20369 5.81084,0.20368 -0.25188,4.33789 -0.25188,4.33789 -5.73364,0.20293 -5.73364,0.20293 0,4.16397 0,4.16397 8.7338,0 c 4.80359,0 8.72917,0.0786 8.72351,0.17467 -0.006,0.0961 -0.59879,2.06118 -1.31807,4.3669 l -1.30777,4.19222 -12.65601,0.19044 -12.65601,0.19044 0,-21.6917 z m 335.37781,0 0,-21.6917 12.35233,0.1908 12.35234,0.1908 0.46482,1.74676 c 0.25565,0.96071 0.68331,2.91541 0.95035,4.34375 l 0.48554,2.59701 -7.88774,0.19781 -7.88773,0.19781 0,3.49352 0,3.49352 5.7643,0.20293 5.76431,0.20293 0,4.48507 0,4.48506 -5.76431,0.20293 -5.7643,0.20293 0,3.84287 0,3.84287 8.59927,0.19651 c 7.96656,0.18204 8.56944,0.29051 8.19375,1.47422 -0.22305,0.70275 -0.80491,2.65803 -1.29302,4.34507 l -0.88749,3.06735 -12.72121,0.19044 -12.72121,0.19044 0,-21.6917 z M 643.09331,564.28642 c -7.4936,-2.09735 -15.09503,-4.17334 -16.89208,-4.61333 -3.22597,-0.78983 -3.2952,-0.86718 -5.46623,-6.10681 -6.75375,-16.29965 -20.83682,-33.85888 -37.03151,-46.17206 -6.33857,-4.81935 -17.02127,-11.25987 -22.0861,-13.31553 -3.50272,-1.42166 -3.7636,-1.7029 -4.73383,-5.10357 -0.56476,-1.97945 -2.8191,-9.82097 -5.00965,-17.4256 -2.19055,-7.60462 -3.82186,-13.98755 -3.62513,-14.18428 0.50741,-0.50742 10.48494,2.1207 17.76354,4.67898 40.70083,14.30552 79.0768,55.58772 90.21323,97.04514 2.25843,8.40741 2.36205,9.08709 1.37917,9.04678 -0.48768,-0.02 -7.01781,-1.75238 -14.51141,-3.84972 z m -9.18765,-19.77671 c 4.28463,-7.05808 7.79024,-13.09933 7.79024,-13.42499 0,-0.32565 -7.23185,-0.68199 -16.07077,-0.79184 -8.83893,-0.10985 -16.07052,-0.13194 -16.07019,-0.0491 3.2e-4,0.0829 1.71823,2.78572 3.81756,6.00638 2.09933,3.22066 5.61096,9.52965 7.80363,14.01997 2.19266,4.49032 4.201,7.91858 4.46297,7.61835 0.26197,-0.30024 3.98192,-6.32068 8.26656,-13.37877 z m -20.66838,-29.96309 c 2.2171,-7.97375 4.025,-14.86605 4.01755,-15.31621 -0.0136,-0.82384 -19.23171,3.76942 -29.91318,7.14948 -0.51845,0.16406 1.17063,2.07095 3.96394,4.47507 2.67704,2.30406 7.64262,7.33313 11.03461,11.17571 3.392,3.84259 6.32448,6.99263 6.51663,7.0001 0.19214,0.007 2.16334,-6.5104 4.38045,-14.48415 z M 585.7996,490.30828 c 0,-8.62378 -0.25583,-15.83772 -0.56851,-16.03096 -0.31269,-0.19325 -6.58488,3.32235 -13.93821,7.81244 l -13.36969,8.16381 8.52325,4.37584 c 4.68779,2.40672 10.72417,5.9117 13.41418,7.78885 2.69001,1.87716 5.12674,3.44825 5.41495,3.49131 0.28822,0.0431 0.52403,-6.97752 0.52403,-15.60129 z m 397.9118,75.47084 c -4.61145,-1.26158 -12.21729,-3.34971 -16.90187,-4.64029 l -8.51742,-2.34651 -1.8917,-4.56773 c -9.76542,-23.57981 -31.21496,-45.99598 -55.62364,-58.13033 -3.95899,-1.96814 -7.27504,-3.63726 -7.369,-3.70916 -0.29776,-0.22785 -9.96036,-33.79226 -9.96036,-34.59873 0,-1.13143 3.85168,-0.291 14.32342,3.12535 19.49668,6.36069 37.33142,17.32717 53.37822,32.82197 21.97265,21.21681 36.47443,46.07983 42.297,72.51738 0.52498,2.38368 0.74195,2.39419 -9.73465,-0.47195 z m -14.42793,-21.26941 c 4.28463,-7.05808 7.79024,-13.09933 7.79024,-13.42499 0,-0.32565 -7.23185,-0.68199 -16.07077,-0.79184 -8.83893,-0.10985 -16.07052,-0.13194 -16.07019,-0.0491 3.2e-4,0.0829 1.71823,2.78572 3.81756,6.00638 2.09933,3.22066 5.61096,9.52965 7.80363,14.01997 2.19266,4.49032 4.201,7.91858 4.46297,7.61835 0.26197,-0.30024 3.98192,-6.32068 8.26656,-13.37877 z m -20.66838,-29.96309 c 2.2171,-7.97375 4.025,-14.86605 4.01755,-15.31621 -0.0128,-0.77147 -18.95378,3.70002 -27.40355,6.46929 l -3.28471,1.07651 4.80318,4.13397 c 2.64175,2.27369 7.57846,7.27791 10.97045,11.12049 3.392,3.84259 6.32448,6.99263 6.51663,7.0001 0.19214,0.007 2.16334,-6.5104 4.38045,-14.48415 z m -27.43768,-24.23834 c 0,-8.62378 -0.24467,-15.83082 -0.54372,-16.01564 -0.29904,-0.18482 -6.5776,3.32908 -13.95234,7.80868 l -13.40863,8.14472 7.41603,3.71932 c 4.07881,2.04562 10.12155,5.54927 13.42831,7.78589 3.30676,2.23662 6.24811,4.10484 6.53632,4.1516 0.28822,0.0468 0.52403,-6.9708 0.52403,-15.59457 z M 371.2991,559.26403 c 5.9792,-22.59531 18.37636,-43.14692 37.6586,-62.42915 15.70681,-15.70681 32.79316,-27.1819 50.97101,-34.23182 5.6576,-2.19419 20.4395,-6.38317 20.89993,-5.92274 0.31567,0.31567 -3.61083,15.31552 -7.02804,26.8482 l -2.35097,7.93426 -9.8169,5.0368 c -13.07205,6.70693 -19.78426,11.60307 -30.24928,22.06496 -10.21075,10.20771 -16.57321,18.85108 -22.17041,30.11838 l -4.02836,8.1092 -8.38445,2.53004 c -7.99741,2.41324 -26.33435,7.45294 -27.11755,7.45294 -0.20414,0 0.52325,-3.37998 1.61642,-7.51107 z m 35.45716,-9.85461 c 2.01724,-4.11242 5.54287,-10.37675 7.83474,-13.92072 l 4.16703,-6.4436 -16.08574,0 c -8.84715,0 -15.96347,0.23581 -15.81404,0.52402 2.43374,4.69397 15.60219,27.40967 15.86704,27.37078 0.1998,-0.0294 2.01374,-3.41805 4.03097,-7.53048 z m 15.73239,-24.38187 c 4.70622,-5.50696 12.12337,-12.91402 15.67677,-15.65546 2.03566,-1.5705 3.70088,-3.05303 3.70048,-3.29451 -0.001,-0.67124 -29.26185,-8.79004 -29.78706,-8.26483 -0.62604,0.62604 7.0633,29.83494 7.85415,29.83494 0.17408,0 1.32413,-1.17906 2.55566,-2.62014 z m 40.58257,-31.34899 c 7.06098,-3.44794 7.98102,-4.08865 6.91964,-4.81881 -5.57493,-3.83516 -25.55573,-15.71754 -25.8817,-15.39158 -0.22745,0.22746 -0.54949,7.4985 -0.71564,16.15786 l -0.3021,15.74431 5.91801,-3.85755 c 3.25491,-2.12166 9.58271,-5.64706 14.06179,-7.83423 z m 242.64635,68.74821 c 10.92873,-46.84729 55.93219,-92.22312 103.41698,-104.27268 3.74883,-0.95129 6.93149,-1.61418 7.0726,-1.47308 0.33318,0.33319 -0.4462,3.37217 -5.27323,20.56135 l -3.99458,14.22477 -8.21552,4.12448 c -14.4218,7.24023 -23.9528,14.17308 -33.83078,24.60849 -9.40364,9.93429 -18.73084,23.5053 -22.64437,32.9474 -1.27437,3.07465 -1.92886,3.79971 -4.04861,4.48512 -3.58375,1.1588 -32.4012,9.14248 -33.0002,9.14248 -0.27318,0 -0.0402,-1.95675 0.51771,-4.34833 z m 36.4165,-13.01735 c 2.01724,-4.11242 5.54287,-10.37675 7.83474,-13.92072 l 4.16703,-6.4436 -16.08574,0 c -8.84715,0 -15.96347,0.23581 -15.81403,0.52402 2.43373,4.69397 15.60218,27.40967 15.86703,27.37078 0.1998,-0.0294 2.01374,-3.41805 4.03097,-7.53048 z m 15.73239,-24.38187 c 4.70622,-5.50696 12.12337,-12.91402 15.67677,-15.65546 2.03566,-1.5705 3.70088,-3.05303 3.70048,-3.29451 -10e-4,-0.67124 -29.26185,-8.79004 -29.78706,-8.26483 -0.62604,0.62604 7.0633,29.83494 7.85415,29.83494 0.17408,0 1.32413,-1.17906 2.55566,-2.62014 z m 40.58257,-31.34899 c 7.06098,-3.44794 7.98102,-4.08865 6.91964,-4.81881 -4.9954,-3.43649 -25.53834,-15.73493 -25.81726,-15.45602 -0.19201,0.19201 -0.52298,7.46887 -0.7355,16.17081 l -0.3864,15.82169 5.93787,-3.8705 c 3.26583,-2.12877 9.60257,-5.66 14.08165,-7.84717 z"
         id="path3238"
         style="fill:#010101" />
    </g>
  </g>
</svg>
