<?xml version="1.0" encoding="UTF-8" standalone="no"?>
<!-- Created with Inkscape (http://www.inkscape.org/) -->

<svg
   xmlns:dc="http://purl.org/dc/elements/1.1/"
   xmlns:cc="http://creativecommons.org/ns#"
   xmlns:rdf="http://www.w3.org/1999/02/22-rdf-syntax-ns#"
   xmlns:svg="http://www.w3.org/2000/svg"
   xmlns="http://www.w3.org/2000/svg"
   version="1.1"
   width="139"
   height="139.28697"
   id="svg2">
  <defs
     id="defs4" />
  <metadata
     id="metadata7">
    <rdf:RDF>
      <cc:Work
         rdf:about="">
        <dc:format>image/svg+xml</dc:format>
        <dc:type
           rdf:resource="http://purl.org/dc/dcmitype/StillImage" />
        <dc:title></dc:title>
      </cc:Work>
    </rdf:RDF>
  </metadata>
  <g
     transform="translate(-281.71556,-529.76998)"
     id="layer1">
    <g
       transform="translate(-105.3084,-0.25253814)"
       id="g3050">
      <path
         d="m 431.96471,666.48248 c -4.06711,-3.42225 -5.94075,-7.89027 -5.94075,-14.16675 0,-4.52334 -0.23686,-5.01686 -2.84403,-5.92572 -4.05576,-1.41385 -9.94609,-6.8725 -12.21488,-11.3197 -1.80015,-3.52858 -1.94109,-6.09778 -1.94109,-35.38452 0,-29.28674 0.14094,-31.85594 1.94109,-35.38452 2.26879,-4.4472 8.15912,-9.90585 12.21488,-11.31969 2.60717,-0.90887 2.84403,-1.40239 2.84403,-5.92573 0,-6.27648 1.87364,-10.7445 5.94075,-14.16675 l 3.2127,-2.70331 21.88848,0 21.88848,0 3.5105,3.08227 c 3.7788,3.31782 5.54456,7.93319 5.55351,14.51586 0.005,3.79669 0.29339,4.22791 3.9186,5.86265 4.8975,2.20846 9.51751,6.9169 11.5363,11.7571 2.29298,5.49761 2.29298,63.06663 0,68.56424 -2.01879,4.8402 -6.6388,9.54864 -11.5363,11.7571 -3.62521,1.63474 -3.91343,2.06596 -3.9186,5.86265 -0.009,6.58267 -1.77471,11.19804 -5.55351,14.51586 l -3.5105,3.08227 -21.88848,0 -21.88848,0 -3.2127,-2.70331 z m 58.16137,-29.56662 c 6.61122,-4.41659 6.89477,-5.94771 6.89477,-37.23007 0,-31.32461 -0.27692,-32.80873 -6.95425,-37.27015 -3.45047,-2.30541 -3.51855,-2.30943 -34.17087,-2.01993 l -30.71351,0.29008 -2.67415,2.5 c -5.39046,5.03944 -5.48411,5.66271 -5.48411,36.5 0,30.54895 0.14871,31.59101 5.15499,36.12272 1.28975,1.16749 3.02001,2.36947 3.84501,2.67105 0.825,0.30159 14.82095,0.58386 31.10212,0.62728 29.17519,0.0778 29.65112,0.0462 33,-2.19098 z"
         id="path3064"
         style="fill:#fef6c6" />
      <path
         d="m 433.32829,667.22979 c -4.68733,-2.85805 -6.47199,-6.26352 -7.04891,-13.45073 -0.50352,-6.27285 -0.593,-6.44175 -4.29784,-8.1124 -4.77808,-2.15461 -9.40564,-6.90057 -11.4069,-11.69875 -2.29298,-5.49761 -2.29298,-63.06663 0,-68.56424 2.00126,-4.79818 6.62882,-9.54414 11.4069,-11.69875 3.70484,-1.67065 3.79432,-1.83955 4.29784,-8.1124 0.57692,-7.18721 2.36158,-10.59268 7.04891,-13.45073 2.88984,-1.76205 5.13838,-1.94888 23.49533,-1.95226 22.53906,-0.004 24.69284,0.47592 28.24082,6.29481 1.37598,2.25668 1.95315,5.017 1.95578,9.35362 0.004,6.00506 0.0793,6.17853 3.16472,7.25411 5.32819,1.85741 9.93907,6.11232 12.43686,11.47669 2.3435,5.03302 2.38262,5.60958 2.38262,35.11703 0,29.50745 -0.0391,30.08401 -2.38262,35.11703 -2.49779,5.36437 -7.10867,9.61928 -12.43686,11.4767 -3.08539,1.07557 -3.16107,1.24904 -3.16472,7.2541 -0.003,4.33662 -0.5798,7.09694 -1.95578,9.35362 -3.54798,5.81889 -5.70176,6.29896 -28.24082,6.29481 -18.35695,-0.003 -20.60549,-0.19021 -23.49533,-1.95226 z m 56.79779,-30.31393 c 6.61122,-4.41659 6.89477,-5.94771 6.89477,-37.23007 0,-31.32461 -0.27692,-32.80873 -6.95425,-37.27015 -3.45047,-2.30541 -3.51855,-2.30943 -34.17087,-2.01993 l -30.71351,0.29008 -2.67415,2.5 c -5.39046,5.03944 -5.48411,5.66271 -5.48411,36.5 0,30.54895 0.14871,31.59101 5.15499,36.12272 1.28975,1.16749 3.02001,2.36947 3.84501,2.67105 0.825,0.30159 14.82095,0.58386 31.10212,0.62728 29.17519,0.0778 29.65112,0.0462 33,-2.19098 z"
         id="path3062"
         style="fill:#fef2a7" />
      <path
         d="m 433.21582,667.16139 c -4.12266,-2.51352 -7.14071,-8.91683 -7.1699,-15.21218 -0.0204,-4.38956 -0.26007,-4.83636 -3.27196,-6.09846 -4.94251,-2.07111 -9.36702,-6.24238 -11.67209,-11.00402 -1.9663,-4.06183 -2.07791,-5.95041 -2.07791,-35.16094 0,-29.21053 0.11161,-31.09911 2.07791,-35.16094 2.30507,-4.76164 6.72958,-8.93291 11.67209,-11.00402 3.01189,-1.2621 3.25161,-1.7089 3.27196,-6.09846 0.0292,-6.29535 3.04724,-12.69866 7.1699,-15.21218 3.02993,-1.84731 5.01529,-2.01724 23.6078,-2.02066 22.53906,-0.004 24.69284,0.47592 28.24082,6.29481 1.37598,2.25668 1.95315,5.017 1.95578,9.35362 0.004,6.00506 0.0793,6.17853 3.16472,7.25411 5.22772,1.82239 9.48375,5.73979 12.23564,11.2621 l 2.60338,5.22431 0,30.10731 0,30.10731 -2.60338,5.22431 c -2.75189,5.52231 -7.00792,9.43971 -12.23564,11.26211 -3.08539,1.07557 -3.16107,1.24904 -3.16472,7.2541 -0.003,4.33662 -0.5798,7.09694 -1.95578,9.35362 -3.54798,5.81889 -5.70176,6.29896 -28.24082,6.29481 -18.59251,-0.003 -20.57787,-0.17335 -23.6078,-2.02066 z m 56.91026,-30.24553 c 6.61122,-4.41659 6.89477,-5.94771 6.89477,-37.23007 0,-31.32461 -0.27692,-32.80873 -6.95425,-37.27015 -3.45047,-2.30541 -3.51855,-2.30943 -34.17087,-2.01993 l -30.71351,0.29008 -2.67415,2.5 c -5.39046,5.03944 -5.48411,5.66271 -5.48411,36.5 0,30.54895 0.14871,31.59101 5.15499,36.12272 1.28975,1.16749 3.02001,2.36947 3.84501,2.67105 0.825,0.30159 14.82095,0.58386 31.10212,0.62728 29.17519,0.0778 29.65112,0.0462 33,-2.19098 z"
         id="path3060"
         style="fill:#feed88" />
      <path
         d="m 433.32251,667.22627 c -4.42593,-2.69864 -6.29855,-6.82916 -6.29855,-13.89299 0,-5.78145 -0.0905,-5.98339 -3.16098,-7.05376 -5.32819,-1.85742 -9.93907,-6.11233 -12.43686,-11.4767 -2.3435,-5.03302 -2.38262,-5.60958 -2.38262,-35.11703 0,-29.50745 0.0391,-30.08401 2.38262,-35.11703 2.49779,-5.36437 7.10867,-9.61928 12.43686,-11.47669 3.08539,-1.07558 3.16107,-1.24905 3.16472,-7.2541 0.004,-7.14265 2.2281,-11.68647 6.90238,-14.10363 4.45108,-2.30174 40.80151,-2.25566 45.67699,0.0579 5.0181,2.38125 7.41689,6.94256 7.41689,14.10327 l 0,5.97366 5.71669,2.92362 c 4.32767,2.21325 6.45372,4.11574 8.75,7.82989 l 3.03331,4.90626 0,32.15684 0,32.15684 -3.03331,4.90626 c -2.29628,3.71415 -4.42233,5.61664 -8.75,7.82989 l -5.71669,2.92362 0,5.97366 c 0,7.16071 -2.39879,11.72202 -7.41689,14.10327 -2.75657,1.30808 -7.0721,1.60577 -23.23424,1.60272 -17.92236,-0.003 -20.1596,-0.1932 -23.05032,-1.95578 z m 56.80357,-30.31041 c 6.61122,-4.41659 6.89477,-5.94771 6.89477,-37.23007 0,-31.32461 -0.27692,-32.80873 -6.95425,-37.27015 -3.45047,-2.30541 -3.51855,-2.30943 -34.17087,-2.01993 l -30.71351,0.29008 -2.67415,2.5 c -5.39046,5.03944 -5.48411,5.66271 -5.48411,36.5 0,30.54895 0.14871,31.59101 5.15499,36.12272 1.28975,1.16749 3.02001,2.36947 3.84501,2.67105 0.825,0.30159 14.82095,0.58386 31.10212,0.62728 29.17519,0.0778 29.65112,0.0462 33,-2.19098 z"
         id="path3058"
         style="fill:#fee867" />
      <path
         d="m 434.14545,667.47588 c -4.96898,-2.4479 -7.1133,-6.62997 -7.11775,-13.88178 l -0.004,-6.0917 -5.71669,-2.92362 c -4.32767,-2.21325 -6.45372,-4.11574 -8.75,-7.82989 l -3.03331,-4.90626 0,-32.15684 0,-32.15684 3.03331,-4.90626 c 2.29628,-3.71415 4.42233,-5.61664 8.75,-7.82989 l 5.71669,-2.92362 0.004,-6.0917 c 0.004,-7.33123 2.187,-11.50525 7.27933,-13.92173 4.76762,-2.26238 40.27146,-2.47371 44.51659,-0.26497 5.75178,2.99264 7.61017,6.15616 8.0352,13.67825 0.39334,6.96116 0.40758,6.9912 4.02994,8.50013 5.6533,2.35494 10.98736,8.17971 12.66552,13.83069 2.11704,7.12885 2.11704,57.04303 0,64.17188 -1.67816,5.65098 -7.01222,11.47575 -12.66552,13.83069 -3.62236,1.50893 -3.6366,1.53897 -4.02994,8.50013 -0.42503,7.52209 -2.28342,10.68561 -8.0352,13.67825 -4.23406,2.20298 -40.08403,1.95831 -44.67816,-0.30492 z m 55.98063,-30.56002 c 6.61122,-4.41659 6.89477,-5.94771 6.89477,-37.23007 0,-31.32461 -0.27692,-32.80873 -6.95425,-37.27015 -3.45047,-2.30541 -3.51855,-2.30943 -34.17087,-2.01993 l -30.71351,0.29008 -2.67415,2.5 c -5.39046,5.03944 -5.48411,5.66271 -5.48411,36.5 0,30.54895 0.14871,31.59101 5.15499,36.12272 1.28975,1.16749 3.02001,2.36947 3.84501,2.67105 0.825,0.30159 14.82095,0.58386 31.10212,0.62728 29.17519,0.0778 29.65112,0.0462 33,-2.19098 z"
         id="path3056"
         style="fill:#fee445" />
      <path
         d="m 434.52396,667.30034 c -5.35173,-2.46384 -7.5,-6.434 -7.5,-13.86054 l 0,-5.9374 -5.71669,-2.92362 c -4.32767,-2.21325 -6.45372,-4.11574 -8.75,-7.82989 l -3.03331,-4.90626 0,-32.15684 0,-32.15684 3.03331,-4.90626 c 2.29628,-3.71415 4.42233,-5.61664 8.75,-7.82989 l 5.71669,-2.92362 0,-5.97366 c 0,-7.55544 2.46278,-11.8775 8.03944,-14.10883 6.07826,-2.43204 39.02492,-2.31908 43.94063,0.15065 5.38055,2.70329 8.01993,7.43673 8.01993,14.38291 0,5.80179 0.0237,5.8486 3.75,7.40517 4.71835,1.97097 8.88142,5.88773 11.34158,10.67053 1.75928,3.42022 1.90842,6.17806 1.90842,35.28984 0,29.11178 -0.14914,31.86962 -1.90842,35.28984 -2.46016,4.7828 -6.62323,8.69956 -11.34158,10.67053 -3.7263,1.55657 -3.75,1.60338 -3.75,7.40517 0,6.94618 -2.63938,11.67962 -8.01993,14.38291 -2.94335,1.47878 -6.33329,1.74529 -21.98007,1.72803 -15.82602,-0.0174 -19.07816,-0.28658 -22.5,-1.86193 z m 55.60212,-30.38448 c 6.61122,-4.41659 6.89477,-5.94771 6.89477,-37.23007 0,-31.32461 -0.27692,-32.80873 -6.95425,-37.27015 -3.45047,-2.30541 -3.51855,-2.30943 -34.17087,-2.01993 l -30.71351,0.29008 -2.67415,2.5 c -5.39046,5.03944 -5.48411,5.66271 -5.48411,36.5 0,30.54895 0.14871,31.59101 5.15499,36.12272 1.28975,1.16749 3.02001,2.36947 3.84501,2.67105 0.825,0.30159 14.82095,0.58386 31.10212,0.62728 29.17519,0.0778 29.65112,0.0462 33,-2.19098 z"
         id="path3054"
         style="fill:#fee12e" />
      <path
         d="m 435.52396,667.77415 c -5.84559,-2.59809 -7.8998,-5.97206 -8.33599,-13.69154 l -0.39586,-7.00578 -3.90042,-1.56064 c -5.19237,-2.07757 -11.34946,-9.21509 -12.7511,-14.78152 -1.49831,-5.95029 -1.49831,-56.14747 0,-62.09776 1.40164,-5.56643 7.55873,-12.70395 12.7511,-14.78152 l 3.90042,-1.56064 0.39586,-7.00578 c 0.32395,-5.73301 0.84461,-7.49223 2.86593,-9.68336 4.46432,-4.83938 7.37754,-5.41995 27.18794,-5.41827 15.42919,0.001 18.8172,0.2744 21.71103,1.75 5.48937,2.7991 7.45422,6.33711 7.89993,14.22506 0.37152,6.57512 0.52298,6.94175 3.10168,7.50813 3.84456,0.84441 9.78324,6.03386 12.0985,10.57215 1.83814,3.60304 1.97098,5.99188 1.97098,35.44311 0,29.45123 -0.13284,31.84007 -1.97098,35.44311 -2.31526,4.53829 -8.25394,9.72774 -12.0985,10.57215 -2.5787,0.56638 -2.73016,0.93301 -3.10168,7.50813 -0.44571,7.88795 -2.41056,11.42596 -7.89993,14.22506 -2.90787,1.48275 -6.2401,1.74273 -21.92891,1.71085 -13.17891,-0.0268 -19.36288,-0.42109 -21.5,-1.37094 z m 54.60212,-30.85829 c 6.61122,-4.41659 6.89477,-5.94771 6.89477,-37.23007 0,-31.32461 -0.27692,-32.80873 -6.95425,-37.27015 -3.45047,-2.30541 -3.51855,-2.30943 -34.17087,-2.01993 l -30.71351,0.29008 -2.67415,2.5 c -5.39046,5.03944 -5.48411,5.66271 -5.48411,36.5 0,30.54895 0.14871,31.59101 5.15499,36.12272 1.28975,1.16749 3.02001,2.36947 3.84501,2.67105 0.825,0.30159 14.82095,0.58386 31.10212,0.62728 29.17519,0.0778 29.65112,0.0462 33,-2.19098 z"
         id="path3052"
         style="fill:#fedc07" />
    </g>
  </g>
</svg>
